<mxfile host="app.diagrams.net" agent="Mozilla/5.0 (Windows NT 10.0; Win64; x64) AppleWebKit/537.36 (KHTML, like Gecko) Chrome/140.0.0.0 Safari/537.36" version="28.2.2">
  <diagram name="PÃ¡gina-1" id="z9_Tl4zXJHEdTl6s_fh8">
    <mxGraphModel dx="5530" dy="942" grid="1" gridSize="10" guides="1" tooltips="1" connect="1" arrows="1" fold="1" page="1" pageScale="1" pageWidth="827" pageHeight="1169" math="0" shadow="0">
      <root>
        <mxCell id="0" />
        <mxCell id="1" parent="0" />
        <mxCell id="wo0TMsI5rG442XAfvcZ0-65" style="edgeStyle=orthogonalEdgeStyle;rounded=0;orthogonalLoop=1;jettySize=auto;html=1;" parent="1" source="z5Srj0_W4YSiYPK0m8sV-75" edge="1">
          <mxGeometry relative="1" as="geometry">
            <mxPoint x="-1590" y="400" as="targetPoint" />
          </mxGeometry>
        </mxCell>
        <mxCell id="wo0TMsI5rG442XAfvcZ0-307" style="edgeStyle=orthogonalEdgeStyle;rounded=0;orthogonalLoop=1;jettySize=auto;html=1;" parent="1" source="z5Srj0_W4YSiYPK0m8sV-75" edge="1">
          <mxGeometry relative="1" as="geometry">
            <mxPoint x="-660" y="360" as="targetPoint" />
          </mxGeometry>
        </mxCell>
        <mxCell id="z5Srj0_W4YSiYPK0m8sV-75" value="Conta" style="shape=table;startSize=30;container=1;collapsible=1;childLayout=tableLayout;fixedRows=1;rowLines=0;fontStyle=1;align=center;resizeLast=1;html=1;whiteSpace=wrap;fontSize=14;" parent="1" vertex="1">
          <mxGeometry x="-1920" y="140" width="660" height="120" as="geometry" />
        </mxCell>
        <mxCell id="z5Srj0_W4YSiYPK0m8sV-76" value="" style="shape=tableRow;horizontal=0;startSize=0;swimlaneHead=0;swimlaneBody=0;fillColor=none;collapsible=0;dropTarget=0;points=[[0,0.5],[1,0.5]];portConstraint=eastwest;top=0;left=0;right=0;bottom=0;html=1;" parent="z5Srj0_W4YSiYPK0m8sV-75" vertex="1">
          <mxGeometry y="30" width="660" height="30" as="geometry" />
        </mxCell>
        <mxCell id="z5Srj0_W4YSiYPK0m8sV-77" value="PK" style="shape=partialRectangle;connectable=0;fillColor=none;top=0;left=0;bottom=0;right=0;fontStyle=1;overflow=hidden;html=1;whiteSpace=wrap;align=center;fontSize=14;" parent="z5Srj0_W4YSiYPK0m8sV-76" vertex="1">
          <mxGeometry width="60" height="30" as="geometry">
            <mxRectangle width="60" height="30" as="alternateBounds" />
          </mxGeometry>
        </mxCell>
        <mxCell id="z5Srj0_W4YSiYPK0m8sV-78" value="ID_conta" style="shape=partialRectangle;connectable=0;fillColor=none;top=0;left=0;bottom=0;right=0;align=center;spacingLeft=6;fontStyle=5;overflow=hidden;html=1;whiteSpace=wrap;fontSize=14;" parent="z5Srj0_W4YSiYPK0m8sV-76" vertex="1">
          <mxGeometry x="60" width="120" height="30" as="geometry">
            <mxRectangle width="120" height="30" as="alternateBounds" />
          </mxGeometry>
        </mxCell>
        <mxCell id="wo0TMsI5rG442XAfvcZ0-30" value="01" style="shape=partialRectangle;connectable=0;fillColor=none;top=0;left=0;bottom=0;right=0;align=center;spacingLeft=6;fontStyle=5;overflow=hidden;html=1;whiteSpace=wrap;fontSize=14;" parent="z5Srj0_W4YSiYPK0m8sV-76" vertex="1">
          <mxGeometry x="180" width="120" height="30" as="geometry">
            <mxRectangle width="120" height="30" as="alternateBounds" />
          </mxGeometry>
        </mxCell>
        <mxCell id="wo0TMsI5rG442XAfvcZ0-33" value="02" style="shape=partialRectangle;connectable=0;fillColor=none;top=0;left=0;bottom=0;right=0;align=center;spacingLeft=6;fontStyle=5;overflow=hidden;html=1;whiteSpace=wrap;fontSize=14;" parent="z5Srj0_W4YSiYPK0m8sV-76" vertex="1">
          <mxGeometry x="300" width="120" height="30" as="geometry">
            <mxRectangle width="120" height="30" as="alternateBounds" />
          </mxGeometry>
        </mxCell>
        <mxCell id="wo0TMsI5rG442XAfvcZ0-36" value="03" style="shape=partialRectangle;connectable=0;fillColor=none;top=0;left=0;bottom=0;right=0;align=center;spacingLeft=6;fontStyle=5;overflow=hidden;html=1;whiteSpace=wrap;fontSize=14;" parent="z5Srj0_W4YSiYPK0m8sV-76" vertex="1">
          <mxGeometry x="420" width="120" height="30" as="geometry">
            <mxRectangle width="120" height="30" as="alternateBounds" />
          </mxGeometry>
        </mxCell>
        <mxCell id="wo0TMsI5rG442XAfvcZ0-39" value="04" style="shape=partialRectangle;connectable=0;fillColor=none;top=0;left=0;bottom=0;right=0;align=center;spacingLeft=6;fontStyle=5;overflow=hidden;html=1;whiteSpace=wrap;" parent="z5Srj0_W4YSiYPK0m8sV-76" vertex="1">
          <mxGeometry x="540" width="120" height="30" as="geometry">
            <mxRectangle width="120" height="30" as="alternateBounds" />
          </mxGeometry>
        </mxCell>
        <mxCell id="z5Srj0_W4YSiYPK0m8sV-79" value="" style="shape=tableRow;horizontal=0;startSize=0;swimlaneHead=0;swimlaneBody=0;fillColor=none;collapsible=0;dropTarget=0;points=[[0,0.5],[1,0.5]];portConstraint=eastwest;top=0;left=0;right=0;bottom=1;html=1;" parent="z5Srj0_W4YSiYPK0m8sV-75" vertex="1">
          <mxGeometry y="60" width="660" height="30" as="geometry" />
        </mxCell>
        <mxCell id="z5Srj0_W4YSiYPK0m8sV-80" value="FK" style="shape=partialRectangle;connectable=0;fillColor=none;top=0;left=0;bottom=0;right=0;fontStyle=1;overflow=hidden;html=1;whiteSpace=wrap;align=center;fontSize=14;" parent="z5Srj0_W4YSiYPK0m8sV-79" vertex="1">
          <mxGeometry width="60" height="30" as="geometry">
            <mxRectangle width="60" height="30" as="alternateBounds" />
          </mxGeometry>
        </mxCell>
        <mxCell id="z5Srj0_W4YSiYPK0m8sV-81" value="ID_jogador" style="shape=partialRectangle;connectable=0;fillColor=none;top=0;left=0;bottom=0;right=0;align=center;spacingLeft=6;fontStyle=5;overflow=hidden;html=1;whiteSpace=wrap;fontSize=14;" parent="z5Srj0_W4YSiYPK0m8sV-79" vertex="1">
          <mxGeometry x="60" width="120" height="30" as="geometry">
            <mxRectangle width="120" height="30" as="alternateBounds" />
          </mxGeometry>
        </mxCell>
        <mxCell id="wo0TMsI5rG442XAfvcZ0-31" value="02" style="shape=partialRectangle;connectable=0;fillColor=none;top=0;left=0;bottom=0;right=0;align=center;spacingLeft=6;fontStyle=5;overflow=hidden;html=1;whiteSpace=wrap;fontSize=14;" parent="z5Srj0_W4YSiYPK0m8sV-79" vertex="1">
          <mxGeometry x="180" width="120" height="30" as="geometry">
            <mxRectangle width="120" height="30" as="alternateBounds" />
          </mxGeometry>
        </mxCell>
        <mxCell id="wo0TMsI5rG442XAfvcZ0-34" value="03" style="shape=partialRectangle;connectable=0;fillColor=none;top=0;left=0;bottom=0;right=0;align=center;spacingLeft=6;fontStyle=5;overflow=hidden;html=1;whiteSpace=wrap;fontSize=14;" parent="z5Srj0_W4YSiYPK0m8sV-79" vertex="1">
          <mxGeometry x="300" width="120" height="30" as="geometry">
            <mxRectangle width="120" height="30" as="alternateBounds" />
          </mxGeometry>
        </mxCell>
        <mxCell id="wo0TMsI5rG442XAfvcZ0-37" value="04" style="shape=partialRectangle;connectable=0;fillColor=none;top=0;left=0;bottom=0;right=0;align=center;spacingLeft=6;fontStyle=5;overflow=hidden;html=1;whiteSpace=wrap;fontSize=14;" parent="z5Srj0_W4YSiYPK0m8sV-79" vertex="1">
          <mxGeometry x="420" width="120" height="30" as="geometry">
            <mxRectangle width="120" height="30" as="alternateBounds" />
          </mxGeometry>
        </mxCell>
        <mxCell id="wo0TMsI5rG442XAfvcZ0-40" value="01" style="shape=partialRectangle;connectable=0;fillColor=none;top=0;left=0;bottom=0;right=0;align=center;spacingLeft=6;fontStyle=5;overflow=hidden;html=1;whiteSpace=wrap;" parent="z5Srj0_W4YSiYPK0m8sV-79" vertex="1">
          <mxGeometry x="540" width="120" height="30" as="geometry">
            <mxRectangle width="120" height="30" as="alternateBounds" />
          </mxGeometry>
        </mxCell>
        <mxCell id="z5Srj0_W4YSiYPK0m8sV-82" value="" style="shape=tableRow;horizontal=0;startSize=0;swimlaneHead=0;swimlaneBody=0;fillColor=none;collapsible=0;dropTarget=0;points=[[0,0.5],[1,0.5]];portConstraint=eastwest;top=0;left=0;right=0;bottom=0;html=1;" parent="z5Srj0_W4YSiYPK0m8sV-75" vertex="1">
          <mxGeometry y="90" width="660" height="30" as="geometry" />
        </mxCell>
        <mxCell id="z5Srj0_W4YSiYPK0m8sV-83" value="" style="shape=partialRectangle;connectable=0;fillColor=none;top=0;left=0;bottom=0;right=0;editable=1;overflow=hidden;html=1;whiteSpace=wrap;align=center;fontSize=14;" parent="z5Srj0_W4YSiYPK0m8sV-82" vertex="1">
          <mxGeometry width="60" height="30" as="geometry">
            <mxRectangle width="60" height="30" as="alternateBounds" />
          </mxGeometry>
        </mxCell>
        <mxCell id="z5Srj0_W4YSiYPK0m8sV-84" value="&lt;b&gt;Senha&lt;/b&gt;" style="shape=partialRectangle;connectable=0;fillColor=none;top=0;left=0;bottom=0;right=0;align=center;spacingLeft=6;overflow=hidden;html=1;whiteSpace=wrap;fontSize=14;" parent="z5Srj0_W4YSiYPK0m8sV-82" vertex="1">
          <mxGeometry x="60" width="120" height="30" as="geometry">
            <mxRectangle width="120" height="30" as="alternateBounds" />
          </mxGeometry>
        </mxCell>
        <mxCell id="wo0TMsI5rG442XAfvcZ0-32" value="&lt;b&gt;xxxxxx&lt;/b&gt;" style="shape=partialRectangle;connectable=0;fillColor=none;top=0;left=0;bottom=0;right=0;align=center;spacingLeft=6;overflow=hidden;html=1;whiteSpace=wrap;fontSize=14;" parent="z5Srj0_W4YSiYPK0m8sV-82" vertex="1">
          <mxGeometry x="180" width="120" height="30" as="geometry">
            <mxRectangle width="120" height="30" as="alternateBounds" />
          </mxGeometry>
        </mxCell>
        <mxCell id="wo0TMsI5rG442XAfvcZ0-35" value="&lt;b&gt;xxxxxy&lt;/b&gt;" style="shape=partialRectangle;connectable=0;fillColor=none;top=0;left=0;bottom=0;right=0;align=center;spacingLeft=6;overflow=hidden;html=1;whiteSpace=wrap;fontSize=14;" parent="z5Srj0_W4YSiYPK0m8sV-82" vertex="1">
          <mxGeometry x="300" width="120" height="30" as="geometry">
            <mxRectangle width="120" height="30" as="alternateBounds" />
          </mxGeometry>
        </mxCell>
        <mxCell id="wo0TMsI5rG442XAfvcZ0-38" value="xxxxyx" style="shape=partialRectangle;connectable=0;fillColor=none;top=0;left=0;bottom=0;right=0;align=center;spacingLeft=6;overflow=hidden;html=1;whiteSpace=wrap;fontSize=14;fontStyle=1" parent="z5Srj0_W4YSiYPK0m8sV-82" vertex="1">
          <mxGeometry x="420" width="120" height="30" as="geometry">
            <mxRectangle width="120" height="30" as="alternateBounds" />
          </mxGeometry>
        </mxCell>
        <mxCell id="wo0TMsI5rG442XAfvcZ0-41" value="xxxyxx" style="shape=partialRectangle;connectable=0;fillColor=none;top=0;left=0;bottom=0;right=0;align=center;spacingLeft=6;overflow=hidden;html=1;whiteSpace=wrap;fontStyle=1" parent="z5Srj0_W4YSiYPK0m8sV-82" vertex="1">
          <mxGeometry x="540" width="120" height="30" as="geometry">
            <mxRectangle width="120" height="30" as="alternateBounds" />
          </mxGeometry>
        </mxCell>
        <mxCell id="z5Srj0_W4YSiYPK0m8sV-159" value="&lt;font style=&quot;font-size: 14px;&quot;&gt;1:1&lt;/font&gt;" style="text;html=1;align=center;verticalAlign=middle;whiteSpace=wrap;rounded=0;" parent="1" vertex="1">
          <mxGeometry x="-1670" y="323" width="60" height="30" as="geometry" />
        </mxCell>
        <mxCell id="z5Srj0_W4YSiYPK0m8sV-160" value="&lt;font style=&quot;font-size: 14px;&quot;&gt;1:1&lt;/font&gt;" style="text;html=1;align=center;verticalAlign=middle;whiteSpace=wrap;rounded=0;" parent="1" vertex="1">
          <mxGeometry x="-40" y="430" width="60" height="30" as="geometry" />
        </mxCell>
        <mxCell id="z5Srj0_W4YSiYPK0m8sV-161" value="&lt;font style=&quot;font-size: 14px;&quot;&gt;1:1&lt;/font&gt;" style="text;html=1;align=center;verticalAlign=middle;whiteSpace=wrap;rounded=0;" parent="1" vertex="1">
          <mxGeometry x="-1025" y="210" width="60" height="30" as="geometry" />
        </mxCell>
        <mxCell id="z5Srj0_W4YSiYPK0m8sV-162" value="&lt;font style=&quot;font-size: 14px;&quot;&gt;1:N&lt;/font&gt;" style="text;html=1;align=center;verticalAlign=middle;whiteSpace=wrap;rounded=0;" parent="1" vertex="1">
          <mxGeometry x="414" y="660" width="60" height="30" as="geometry" />
        </mxCell>
        <mxCell id="z5Srj0_W4YSiYPK0m8sV-163" value="&lt;font style=&quot;font-size: 14px;&quot;&gt;1:1&lt;/font&gt;" style="text;html=1;align=center;verticalAlign=middle;whiteSpace=wrap;rounded=0;" parent="1" vertex="1">
          <mxGeometry x="-650" y="640" width="60" height="30" as="geometry" />
        </mxCell>
        <mxCell id="z5Srj0_W4YSiYPK0m8sV-164" value="&lt;font style=&quot;font-size: 14px;&quot;&gt;N:N&lt;/font&gt;" style="text;html=1;align=center;verticalAlign=middle;whiteSpace=wrap;rounded=0;" parent="1" vertex="1">
          <mxGeometry x="-1670" y="615" width="60" height="30" as="geometry" />
        </mxCell>
        <mxCell id="z5Srj0_W4YSiYPK0m8sV-166" value="&lt;font style=&quot;font-size: 14px;&quot;&gt;N:N&lt;/font&gt;" style="text;html=1;align=center;verticalAlign=middle;whiteSpace=wrap;rounded=0;" parent="1" vertex="1">
          <mxGeometry x="-2110" y="440" width="60" height="30" as="geometry" />
        </mxCell>
        <mxCell id="z5Srj0_W4YSiYPK0m8sV-167" value="&lt;font style=&quot;font-size: 14px;&quot;&gt;1:N&lt;/font&gt;" style="text;html=1;align=center;verticalAlign=middle;whiteSpace=wrap;rounded=0;" parent="1" vertex="1">
          <mxGeometry x="-2120" y="595" width="60" height="30" as="geometry" />
        </mxCell>
        <mxCell id="z5Srj0_W4YSiYPK0m8sV-168" value="&lt;font style=&quot;font-size: 14px;&quot;&gt;1:N&lt;/font&gt;" style="text;html=1;align=center;verticalAlign=middle;whiteSpace=wrap;rounded=0;" parent="1" vertex="1">
          <mxGeometry x="-2670" y="750" width="60" height="30" as="geometry" />
        </mxCell>
        <mxCell id="wo0TMsI5rG442XAfvcZ0-86" style="edgeStyle=orthogonalEdgeStyle;rounded=0;orthogonalLoop=1;jettySize=auto;html=1;" parent="1" source="z5Srj0_W4YSiYPK0m8sV-170" edge="1">
          <mxGeometry relative="1" as="geometry">
            <mxPoint x="-1590" y="710" as="targetPoint" />
          </mxGeometry>
        </mxCell>
        <mxCell id="wo0TMsI5rG442XAfvcZ0-108" style="edgeStyle=orthogonalEdgeStyle;rounded=0;orthogonalLoop=1;jettySize=auto;html=1;" parent="1" source="z5Srj0_W4YSiYPK0m8sV-170" edge="1">
          <mxGeometry relative="1" as="geometry">
            <mxPoint x="-2210" y="480" as="targetPoint" />
          </mxGeometry>
        </mxCell>
        <mxCell id="wo0TMsI5rG442XAfvcZ0-120" style="edgeStyle=orthogonalEdgeStyle;rounded=0;orthogonalLoop=1;jettySize=auto;html=1;" parent="1" source="z5Srj0_W4YSiYPK0m8sV-170" edge="1">
          <mxGeometry relative="1" as="geometry">
            <mxPoint x="-2140" y="800" as="targetPoint" />
            <Array as="points">
              <mxPoint x="-2040" y="480" />
              <mxPoint x="-2040" y="800" />
            </Array>
          </mxGeometry>
        </mxCell>
        <mxCell id="z5Srj0_W4YSiYPK0m8sV-170" value="Jogador" style="shape=table;startSize=30;container=1;collapsible=1;childLayout=tableLayout;fixedRows=1;rowLines=0;fontStyle=1;align=center;resizeLast=1;html=1;fontSize=14;" parent="1" vertex="1">
          <mxGeometry x="-1980" y="405" width="780" height="150" as="geometry" />
        </mxCell>
        <mxCell id="z5Srj0_W4YSiYPK0m8sV-171" value="" style="shape=tableRow;horizontal=0;startSize=0;swimlaneHead=0;swimlaneBody=0;fillColor=none;collapsible=0;dropTarget=0;points=[[0,0.5],[1,0.5]];portConstraint=eastwest;top=0;left=0;right=0;bottom=1;fontStyle=1;fontSize=14;align=center;" parent="z5Srj0_W4YSiYPK0m8sV-170" vertex="1">
          <mxGeometry y="30" width="780" height="30" as="geometry" />
        </mxCell>
        <mxCell id="z5Srj0_W4YSiYPK0m8sV-172" value="PK" style="shape=partialRectangle;connectable=0;fillColor=none;top=0;left=0;bottom=0;right=0;fontStyle=1;overflow=hidden;whiteSpace=wrap;html=1;fontSize=14;align=center;" parent="z5Srj0_W4YSiYPK0m8sV-171" vertex="1">
          <mxGeometry width="30" height="30" as="geometry">
            <mxRectangle width="30" height="30" as="alternateBounds" />
          </mxGeometry>
        </mxCell>
        <mxCell id="z5Srj0_W4YSiYPK0m8sV-173" value="ID_jogador" style="shape=partialRectangle;connectable=0;fillColor=none;top=0;left=0;bottom=0;right=0;align=center;spacingLeft=6;fontStyle=5;overflow=hidden;whiteSpace=wrap;html=1;fontSize=14;" parent="z5Srj0_W4YSiYPK0m8sV-171" vertex="1">
          <mxGeometry x="30" width="150" height="30" as="geometry">
            <mxRectangle width="150" height="30" as="alternateBounds" />
          </mxGeometry>
        </mxCell>
        <mxCell id="wo0TMsI5rG442XAfvcZ0-45" value="01" style="shape=partialRectangle;connectable=0;fillColor=none;top=0;left=0;bottom=0;right=0;align=center;spacingLeft=6;fontStyle=5;overflow=hidden;whiteSpace=wrap;html=1;fontSize=14;" parent="z5Srj0_W4YSiYPK0m8sV-171" vertex="1">
          <mxGeometry x="180" width="150" height="30" as="geometry">
            <mxRectangle width="150" height="30" as="alternateBounds" />
          </mxGeometry>
        </mxCell>
        <mxCell id="wo0TMsI5rG442XAfvcZ0-49" value="02" style="shape=partialRectangle;connectable=0;fillColor=none;top=0;left=0;bottom=0;right=0;align=center;spacingLeft=6;fontStyle=5;overflow=hidden;whiteSpace=wrap;html=1;fontSize=14;" parent="z5Srj0_W4YSiYPK0m8sV-171" vertex="1">
          <mxGeometry x="330" width="150" height="30" as="geometry">
            <mxRectangle width="150" height="30" as="alternateBounds" />
          </mxGeometry>
        </mxCell>
        <mxCell id="wo0TMsI5rG442XAfvcZ0-53" value="03" style="shape=partialRectangle;connectable=0;fillColor=none;top=0;left=0;bottom=0;right=0;align=center;spacingLeft=6;fontStyle=5;overflow=hidden;whiteSpace=wrap;html=1;fontSize=14;" parent="z5Srj0_W4YSiYPK0m8sV-171" vertex="1">
          <mxGeometry x="480" width="150" height="30" as="geometry">
            <mxRectangle width="150" height="30" as="alternateBounds" />
          </mxGeometry>
        </mxCell>
        <mxCell id="wo0TMsI5rG442XAfvcZ0-57" value="04" style="shape=partialRectangle;connectable=0;fillColor=none;top=0;left=0;bottom=0;right=0;align=center;spacingLeft=6;fontStyle=5;overflow=hidden;whiteSpace=wrap;html=1;fontSize=14;" parent="z5Srj0_W4YSiYPK0m8sV-171" vertex="1">
          <mxGeometry x="630" width="150" height="30" as="geometry">
            <mxRectangle width="150" height="30" as="alternateBounds" />
          </mxGeometry>
        </mxCell>
        <mxCell id="z5Srj0_W4YSiYPK0m8sV-174" value="" style="shape=tableRow;horizontal=0;startSize=0;swimlaneHead=0;swimlaneBody=0;fillColor=none;collapsible=0;dropTarget=0;points=[[0,0.5],[1,0.5]];portConstraint=eastwest;top=0;left=0;right=0;bottom=0;fontStyle=1;fontSize=14;align=center;" parent="z5Srj0_W4YSiYPK0m8sV-170" vertex="1">
          <mxGeometry y="60" width="780" height="30" as="geometry" />
        </mxCell>
        <mxCell id="z5Srj0_W4YSiYPK0m8sV-175" value="" style="shape=partialRectangle;connectable=0;fillColor=none;top=0;left=0;bottom=0;right=0;editable=1;overflow=hidden;whiteSpace=wrap;html=1;fontStyle=1;fontSize=14;align=center;" parent="z5Srj0_W4YSiYPK0m8sV-174" vertex="1">
          <mxGeometry width="30" height="30" as="geometry">
            <mxRectangle width="30" height="30" as="alternateBounds" />
          </mxGeometry>
        </mxCell>
        <mxCell id="z5Srj0_W4YSiYPK0m8sV-176" value="Nome" style="shape=partialRectangle;connectable=0;fillColor=none;top=0;left=0;bottom=0;right=0;align=center;spacingLeft=6;overflow=hidden;whiteSpace=wrap;html=1;fontStyle=1;fontSize=14;" parent="z5Srj0_W4YSiYPK0m8sV-174" vertex="1">
          <mxGeometry x="30" width="150" height="30" as="geometry">
            <mxRectangle width="150" height="30" as="alternateBounds" />
          </mxGeometry>
        </mxCell>
        <mxCell id="wo0TMsI5rG442XAfvcZ0-46" value="Marcos" style="shape=partialRectangle;connectable=0;fillColor=none;top=0;left=0;bottom=0;right=0;align=center;spacingLeft=6;overflow=hidden;whiteSpace=wrap;html=1;fontStyle=1;fontSize=14;" parent="z5Srj0_W4YSiYPK0m8sV-174" vertex="1">
          <mxGeometry x="180" width="150" height="30" as="geometry">
            <mxRectangle width="150" height="30" as="alternateBounds" />
          </mxGeometry>
        </mxCell>
        <mxCell id="wo0TMsI5rG442XAfvcZ0-50" value="Mateus" style="shape=partialRectangle;connectable=0;fillColor=none;top=0;left=0;bottom=0;right=0;align=center;spacingLeft=6;overflow=hidden;whiteSpace=wrap;html=1;fontStyle=1;fontSize=14;" parent="z5Srj0_W4YSiYPK0m8sV-174" vertex="1">
          <mxGeometry x="330" width="150" height="30" as="geometry">
            <mxRectangle width="150" height="30" as="alternateBounds" />
          </mxGeometry>
        </mxCell>
        <mxCell id="wo0TMsI5rG442XAfvcZ0-54" value="Lucas" style="shape=partialRectangle;connectable=0;fillColor=none;top=0;left=0;bottom=0;right=0;align=center;spacingLeft=6;overflow=hidden;whiteSpace=wrap;html=1;fontStyle=1;fontSize=14;" parent="z5Srj0_W4YSiYPK0m8sV-174" vertex="1">
          <mxGeometry x="480" width="150" height="30" as="geometry">
            <mxRectangle width="150" height="30" as="alternateBounds" />
          </mxGeometry>
        </mxCell>
        <mxCell id="wo0TMsI5rG442XAfvcZ0-58" value="JoÃ£o" style="shape=partialRectangle;connectable=0;fillColor=none;top=0;left=0;bottom=0;right=0;align=center;spacingLeft=6;overflow=hidden;whiteSpace=wrap;html=1;fontStyle=1;fontSize=14;" parent="z5Srj0_W4YSiYPK0m8sV-174" vertex="1">
          <mxGeometry x="630" width="150" height="30" as="geometry">
            <mxRectangle width="150" height="30" as="alternateBounds" />
          </mxGeometry>
        </mxCell>
        <mxCell id="z5Srj0_W4YSiYPK0m8sV-177" value="" style="shape=tableRow;horizontal=0;startSize=0;swimlaneHead=0;swimlaneBody=0;fillColor=none;collapsible=0;dropTarget=0;points=[[0,0.5],[1,0.5]];portConstraint=eastwest;top=0;left=0;right=0;bottom=0;fontStyle=1;fontSize=14;align=center;" parent="z5Srj0_W4YSiYPK0m8sV-170" vertex="1">
          <mxGeometry y="90" width="780" height="30" as="geometry" />
        </mxCell>
        <mxCell id="z5Srj0_W4YSiYPK0m8sV-178" value="" style="shape=partialRectangle;connectable=0;fillColor=none;top=0;left=0;bottom=0;right=0;editable=1;overflow=hidden;whiteSpace=wrap;html=1;fontStyle=1;fontSize=14;align=center;" parent="z5Srj0_W4YSiYPK0m8sV-177" vertex="1">
          <mxGeometry width="30" height="30" as="geometry">
            <mxRectangle width="30" height="30" as="alternateBounds" />
          </mxGeometry>
        </mxCell>
        <mxCell id="z5Srj0_W4YSiYPK0m8sV-179" value="Data_nacimento" style="shape=partialRectangle;connectable=0;fillColor=none;top=0;left=0;bottom=0;right=0;align=center;spacingLeft=6;overflow=hidden;whiteSpace=wrap;html=1;fontStyle=1;fontSize=14;" parent="z5Srj0_W4YSiYPK0m8sV-177" vertex="1">
          <mxGeometry x="30" width="150" height="30" as="geometry">
            <mxRectangle width="150" height="30" as="alternateBounds" />
          </mxGeometry>
        </mxCell>
        <mxCell id="wo0TMsI5rG442XAfvcZ0-47" value="2007-07-02" style="shape=partialRectangle;connectable=0;fillColor=none;top=0;left=0;bottom=0;right=0;align=center;spacingLeft=6;overflow=hidden;whiteSpace=wrap;html=1;fontStyle=1;fontSize=14;" parent="z5Srj0_W4YSiYPK0m8sV-177" vertex="1">
          <mxGeometry x="180" width="150" height="30" as="geometry">
            <mxRectangle width="150" height="30" as="alternateBounds" />
          </mxGeometry>
        </mxCell>
        <mxCell id="wo0TMsI5rG442XAfvcZ0-51" value="2005-03-08" style="shape=partialRectangle;connectable=0;fillColor=none;top=0;left=0;bottom=0;right=0;align=center;spacingLeft=6;overflow=hidden;whiteSpace=wrap;html=1;fontStyle=1;fontSize=14;" parent="z5Srj0_W4YSiYPK0m8sV-177" vertex="1">
          <mxGeometry x="330" width="150" height="30" as="geometry">
            <mxRectangle width="150" height="30" as="alternateBounds" />
          </mxGeometry>
        </mxCell>
        <mxCell id="wo0TMsI5rG442XAfvcZ0-55" value="2006-08-03" style="shape=partialRectangle;connectable=0;fillColor=none;top=0;left=0;bottom=0;right=0;align=center;spacingLeft=6;overflow=hidden;whiteSpace=wrap;html=1;fontStyle=1;fontSize=14;" parent="z5Srj0_W4YSiYPK0m8sV-177" vertex="1">
          <mxGeometry x="480" width="150" height="30" as="geometry">
            <mxRectangle width="150" height="30" as="alternateBounds" />
          </mxGeometry>
        </mxCell>
        <mxCell id="wo0TMsI5rG442XAfvcZ0-59" value="2003-04-09" style="shape=partialRectangle;connectable=0;fillColor=none;top=0;left=0;bottom=0;right=0;align=center;spacingLeft=6;overflow=hidden;whiteSpace=wrap;html=1;fontStyle=1;fontSize=14;" parent="z5Srj0_W4YSiYPK0m8sV-177" vertex="1">
          <mxGeometry x="630" width="150" height="30" as="geometry">
            <mxRectangle width="150" height="30" as="alternateBounds" />
          </mxGeometry>
        </mxCell>
        <mxCell id="z5Srj0_W4YSiYPK0m8sV-180" value="" style="shape=tableRow;horizontal=0;startSize=0;swimlaneHead=0;swimlaneBody=0;fillColor=none;collapsible=0;dropTarget=0;points=[[0,0.5],[1,0.5]];portConstraint=eastwest;top=0;left=0;right=0;bottom=0;fontStyle=1;fontSize=14;align=center;" parent="z5Srj0_W4YSiYPK0m8sV-170" vertex="1">
          <mxGeometry y="120" width="780" height="30" as="geometry" />
        </mxCell>
        <mxCell id="z5Srj0_W4YSiYPK0m8sV-181" value="" style="shape=partialRectangle;connectable=0;fillColor=none;top=0;left=0;bottom=0;right=0;editable=1;overflow=hidden;whiteSpace=wrap;html=1;fontStyle=1;fontSize=14;align=center;" parent="z5Srj0_W4YSiYPK0m8sV-180" vertex="1">
          <mxGeometry width="30" height="30" as="geometry">
            <mxRectangle width="30" height="30" as="alternateBounds" />
          </mxGeometry>
        </mxCell>
        <mxCell id="z5Srj0_W4YSiYPK0m8sV-182" value="Email" style="shape=partialRectangle;connectable=0;fillColor=none;top=0;left=0;bottom=0;right=0;align=center;spacingLeft=6;overflow=hidden;whiteSpace=wrap;html=1;fontStyle=1;fontSize=14;" parent="z5Srj0_W4YSiYPK0m8sV-180" vertex="1">
          <mxGeometry x="30" width="150" height="30" as="geometry">
            <mxRectangle width="150" height="30" as="alternateBounds" />
          </mxGeometry>
        </mxCell>
        <mxCell id="wo0TMsI5rG442XAfvcZ0-48" value="mar@gmail.com" style="shape=partialRectangle;connectable=0;fillColor=none;top=0;left=0;bottom=0;right=0;align=center;spacingLeft=6;overflow=hidden;whiteSpace=wrap;html=1;fontStyle=1;fontSize=14;" parent="z5Srj0_W4YSiYPK0m8sV-180" vertex="1">
          <mxGeometry x="180" width="150" height="30" as="geometry">
            <mxRectangle width="150" height="30" as="alternateBounds" />
          </mxGeometry>
        </mxCell>
        <mxCell id="wo0TMsI5rG442XAfvcZ0-52" value="mat@gmail.com" style="shape=partialRectangle;connectable=0;fillColor=none;top=0;left=0;bottom=0;right=0;align=center;spacingLeft=6;overflow=hidden;whiteSpace=wrap;html=1;fontStyle=1;fontSize=14;" parent="z5Srj0_W4YSiYPK0m8sV-180" vertex="1">
          <mxGeometry x="330" width="150" height="30" as="geometry">
            <mxRectangle width="150" height="30" as="alternateBounds" />
          </mxGeometry>
        </mxCell>
        <mxCell id="wo0TMsI5rG442XAfvcZ0-56" value="luc@gmail.com" style="shape=partialRectangle;connectable=0;fillColor=none;top=0;left=0;bottom=0;right=0;align=center;spacingLeft=6;overflow=hidden;whiteSpace=wrap;html=1;fontStyle=1;fontSize=14;" parent="z5Srj0_W4YSiYPK0m8sV-180" vertex="1">
          <mxGeometry x="480" width="150" height="30" as="geometry">
            <mxRectangle width="150" height="30" as="alternateBounds" />
          </mxGeometry>
        </mxCell>
        <mxCell id="wo0TMsI5rG442XAfvcZ0-60" value="joao@gmail.com" style="shape=partialRectangle;connectable=0;fillColor=none;top=0;left=0;bottom=0;right=0;align=center;spacingLeft=6;overflow=hidden;whiteSpace=wrap;html=1;fontStyle=1;fontSize=14;" parent="z5Srj0_W4YSiYPK0m8sV-180" vertex="1">
          <mxGeometry x="630" width="150" height="30" as="geometry">
            <mxRectangle width="150" height="30" as="alternateBounds" />
          </mxGeometry>
        </mxCell>
        <mxCell id="z5Srj0_W4YSiYPK0m8sV-183" value="MissÃ£o" style="shape=table;startSize=30;container=1;collapsible=1;childLayout=tableLayout;fixedRows=1;rowLines=0;fontStyle=1;align=center;resizeLast=1;html=1;whiteSpace=wrap;fontSize=14;" parent="1" vertex="1">
          <mxGeometry x="-1920" y="720" width="660" height="205" as="geometry" />
        </mxCell>
        <mxCell id="z5Srj0_W4YSiYPK0m8sV-184" value="" style="shape=tableRow;horizontal=0;startSize=0;swimlaneHead=0;swimlaneBody=0;fillColor=none;collapsible=0;dropTarget=0;points=[[0,0.5],[1,0.5]];portConstraint=eastwest;top=0;left=0;right=0;bottom=0;html=1;fontStyle=1;fontSize=14;align=center;" parent="z5Srj0_W4YSiYPK0m8sV-183" vertex="1">
          <mxGeometry y="30" width="660" height="30" as="geometry" />
        </mxCell>
        <mxCell id="z5Srj0_W4YSiYPK0m8sV-185" value="PK" style="shape=partialRectangle;connectable=0;fillColor=none;top=0;left=0;bottom=0;right=0;fontStyle=1;overflow=hidden;html=1;whiteSpace=wrap;fontSize=14;align=center;" parent="z5Srj0_W4YSiYPK0m8sV-184" vertex="1">
          <mxGeometry width="60" height="30" as="geometry">
            <mxRectangle width="60" height="30" as="alternateBounds" />
          </mxGeometry>
        </mxCell>
        <mxCell id="z5Srj0_W4YSiYPK0m8sV-186" value="ID_missÃ£o" style="shape=partialRectangle;connectable=0;fillColor=none;top=0;left=0;bottom=0;right=0;align=center;spacingLeft=6;fontStyle=5;overflow=hidden;html=1;whiteSpace=wrap;fontSize=14;" parent="z5Srj0_W4YSiYPK0m8sV-184" vertex="1">
          <mxGeometry x="60" width="120" height="30" as="geometry">
            <mxRectangle width="120" height="30" as="alternateBounds" />
          </mxGeometry>
        </mxCell>
        <mxCell id="wo0TMsI5rG442XAfvcZ0-66" value="01" style="shape=partialRectangle;connectable=0;fillColor=none;top=0;left=0;bottom=0;right=0;align=center;spacingLeft=6;fontStyle=5;overflow=hidden;html=1;whiteSpace=wrap;fontSize=14;" parent="z5Srj0_W4YSiYPK0m8sV-184" vertex="1">
          <mxGeometry x="180" width="120" height="30" as="geometry">
            <mxRectangle width="120" height="30" as="alternateBounds" />
          </mxGeometry>
        </mxCell>
        <mxCell id="wo0TMsI5rG442XAfvcZ0-71" value="02" style="shape=partialRectangle;connectable=0;fillColor=none;top=0;left=0;bottom=0;right=0;align=center;spacingLeft=6;fontStyle=5;overflow=hidden;html=1;whiteSpace=wrap;fontSize=14;" parent="z5Srj0_W4YSiYPK0m8sV-184" vertex="1">
          <mxGeometry x="300" width="120" height="30" as="geometry">
            <mxRectangle width="120" height="30" as="alternateBounds" />
          </mxGeometry>
        </mxCell>
        <mxCell id="wo0TMsI5rG442XAfvcZ0-76" value="03" style="shape=partialRectangle;connectable=0;fillColor=none;top=0;left=0;bottom=0;right=0;align=center;spacingLeft=6;fontStyle=5;overflow=hidden;html=1;whiteSpace=wrap;fontSize=14;" parent="z5Srj0_W4YSiYPK0m8sV-184" vertex="1">
          <mxGeometry x="420" width="120" height="30" as="geometry">
            <mxRectangle width="120" height="30" as="alternateBounds" />
          </mxGeometry>
        </mxCell>
        <mxCell id="wo0TMsI5rG442XAfvcZ0-81" value="04" style="shape=partialRectangle;connectable=0;fillColor=none;top=0;left=0;bottom=0;right=0;align=center;spacingLeft=6;fontStyle=5;overflow=hidden;html=1;whiteSpace=wrap;fontSize=14;" parent="z5Srj0_W4YSiYPK0m8sV-184" vertex="1">
          <mxGeometry x="540" width="120" height="30" as="geometry">
            <mxRectangle width="120" height="30" as="alternateBounds" />
          </mxGeometry>
        </mxCell>
        <mxCell id="z5Srj0_W4YSiYPK0m8sV-187" value="" style="shape=tableRow;horizontal=0;startSize=0;swimlaneHead=0;swimlaneBody=0;fillColor=none;collapsible=0;dropTarget=0;points=[[0,0.5],[1,0.5]];portConstraint=eastwest;top=0;left=0;right=0;bottom=1;html=1;fontStyle=1;fontSize=14;align=center;" parent="z5Srj0_W4YSiYPK0m8sV-183" vertex="1">
          <mxGeometry y="60" width="660" height="30" as="geometry" />
        </mxCell>
        <mxCell id="z5Srj0_W4YSiYPK0m8sV-188" value="FK" style="shape=partialRectangle;connectable=0;fillColor=none;top=0;left=0;bottom=0;right=0;fontStyle=1;overflow=hidden;html=1;whiteSpace=wrap;fontSize=14;align=center;" parent="z5Srj0_W4YSiYPK0m8sV-187" vertex="1">
          <mxGeometry width="60" height="30" as="geometry">
            <mxRectangle width="60" height="30" as="alternateBounds" />
          </mxGeometry>
        </mxCell>
        <mxCell id="z5Srj0_W4YSiYPK0m8sV-189" value="ID_personagem" style="shape=partialRectangle;connectable=0;fillColor=none;top=0;left=0;bottom=0;right=0;align=center;spacingLeft=6;fontStyle=5;overflow=hidden;html=1;whiteSpace=wrap;fontSize=14;" parent="z5Srj0_W4YSiYPK0m8sV-187" vertex="1">
          <mxGeometry x="60" width="120" height="30" as="geometry">
            <mxRectangle width="120" height="30" as="alternateBounds" />
          </mxGeometry>
        </mxCell>
        <mxCell id="wo0TMsI5rG442XAfvcZ0-67" value="01" style="shape=partialRectangle;connectable=0;fillColor=none;top=0;left=0;bottom=0;right=0;align=center;spacingLeft=6;fontStyle=5;overflow=hidden;html=1;whiteSpace=wrap;fontSize=14;" parent="z5Srj0_W4YSiYPK0m8sV-187" vertex="1">
          <mxGeometry x="180" width="120" height="30" as="geometry">
            <mxRectangle width="120" height="30" as="alternateBounds" />
          </mxGeometry>
        </mxCell>
        <mxCell id="wo0TMsI5rG442XAfvcZ0-72" value="02" style="shape=partialRectangle;connectable=0;fillColor=none;top=0;left=0;bottom=0;right=0;align=center;spacingLeft=6;fontStyle=5;overflow=hidden;html=1;whiteSpace=wrap;fontSize=14;" parent="z5Srj0_W4YSiYPK0m8sV-187" vertex="1">
          <mxGeometry x="300" width="120" height="30" as="geometry">
            <mxRectangle width="120" height="30" as="alternateBounds" />
          </mxGeometry>
        </mxCell>
        <mxCell id="wo0TMsI5rG442XAfvcZ0-77" value="03" style="shape=partialRectangle;connectable=0;fillColor=none;top=0;left=0;bottom=0;right=0;align=center;spacingLeft=6;fontStyle=5;overflow=hidden;html=1;whiteSpace=wrap;fontSize=14;" parent="z5Srj0_W4YSiYPK0m8sV-187" vertex="1">
          <mxGeometry x="420" width="120" height="30" as="geometry">
            <mxRectangle width="120" height="30" as="alternateBounds" />
          </mxGeometry>
        </mxCell>
        <mxCell id="wo0TMsI5rG442XAfvcZ0-82" value="04" style="shape=partialRectangle;connectable=0;fillColor=none;top=0;left=0;bottom=0;right=0;align=center;spacingLeft=6;fontStyle=5;overflow=hidden;html=1;whiteSpace=wrap;fontSize=14;" parent="z5Srj0_W4YSiYPK0m8sV-187" vertex="1">
          <mxGeometry x="540" width="120" height="30" as="geometry">
            <mxRectangle width="120" height="30" as="alternateBounds" />
          </mxGeometry>
        </mxCell>
        <mxCell id="z5Srj0_W4YSiYPK0m8sV-190" value="" style="shape=tableRow;horizontal=0;startSize=0;swimlaneHead=0;swimlaneBody=0;fillColor=none;collapsible=0;dropTarget=0;points=[[0,0.5],[1,0.5]];portConstraint=eastwest;top=0;left=0;right=0;bottom=0;html=1;fontStyle=1;fontSize=14;align=center;" parent="z5Srj0_W4YSiYPK0m8sV-183" vertex="1">
          <mxGeometry y="90" width="660" height="45" as="geometry" />
        </mxCell>
        <mxCell id="z5Srj0_W4YSiYPK0m8sV-191" value="" style="shape=partialRectangle;connectable=0;fillColor=none;top=0;left=0;bottom=0;right=0;editable=1;overflow=hidden;html=1;whiteSpace=wrap;fontStyle=1;fontSize=14;align=center;" parent="z5Srj0_W4YSiYPK0m8sV-190" vertex="1">
          <mxGeometry width="60" height="45" as="geometry">
            <mxRectangle width="60" height="45" as="alternateBounds" />
          </mxGeometry>
        </mxCell>
        <mxCell id="z5Srj0_W4YSiYPK0m8sV-192" value="Nome" style="shape=partialRectangle;connectable=0;fillColor=none;top=0;left=0;bottom=0;right=0;align=center;spacingLeft=6;overflow=hidden;html=1;whiteSpace=wrap;fontStyle=1;fontSize=14;" parent="z5Srj0_W4YSiYPK0m8sV-190" vertex="1">
          <mxGeometry x="60" width="120" height="45" as="geometry">
            <mxRectangle width="120" height="45" as="alternateBounds" />
          </mxGeometry>
        </mxCell>
        <mxCell id="wo0TMsI5rG442XAfvcZ0-68" value="Derrote Javali Rei" style="shape=partialRectangle;connectable=0;fillColor=none;top=0;left=0;bottom=0;right=0;align=center;spacingLeft=6;overflow=hidden;html=1;whiteSpace=wrap;fontStyle=1;fontSize=14;" parent="z5Srj0_W4YSiYPK0m8sV-190" vertex="1">
          <mxGeometry x="180" width="120" height="45" as="geometry">
            <mxRectangle width="120" height="45" as="alternateBounds" />
          </mxGeometry>
        </mxCell>
        <mxCell id="wo0TMsI5rG442XAfvcZ0-73" value="Saquear Dungeon" style="shape=partialRectangle;connectable=0;fillColor=none;top=0;left=0;bottom=0;right=0;align=center;spacingLeft=6;overflow=hidden;html=1;whiteSpace=wrap;fontStyle=1;fontSize=14;" parent="z5Srj0_W4YSiYPK0m8sV-190" vertex="1">
          <mxGeometry x="300" width="120" height="45" as="geometry">
            <mxRectangle width="120" height="45" as="alternateBounds" />
          </mxGeometry>
        </mxCell>
        <mxCell id="wo0TMsI5rG442XAfvcZ0-78" value="Queimar Vilas Inimigas" style="shape=partialRectangle;connectable=0;fillColor=none;top=0;left=0;bottom=0;right=0;align=center;spacingLeft=6;overflow=hidden;html=1;whiteSpace=wrap;fontStyle=1;fontSize=14;" parent="z5Srj0_W4YSiYPK0m8sV-190" vertex="1">
          <mxGeometry x="420" width="120" height="45" as="geometry">
            <mxRectangle width="120" height="45" as="alternateBounds" />
          </mxGeometry>
        </mxCell>
        <mxCell id="wo0TMsI5rG442XAfvcZ0-83" value="Salvar Princesa" style="shape=partialRectangle;connectable=0;fillColor=none;top=0;left=0;bottom=0;right=0;align=center;spacingLeft=6;overflow=hidden;html=1;whiteSpace=wrap;fontStyle=1;fontSize=14;" parent="z5Srj0_W4YSiYPK0m8sV-190" vertex="1">
          <mxGeometry x="540" width="120" height="45" as="geometry">
            <mxRectangle width="120" height="45" as="alternateBounds" />
          </mxGeometry>
        </mxCell>
        <mxCell id="z5Srj0_W4YSiYPK0m8sV-193" value="" style="shape=tableRow;horizontal=0;startSize=0;swimlaneHead=0;swimlaneBody=0;fillColor=none;collapsible=0;dropTarget=0;points=[[0,0.5],[1,0.5]];portConstraint=eastwest;top=0;left=0;right=0;bottom=0;html=1;fontStyle=1;fontSize=14;align=center;" parent="z5Srj0_W4YSiYPK0m8sV-183" vertex="1">
          <mxGeometry y="135" width="660" height="30" as="geometry" />
        </mxCell>
        <mxCell id="z5Srj0_W4YSiYPK0m8sV-194" value="" style="shape=partialRectangle;connectable=0;fillColor=none;top=0;left=0;bottom=0;right=0;editable=1;overflow=hidden;html=1;whiteSpace=wrap;fontStyle=1;fontSize=14;align=center;" parent="z5Srj0_W4YSiYPK0m8sV-193" vertex="1">
          <mxGeometry width="60" height="30" as="geometry">
            <mxRectangle width="60" height="30" as="alternateBounds" />
          </mxGeometry>
        </mxCell>
        <mxCell id="z5Srj0_W4YSiYPK0m8sV-195" value="NÃ­vel" style="shape=partialRectangle;connectable=0;fillColor=none;top=0;left=0;bottom=0;right=0;align=center;spacingLeft=6;overflow=hidden;html=1;whiteSpace=wrap;fontStyle=1;fontSize=14;" parent="z5Srj0_W4YSiYPK0m8sV-193" vertex="1">
          <mxGeometry x="60" width="120" height="30" as="geometry">
            <mxRectangle width="120" height="30" as="alternateBounds" />
          </mxGeometry>
        </mxCell>
        <mxCell id="wo0TMsI5rG442XAfvcZ0-69" value="10" style="shape=partialRectangle;connectable=0;fillColor=none;top=0;left=0;bottom=0;right=0;align=center;spacingLeft=6;overflow=hidden;html=1;whiteSpace=wrap;fontStyle=1;fontSize=14;" parent="z5Srj0_W4YSiYPK0m8sV-193" vertex="1">
          <mxGeometry x="180" width="120" height="30" as="geometry">
            <mxRectangle width="120" height="30" as="alternateBounds" />
          </mxGeometry>
        </mxCell>
        <mxCell id="wo0TMsI5rG442XAfvcZ0-74" value="50" style="shape=partialRectangle;connectable=0;fillColor=none;top=0;left=0;bottom=0;right=0;align=center;spacingLeft=6;overflow=hidden;html=1;whiteSpace=wrap;fontStyle=1;fontSize=14;" parent="z5Srj0_W4YSiYPK0m8sV-193" vertex="1">
          <mxGeometry x="300" width="120" height="30" as="geometry">
            <mxRectangle width="120" height="30" as="alternateBounds" />
          </mxGeometry>
        </mxCell>
        <mxCell id="wo0TMsI5rG442XAfvcZ0-79" value="50" style="shape=partialRectangle;connectable=0;fillColor=none;top=0;left=0;bottom=0;right=0;align=center;spacingLeft=6;overflow=hidden;html=1;whiteSpace=wrap;fontStyle=1;fontSize=14;" parent="z5Srj0_W4YSiYPK0m8sV-193" vertex="1">
          <mxGeometry x="420" width="120" height="30" as="geometry">
            <mxRectangle width="120" height="30" as="alternateBounds" />
          </mxGeometry>
        </mxCell>
        <mxCell id="wo0TMsI5rG442XAfvcZ0-84" value="62" style="shape=partialRectangle;connectable=0;fillColor=none;top=0;left=0;bottom=0;right=0;align=center;spacingLeft=6;overflow=hidden;html=1;whiteSpace=wrap;fontStyle=1;fontSize=14;" parent="z5Srj0_W4YSiYPK0m8sV-193" vertex="1">
          <mxGeometry x="540" width="120" height="30" as="geometry">
            <mxRectangle width="120" height="30" as="alternateBounds" />
          </mxGeometry>
        </mxCell>
        <mxCell id="z5Srj0_W4YSiYPK0m8sV-202" style="shape=tableRow;horizontal=0;startSize=0;swimlaneHead=0;swimlaneBody=0;fillColor=none;collapsible=0;dropTarget=0;points=[[0,0.5],[1,0.5]];portConstraint=eastwest;top=0;left=0;right=0;bottom=0;html=1;fontStyle=1;fontSize=14;align=center;" parent="z5Srj0_W4YSiYPK0m8sV-183" vertex="1">
          <mxGeometry y="165" width="660" height="40" as="geometry" />
        </mxCell>
        <mxCell id="z5Srj0_W4YSiYPK0m8sV-203" style="shape=partialRectangle;connectable=0;fillColor=none;top=0;left=0;bottom=0;right=0;editable=1;overflow=hidden;html=1;whiteSpace=wrap;fontStyle=1;fontSize=14;align=center;" parent="z5Srj0_W4YSiYPK0m8sV-202" vertex="1">
          <mxGeometry width="60" height="40" as="geometry">
            <mxRectangle width="60" height="40" as="alternateBounds" />
          </mxGeometry>
        </mxCell>
        <mxCell id="z5Srj0_W4YSiYPK0m8sV-204" value="Recompensa" style="shape=partialRectangle;connectable=0;fillColor=none;top=0;left=0;bottom=0;right=0;align=center;spacingLeft=6;overflow=hidden;html=1;whiteSpace=wrap;fontStyle=1;fontSize=14;" parent="z5Srj0_W4YSiYPK0m8sV-202" vertex="1">
          <mxGeometry x="60" width="120" height="40" as="geometry">
            <mxRectangle width="120" height="40" as="alternateBounds" />
          </mxGeometry>
        </mxCell>
        <mxCell id="wo0TMsI5rG442XAfvcZ0-70" value="100/8XP" style="shape=partialRectangle;connectable=0;fillColor=none;top=0;left=0;bottom=0;right=0;align=center;spacingLeft=6;overflow=hidden;html=1;whiteSpace=wrap;fontStyle=1;fontSize=14;" parent="z5Srj0_W4YSiYPK0m8sV-202" vertex="1">
          <mxGeometry x="180" width="120" height="40" as="geometry">
            <mxRectangle width="120" height="40" as="alternateBounds" />
          </mxGeometry>
        </mxCell>
        <mxCell id="wo0TMsI5rG442XAfvcZ0-75" value="Rubi Vermelho/560XP" style="shape=partialRectangle;connectable=0;fillColor=none;top=0;left=0;bottom=0;right=0;align=center;spacingLeft=6;overflow=hidden;html=1;whiteSpace=wrap;fontStyle=1;fontSize=14;" parent="z5Srj0_W4YSiYPK0m8sV-202" vertex="1">
          <mxGeometry x="300" width="120" height="40" as="geometry">
            <mxRectangle width="120" height="40" as="alternateBounds" />
          </mxGeometry>
        </mxCell>
        <mxCell id="wo0TMsI5rG442XAfvcZ0-80" value="Rubi Azul/440XP" style="shape=partialRectangle;connectable=0;fillColor=none;top=0;left=0;bottom=0;right=0;align=center;spacingLeft=6;overflow=hidden;html=1;whiteSpace=wrap;fontStyle=1;fontSize=14;" parent="z5Srj0_W4YSiYPK0m8sV-202" vertex="1">
          <mxGeometry x="420" width="120" height="40" as="geometry">
            <mxRectangle width="120" height="40" as="alternateBounds" />
          </mxGeometry>
        </mxCell>
        <mxCell id="wo0TMsI5rG442XAfvcZ0-85" value="Arco Ãlfico do Rei/710XP" style="shape=partialRectangle;connectable=0;fillColor=none;top=0;left=0;bottom=0;right=0;align=center;spacingLeft=6;overflow=hidden;html=1;whiteSpace=wrap;fontStyle=1;fontSize=14;" parent="z5Srj0_W4YSiYPK0m8sV-202" vertex="1">
          <mxGeometry x="540" width="120" height="40" as="geometry">
            <mxRectangle width="120" height="40" as="alternateBounds" />
          </mxGeometry>
        </mxCell>
        <mxCell id="z5Srj0_W4YSiYPK0m8sV-219" value="Torneio" style="shape=table;startSize=30;container=1;collapsible=1;childLayout=tableLayout;fixedRows=1;rowLines=0;fontStyle=1;align=center;resizeLast=1;html=1;fontSize=14;" parent="1" vertex="1">
          <mxGeometry x="-3000" y="390" width="780" height="180" as="geometry" />
        </mxCell>
        <mxCell id="z5Srj0_W4YSiYPK0m8sV-220" value="" style="shape=tableRow;horizontal=0;startSize=0;swimlaneHead=0;swimlaneBody=0;fillColor=none;collapsible=0;dropTarget=0;points=[[0,0.5],[1,0.5]];portConstraint=eastwest;top=0;left=0;right=0;bottom=1;fontStyle=1;align=center;fontSize=14;" parent="z5Srj0_W4YSiYPK0m8sV-219" vertex="1">
          <mxGeometry y="30" width="780" height="30" as="geometry" />
        </mxCell>
        <mxCell id="z5Srj0_W4YSiYPK0m8sV-221" value="PK" style="shape=partialRectangle;connectable=0;fillColor=none;top=0;left=0;bottom=0;right=0;fontStyle=1;overflow=hidden;whiteSpace=wrap;html=1;align=center;fontSize=14;" parent="z5Srj0_W4YSiYPK0m8sV-220" vertex="1">
          <mxGeometry width="30" height="30" as="geometry">
            <mxRectangle width="30" height="30" as="alternateBounds" />
          </mxGeometry>
        </mxCell>
        <mxCell id="z5Srj0_W4YSiYPK0m8sV-222" value="ID_torneio" style="shape=partialRectangle;connectable=0;fillColor=none;top=0;left=0;bottom=0;right=0;align=center;spacingLeft=6;fontStyle=5;overflow=hidden;whiteSpace=wrap;html=1;fontSize=14;" parent="z5Srj0_W4YSiYPK0m8sV-220" vertex="1">
          <mxGeometry x="30" width="150" height="30" as="geometry">
            <mxRectangle width="150" height="30" as="alternateBounds" />
          </mxGeometry>
        </mxCell>
        <mxCell id="wo0TMsI5rG442XAfvcZ0-88" value="01" style="shape=partialRectangle;connectable=0;fillColor=none;top=0;left=0;bottom=0;right=0;align=center;spacingLeft=6;fontStyle=5;overflow=hidden;whiteSpace=wrap;html=1;fontSize=14;" parent="z5Srj0_W4YSiYPK0m8sV-220" vertex="1">
          <mxGeometry x="180" width="150" height="30" as="geometry">
            <mxRectangle width="150" height="30" as="alternateBounds" />
          </mxGeometry>
        </mxCell>
        <mxCell id="wo0TMsI5rG442XAfvcZ0-93" value="02" style="shape=partialRectangle;connectable=0;fillColor=none;top=0;left=0;bottom=0;right=0;align=center;spacingLeft=6;fontStyle=5;overflow=hidden;whiteSpace=wrap;html=1;fontSize=14;" parent="z5Srj0_W4YSiYPK0m8sV-220" vertex="1">
          <mxGeometry x="330" width="150" height="30" as="geometry">
            <mxRectangle width="150" height="30" as="alternateBounds" />
          </mxGeometry>
        </mxCell>
        <mxCell id="wo0TMsI5rG442XAfvcZ0-98" value="03" style="shape=partialRectangle;connectable=0;fillColor=none;top=0;left=0;bottom=0;right=0;align=center;spacingLeft=6;fontStyle=5;overflow=hidden;whiteSpace=wrap;html=1;fontSize=14;" parent="z5Srj0_W4YSiYPK0m8sV-220" vertex="1">
          <mxGeometry x="480" width="150" height="30" as="geometry">
            <mxRectangle width="150" height="30" as="alternateBounds" />
          </mxGeometry>
        </mxCell>
        <mxCell id="wo0TMsI5rG442XAfvcZ0-103" value="04" style="shape=partialRectangle;connectable=0;fillColor=none;top=0;left=0;bottom=0;right=0;align=center;spacingLeft=6;fontStyle=5;overflow=hidden;whiteSpace=wrap;html=1;fontSize=14;" parent="z5Srj0_W4YSiYPK0m8sV-220" vertex="1">
          <mxGeometry x="630" width="150" height="30" as="geometry">
            <mxRectangle width="150" height="30" as="alternateBounds" />
          </mxGeometry>
        </mxCell>
        <mxCell id="z5Srj0_W4YSiYPK0m8sV-223" value="" style="shape=tableRow;horizontal=0;startSize=0;swimlaneHead=0;swimlaneBody=0;fillColor=none;collapsible=0;dropTarget=0;points=[[0,0.5],[1,0.5]];portConstraint=eastwest;top=0;left=0;right=0;bottom=0;fontStyle=1;align=center;fontSize=14;" parent="z5Srj0_W4YSiYPK0m8sV-219" vertex="1">
          <mxGeometry y="60" width="780" height="30" as="geometry" />
        </mxCell>
        <mxCell id="z5Srj0_W4YSiYPK0m8sV-224" value="" style="shape=partialRectangle;connectable=0;fillColor=none;top=0;left=0;bottom=0;right=0;editable=1;overflow=hidden;whiteSpace=wrap;html=1;fontStyle=1;align=center;fontSize=14;" parent="z5Srj0_W4YSiYPK0m8sV-223" vertex="1">
          <mxGeometry width="30" height="30" as="geometry">
            <mxRectangle width="30" height="30" as="alternateBounds" />
          </mxGeometry>
        </mxCell>
        <mxCell id="z5Srj0_W4YSiYPK0m8sV-225" value="Nome" style="shape=partialRectangle;connectable=0;fillColor=none;top=0;left=0;bottom=0;right=0;align=center;spacingLeft=6;overflow=hidden;whiteSpace=wrap;html=1;fontStyle=1;fontSize=14;" parent="z5Srj0_W4YSiYPK0m8sV-223" vertex="1">
          <mxGeometry x="30" width="150" height="30" as="geometry">
            <mxRectangle width="150" height="30" as="alternateBounds" />
          </mxGeometry>
        </mxCell>
        <mxCell id="wo0TMsI5rG442XAfvcZ0-89" value="Champions League" style="shape=partialRectangle;connectable=0;fillColor=none;top=0;left=0;bottom=0;right=0;align=center;spacingLeft=6;overflow=hidden;whiteSpace=wrap;html=1;fontStyle=1;fontSize=14;" parent="z5Srj0_W4YSiYPK0m8sV-223" vertex="1">
          <mxGeometry x="180" width="150" height="30" as="geometry">
            <mxRectangle width="150" height="30" as="alternateBounds" />
          </mxGeometry>
        </mxCell>
        <mxCell id="wo0TMsI5rG442XAfvcZ0-94" value="Reborned" style="shape=partialRectangle;connectable=0;fillColor=none;top=0;left=0;bottom=0;right=0;align=center;spacingLeft=6;overflow=hidden;whiteSpace=wrap;html=1;fontStyle=1;fontSize=14;" parent="z5Srj0_W4YSiYPK0m8sV-223" vertex="1">
          <mxGeometry x="330" width="150" height="30" as="geometry">
            <mxRectangle width="150" height="30" as="alternateBounds" />
          </mxGeometry>
        </mxCell>
        <mxCell id="wo0TMsI5rG442XAfvcZ0-99" value="Out of Blood" style="shape=partialRectangle;connectable=0;fillColor=none;top=0;left=0;bottom=0;right=0;align=center;spacingLeft=6;overflow=hidden;whiteSpace=wrap;html=1;fontStyle=1;fontSize=14;" parent="z5Srj0_W4YSiYPK0m8sV-223" vertex="1">
          <mxGeometry x="480" width="150" height="30" as="geometry">
            <mxRectangle width="150" height="30" as="alternateBounds" />
          </mxGeometry>
        </mxCell>
        <mxCell id="wo0TMsI5rG442XAfvcZ0-104" value="League Challenge" style="shape=partialRectangle;connectable=0;fillColor=none;top=0;left=0;bottom=0;right=0;align=center;spacingLeft=6;overflow=hidden;whiteSpace=wrap;html=1;fontStyle=1;fontSize=14;" parent="z5Srj0_W4YSiYPK0m8sV-223" vertex="1">
          <mxGeometry x="630" width="150" height="30" as="geometry">
            <mxRectangle width="150" height="30" as="alternateBounds" />
          </mxGeometry>
        </mxCell>
        <mxCell id="z5Srj0_W4YSiYPK0m8sV-226" value="" style="shape=tableRow;horizontal=0;startSize=0;swimlaneHead=0;swimlaneBody=0;fillColor=none;collapsible=0;dropTarget=0;points=[[0,0.5],[1,0.5]];portConstraint=eastwest;top=0;left=0;right=0;bottom=0;fontStyle=1;align=center;fontSize=14;" parent="z5Srj0_W4YSiYPK0m8sV-219" vertex="1">
          <mxGeometry y="90" width="780" height="30" as="geometry" />
        </mxCell>
        <mxCell id="z5Srj0_W4YSiYPK0m8sV-227" value="" style="shape=partialRectangle;connectable=0;fillColor=none;top=0;left=0;bottom=0;right=0;editable=1;overflow=hidden;whiteSpace=wrap;html=1;fontStyle=1;align=center;fontSize=14;" parent="z5Srj0_W4YSiYPK0m8sV-226" vertex="1">
          <mxGeometry width="30" height="30" as="geometry">
            <mxRectangle width="30" height="30" as="alternateBounds" />
          </mxGeometry>
        </mxCell>
        <mxCell id="z5Srj0_W4YSiYPK0m8sV-228" value="Data_inicio" style="shape=partialRectangle;connectable=0;fillColor=none;top=0;left=0;bottom=0;right=0;align=center;spacingLeft=6;overflow=hidden;whiteSpace=wrap;html=1;fontStyle=1;fontSize=14;" parent="z5Srj0_W4YSiYPK0m8sV-226" vertex="1">
          <mxGeometry x="30" width="150" height="30" as="geometry">
            <mxRectangle width="150" height="30" as="alternateBounds" />
          </mxGeometry>
        </mxCell>
        <mxCell id="wo0TMsI5rG442XAfvcZ0-90" value="2025-10-11" style="shape=partialRectangle;connectable=0;fillColor=none;top=0;left=0;bottom=0;right=0;align=center;spacingLeft=6;overflow=hidden;whiteSpace=wrap;html=1;fontStyle=1;fontSize=14;" parent="z5Srj0_W4YSiYPK0m8sV-226" vertex="1">
          <mxGeometry x="180" width="150" height="30" as="geometry">
            <mxRectangle width="150" height="30" as="alternateBounds" />
          </mxGeometry>
        </mxCell>
        <mxCell id="wo0TMsI5rG442XAfvcZ0-95" value="2025-10-09" style="shape=partialRectangle;connectable=0;fillColor=none;top=0;left=0;bottom=0;right=0;align=center;spacingLeft=6;overflow=hidden;whiteSpace=wrap;html=1;fontStyle=1;fontSize=14;" parent="z5Srj0_W4YSiYPK0m8sV-226" vertex="1">
          <mxGeometry x="330" width="150" height="30" as="geometry">
            <mxRectangle width="150" height="30" as="alternateBounds" />
          </mxGeometry>
        </mxCell>
        <mxCell id="wo0TMsI5rG442XAfvcZ0-100" value="2025-11-20" style="shape=partialRectangle;connectable=0;fillColor=none;top=0;left=0;bottom=0;right=0;align=center;spacingLeft=6;overflow=hidden;whiteSpace=wrap;html=1;fontStyle=1;fontSize=14;" parent="z5Srj0_W4YSiYPK0m8sV-226" vertex="1">
          <mxGeometry x="480" width="150" height="30" as="geometry">
            <mxRectangle width="150" height="30" as="alternateBounds" />
          </mxGeometry>
        </mxCell>
        <mxCell id="wo0TMsI5rG442XAfvcZ0-105" value="2025-11-13" style="shape=partialRectangle;connectable=0;fillColor=none;top=0;left=0;bottom=0;right=0;align=center;spacingLeft=6;overflow=hidden;whiteSpace=wrap;html=1;fontStyle=1;fontSize=14;" parent="z5Srj0_W4YSiYPK0m8sV-226" vertex="1">
          <mxGeometry x="630" width="150" height="30" as="geometry">
            <mxRectangle width="150" height="30" as="alternateBounds" />
          </mxGeometry>
        </mxCell>
        <mxCell id="z5Srj0_W4YSiYPK0m8sV-229" value="" style="shape=tableRow;horizontal=0;startSize=0;swimlaneHead=0;swimlaneBody=0;fillColor=none;collapsible=0;dropTarget=0;points=[[0,0.5],[1,0.5]];portConstraint=eastwest;top=0;left=0;right=0;bottom=0;fontStyle=1;align=center;fontSize=14;" parent="z5Srj0_W4YSiYPK0m8sV-219" vertex="1">
          <mxGeometry y="120" width="780" height="30" as="geometry" />
        </mxCell>
        <mxCell id="z5Srj0_W4YSiYPK0m8sV-230" value="" style="shape=partialRectangle;connectable=0;fillColor=none;top=0;left=0;bottom=0;right=0;editable=1;overflow=hidden;whiteSpace=wrap;html=1;fontStyle=1;align=center;fontSize=14;" parent="z5Srj0_W4YSiYPK0m8sV-229" vertex="1">
          <mxGeometry width="30" height="30" as="geometry">
            <mxRectangle width="30" height="30" as="alternateBounds" />
          </mxGeometry>
        </mxCell>
        <mxCell id="z5Srj0_W4YSiYPK0m8sV-231" value="Data_final" style="shape=partialRectangle;connectable=0;fillColor=none;top=0;left=0;bottom=0;right=0;align=center;spacingLeft=6;overflow=hidden;whiteSpace=wrap;html=1;fontStyle=1;fontSize=14;" parent="z5Srj0_W4YSiYPK0m8sV-229" vertex="1">
          <mxGeometry x="30" width="150" height="30" as="geometry">
            <mxRectangle width="150" height="30" as="alternateBounds" />
          </mxGeometry>
        </mxCell>
        <mxCell id="wo0TMsI5rG442XAfvcZ0-91" value="2025-10-15" style="shape=partialRectangle;connectable=0;fillColor=none;top=0;left=0;bottom=0;right=0;align=center;spacingLeft=6;overflow=hidden;whiteSpace=wrap;html=1;fontStyle=1;fontSize=14;" parent="z5Srj0_W4YSiYPK0m8sV-229" vertex="1">
          <mxGeometry x="180" width="150" height="30" as="geometry">
            <mxRectangle width="150" height="30" as="alternateBounds" />
          </mxGeometry>
        </mxCell>
        <mxCell id="wo0TMsI5rG442XAfvcZ0-96" value="2025-10-10" style="shape=partialRectangle;connectable=0;fillColor=none;top=0;left=0;bottom=0;right=0;align=center;spacingLeft=6;overflow=hidden;whiteSpace=wrap;html=1;fontStyle=1;fontSize=14;" parent="z5Srj0_W4YSiYPK0m8sV-229" vertex="1">
          <mxGeometry x="330" width="150" height="30" as="geometry">
            <mxRectangle width="150" height="30" as="alternateBounds" />
          </mxGeometry>
        </mxCell>
        <mxCell id="wo0TMsI5rG442XAfvcZ0-101" value="2025-11-29" style="shape=partialRectangle;connectable=0;fillColor=none;top=0;left=0;bottom=0;right=0;align=center;spacingLeft=6;overflow=hidden;whiteSpace=wrap;html=1;fontStyle=1;fontSize=14;" parent="z5Srj0_W4YSiYPK0m8sV-229" vertex="1">
          <mxGeometry x="480" width="150" height="30" as="geometry">
            <mxRectangle width="150" height="30" as="alternateBounds" />
          </mxGeometry>
        </mxCell>
        <mxCell id="wo0TMsI5rG442XAfvcZ0-106" value="&amp;nbsp;2025-11-1" style="shape=partialRectangle;connectable=0;fillColor=none;top=0;left=0;bottom=0;right=0;align=center;spacingLeft=6;overflow=hidden;whiteSpace=wrap;html=1;fontStyle=1;fontSize=14;" parent="z5Srj0_W4YSiYPK0m8sV-229" vertex="1">
          <mxGeometry x="630" width="150" height="30" as="geometry">
            <mxRectangle width="150" height="30" as="alternateBounds" />
          </mxGeometry>
        </mxCell>
        <mxCell id="z5Srj0_W4YSiYPK0m8sV-232" style="shape=tableRow;horizontal=0;startSize=0;swimlaneHead=0;swimlaneBody=0;fillColor=none;collapsible=0;dropTarget=0;points=[[0,0.5],[1,0.5]];portConstraint=eastwest;top=0;left=0;right=0;bottom=0;fontStyle=1;align=center;fontSize=14;" parent="z5Srj0_W4YSiYPK0m8sV-219" vertex="1">
          <mxGeometry y="150" width="780" height="30" as="geometry" />
        </mxCell>
        <mxCell id="z5Srj0_W4YSiYPK0m8sV-233" style="shape=partialRectangle;connectable=0;fillColor=none;top=0;left=0;bottom=0;right=0;editable=1;overflow=hidden;whiteSpace=wrap;html=1;fontStyle=1;align=center;fontSize=14;" parent="z5Srj0_W4YSiYPK0m8sV-232" vertex="1">
          <mxGeometry width="30" height="30" as="geometry">
            <mxRectangle width="30" height="30" as="alternateBounds" />
          </mxGeometry>
        </mxCell>
        <mxCell id="z5Srj0_W4YSiYPK0m8sV-234" value="Recompensa" style="shape=partialRectangle;connectable=0;fillColor=none;top=0;left=0;bottom=0;right=0;align=center;spacingLeft=6;overflow=hidden;whiteSpace=wrap;html=1;fontStyle=1;fontSize=14;" parent="z5Srj0_W4YSiYPK0m8sV-232" vertex="1">
          <mxGeometry x="30" width="150" height="30" as="geometry">
            <mxRectangle width="150" height="30" as="alternateBounds" />
          </mxGeometry>
        </mxCell>
        <mxCell id="wo0TMsI5rG442XAfvcZ0-92" value="10000000" style="shape=partialRectangle;connectable=0;fillColor=none;top=0;left=0;bottom=0;right=0;align=center;spacingLeft=6;overflow=hidden;whiteSpace=wrap;html=1;fontStyle=1;fontSize=14;" parent="z5Srj0_W4YSiYPK0m8sV-232" vertex="1">
          <mxGeometry x="180" width="150" height="30" as="geometry">
            <mxRectangle width="150" height="30" as="alternateBounds" />
          </mxGeometry>
        </mxCell>
        <mxCell id="wo0TMsI5rG442XAfvcZ0-97" value="1000000" style="shape=partialRectangle;connectable=0;fillColor=none;top=0;left=0;bottom=0;right=0;align=center;spacingLeft=6;overflow=hidden;whiteSpace=wrap;html=1;fontStyle=1;fontSize=14;" parent="z5Srj0_W4YSiYPK0m8sV-232" vertex="1">
          <mxGeometry x="330" width="150" height="30" as="geometry">
            <mxRectangle width="150" height="30" as="alternateBounds" />
          </mxGeometry>
        </mxCell>
        <mxCell id="wo0TMsI5rG442XAfvcZ0-102" value="Caveira do DragÃ£o" style="shape=partialRectangle;connectable=0;fillColor=none;top=0;left=0;bottom=0;right=0;align=center;spacingLeft=6;overflow=hidden;whiteSpace=wrap;html=1;fontStyle=1;fontSize=14;" parent="z5Srj0_W4YSiYPK0m8sV-232" vertex="1">
          <mxGeometry x="480" width="150" height="30" as="geometry">
            <mxRectangle width="150" height="30" as="alternateBounds" />
          </mxGeometry>
        </mxCell>
        <mxCell id="wo0TMsI5rG442XAfvcZ0-107" value="Espada Macaco" style="shape=partialRectangle;connectable=0;fillColor=none;top=0;left=0;bottom=0;right=0;align=center;spacingLeft=6;overflow=hidden;whiteSpace=wrap;html=1;fontStyle=1;fontSize=14;" parent="z5Srj0_W4YSiYPK0m8sV-232" vertex="1">
          <mxGeometry x="630" width="150" height="30" as="geometry">
            <mxRectangle width="150" height="30" as="alternateBounds" />
          </mxGeometry>
        </mxCell>
        <mxCell id="wo0TMsI5rG442XAfvcZ0-136" style="edgeStyle=orthogonalEdgeStyle;rounded=0;orthogonalLoop=1;jettySize=auto;html=1;" parent="1" source="z5Srj0_W4YSiYPK0m8sV-238" edge="1">
          <mxGeometry relative="1" as="geometry">
            <mxPoint x="-2700" y="797.5" as="targetPoint" />
          </mxGeometry>
        </mxCell>
        <mxCell id="z5Srj0_W4YSiYPK0m8sV-238" value="Guilda" style="shape=table;startSize=35;container=1;collapsible=1;childLayout=tableLayout;fixedRows=1;rowLines=0;fontStyle=1;align=center;resizeLast=1;html=1;whiteSpace=wrap;fontSize=14;" parent="1" vertex="1">
          <mxGeometry x="-2570" y="720" width="420" height="155" as="geometry" />
        </mxCell>
        <mxCell id="z5Srj0_W4YSiYPK0m8sV-239" value="" style="shape=tableRow;horizontal=0;startSize=0;swimlaneHead=0;swimlaneBody=0;fillColor=none;collapsible=0;dropTarget=0;points=[[0,0.5],[1,0.5]];portConstraint=eastwest;top=0;left=0;right=0;bottom=0;html=1;fontStyle=1;fontSize=14;align=center;" parent="z5Srj0_W4YSiYPK0m8sV-238" vertex="1">
          <mxGeometry y="35" width="420" height="30" as="geometry" />
        </mxCell>
        <mxCell id="z5Srj0_W4YSiYPK0m8sV-240" value="PK" style="shape=partialRectangle;connectable=0;fillColor=none;top=0;left=0;bottom=0;right=0;fontStyle=1;overflow=hidden;html=1;whiteSpace=wrap;fontSize=14;align=center;" parent="z5Srj0_W4YSiYPK0m8sV-239" vertex="1">
          <mxGeometry width="60" height="30" as="geometry">
            <mxRectangle width="60" height="30" as="alternateBounds" />
          </mxGeometry>
        </mxCell>
        <mxCell id="z5Srj0_W4YSiYPK0m8sV-241" value="ID_guilda" style="shape=partialRectangle;connectable=0;fillColor=none;top=0;left=0;bottom=0;right=0;align=center;spacingLeft=6;fontStyle=5;overflow=hidden;html=1;whiteSpace=wrap;fontSize=14;" parent="z5Srj0_W4YSiYPK0m8sV-239" vertex="1">
          <mxGeometry x="60" width="120" height="30" as="geometry">
            <mxRectangle width="120" height="30" as="alternateBounds" />
          </mxGeometry>
        </mxCell>
        <mxCell id="wo0TMsI5rG442XAfvcZ0-109" value="01" style="shape=partialRectangle;connectable=0;fillColor=none;top=0;left=0;bottom=0;right=0;align=center;spacingLeft=6;fontStyle=5;overflow=hidden;html=1;whiteSpace=wrap;fontSize=14;" parent="z5Srj0_W4YSiYPK0m8sV-239" vertex="1">
          <mxGeometry x="180" width="120" height="30" as="geometry">
            <mxRectangle width="120" height="30" as="alternateBounds" />
          </mxGeometry>
        </mxCell>
        <mxCell id="wo0TMsI5rG442XAfvcZ0-113" value="02" style="shape=partialRectangle;connectable=0;fillColor=none;top=0;left=0;bottom=0;right=0;align=center;spacingLeft=6;fontStyle=5;overflow=hidden;html=1;whiteSpace=wrap;fontSize=14;" parent="z5Srj0_W4YSiYPK0m8sV-239" vertex="1">
          <mxGeometry x="300" width="120" height="30" as="geometry">
            <mxRectangle width="120" height="30" as="alternateBounds" />
          </mxGeometry>
        </mxCell>
        <mxCell id="z5Srj0_W4YSiYPK0m8sV-242" value="" style="shape=tableRow;horizontal=0;startSize=0;swimlaneHead=0;swimlaneBody=0;fillColor=none;collapsible=0;dropTarget=0;points=[[0,0.5],[1,0.5]];portConstraint=eastwest;top=0;left=0;right=0;bottom=1;html=1;fontStyle=1;fontSize=14;align=center;" parent="z5Srj0_W4YSiYPK0m8sV-238" vertex="1">
          <mxGeometry y="65" width="420" height="30" as="geometry" />
        </mxCell>
        <mxCell id="z5Srj0_W4YSiYPK0m8sV-243" value="FK" style="shape=partialRectangle;connectable=0;fillColor=none;top=0;left=0;bottom=0;right=0;fontStyle=1;overflow=hidden;html=1;whiteSpace=wrap;fontSize=14;align=center;" parent="z5Srj0_W4YSiYPK0m8sV-242" vertex="1">
          <mxGeometry width="60" height="30" as="geometry">
            <mxRectangle width="60" height="30" as="alternateBounds" />
          </mxGeometry>
        </mxCell>
        <mxCell id="z5Srj0_W4YSiYPK0m8sV-244" value="ID_Lider" style="shape=partialRectangle;connectable=0;fillColor=none;top=0;left=0;bottom=0;right=0;align=center;spacingLeft=6;fontStyle=5;overflow=hidden;html=1;whiteSpace=wrap;fontSize=14;" parent="z5Srj0_W4YSiYPK0m8sV-242" vertex="1">
          <mxGeometry x="60" width="120" height="30" as="geometry">
            <mxRectangle width="120" height="30" as="alternateBounds" />
          </mxGeometry>
        </mxCell>
        <mxCell id="wo0TMsI5rG442XAfvcZ0-110" value="02" style="shape=partialRectangle;connectable=0;fillColor=none;top=0;left=0;bottom=0;right=0;align=center;spacingLeft=6;fontStyle=5;overflow=hidden;html=1;whiteSpace=wrap;fontSize=14;" parent="z5Srj0_W4YSiYPK0m8sV-242" vertex="1">
          <mxGeometry x="180" width="120" height="30" as="geometry">
            <mxRectangle width="120" height="30" as="alternateBounds" />
          </mxGeometry>
        </mxCell>
        <mxCell id="wo0TMsI5rG442XAfvcZ0-114" value="04" style="shape=partialRectangle;connectable=0;fillColor=none;top=0;left=0;bottom=0;right=0;align=center;spacingLeft=6;fontStyle=5;overflow=hidden;html=1;whiteSpace=wrap;fontSize=14;" parent="z5Srj0_W4YSiYPK0m8sV-242" vertex="1">
          <mxGeometry x="300" width="120" height="30" as="geometry">
            <mxRectangle width="120" height="30" as="alternateBounds" />
          </mxGeometry>
        </mxCell>
        <mxCell id="z5Srj0_W4YSiYPK0m8sV-245" value="" style="shape=tableRow;horizontal=0;startSize=0;swimlaneHead=0;swimlaneBody=0;fillColor=none;collapsible=0;dropTarget=0;points=[[0,0.5],[1,0.5]];portConstraint=eastwest;top=0;left=0;right=0;bottom=0;html=1;fontStyle=1;fontSize=14;align=center;" parent="z5Srj0_W4YSiYPK0m8sV-238" vertex="1">
          <mxGeometry y="95" width="420" height="30" as="geometry" />
        </mxCell>
        <mxCell id="z5Srj0_W4YSiYPK0m8sV-246" value="" style="shape=partialRectangle;connectable=0;fillColor=none;top=0;left=0;bottom=0;right=0;editable=1;overflow=hidden;html=1;whiteSpace=wrap;fontStyle=1;fontSize=14;align=center;" parent="z5Srj0_W4YSiYPK0m8sV-245" vertex="1">
          <mxGeometry width="60" height="30" as="geometry">
            <mxRectangle width="60" height="30" as="alternateBounds" />
          </mxGeometry>
        </mxCell>
        <mxCell id="z5Srj0_W4YSiYPK0m8sV-247" value="Data_criacao" style="shape=partialRectangle;connectable=0;fillColor=none;top=0;left=0;bottom=0;right=0;align=center;spacingLeft=6;overflow=hidden;html=1;whiteSpace=wrap;fontStyle=1;fontSize=14;" parent="z5Srj0_W4YSiYPK0m8sV-245" vertex="1">
          <mxGeometry x="60" width="120" height="30" as="geometry">
            <mxRectangle width="120" height="30" as="alternateBounds" />
          </mxGeometry>
        </mxCell>
        <mxCell id="wo0TMsI5rG442XAfvcZ0-111" value="2024-08-10" style="shape=partialRectangle;connectable=0;fillColor=none;top=0;left=0;bottom=0;right=0;align=center;spacingLeft=6;overflow=hidden;html=1;whiteSpace=wrap;fontStyle=1;fontSize=14;" parent="z5Srj0_W4YSiYPK0m8sV-245" vertex="1">
          <mxGeometry x="180" width="120" height="30" as="geometry">
            <mxRectangle width="120" height="30" as="alternateBounds" />
          </mxGeometry>
        </mxCell>
        <mxCell id="wo0TMsI5rG442XAfvcZ0-115" value="2025-02-11" style="shape=partialRectangle;connectable=0;fillColor=none;top=0;left=0;bottom=0;right=0;align=center;spacingLeft=6;overflow=hidden;html=1;whiteSpace=wrap;fontStyle=1;fontSize=14;" parent="z5Srj0_W4YSiYPK0m8sV-245" vertex="1">
          <mxGeometry x="300" width="120" height="30" as="geometry">
            <mxRectangle width="120" height="30" as="alternateBounds" />
          </mxGeometry>
        </mxCell>
        <mxCell id="z5Srj0_W4YSiYPK0m8sV-248" value="" style="shape=tableRow;horizontal=0;startSize=0;swimlaneHead=0;swimlaneBody=0;fillColor=none;collapsible=0;dropTarget=0;points=[[0,0.5],[1,0.5]];portConstraint=eastwest;top=0;left=0;right=0;bottom=0;html=1;fontStyle=1;fontSize=14;align=center;" parent="z5Srj0_W4YSiYPK0m8sV-238" vertex="1">
          <mxGeometry y="125" width="420" height="30" as="geometry" />
        </mxCell>
        <mxCell id="z5Srj0_W4YSiYPK0m8sV-249" value="" style="shape=partialRectangle;connectable=0;fillColor=none;top=0;left=0;bottom=0;right=0;editable=1;overflow=hidden;html=1;whiteSpace=wrap;fontStyle=1;fontSize=14;align=center;" parent="z5Srj0_W4YSiYPK0m8sV-248" vertex="1">
          <mxGeometry width="60" height="30" as="geometry">
            <mxRectangle width="60" height="30" as="alternateBounds" />
          </mxGeometry>
        </mxCell>
        <mxCell id="z5Srj0_W4YSiYPK0m8sV-250" value="Nome" style="shape=partialRectangle;connectable=0;fillColor=none;top=0;left=0;bottom=0;right=0;align=center;spacingLeft=6;overflow=hidden;html=1;whiteSpace=wrap;fontStyle=1;fontSize=14;" parent="z5Srj0_W4YSiYPK0m8sV-248" vertex="1">
          <mxGeometry x="60" width="120" height="30" as="geometry">
            <mxRectangle width="120" height="30" as="alternateBounds" />
          </mxGeometry>
        </mxCell>
        <mxCell id="wo0TMsI5rG442XAfvcZ0-112" value="Los Dragons" style="shape=partialRectangle;connectable=0;fillColor=none;top=0;left=0;bottom=0;right=0;align=center;spacingLeft=6;overflow=hidden;html=1;whiteSpace=wrap;fontStyle=1;fontSize=14;" parent="z5Srj0_W4YSiYPK0m8sV-248" vertex="1">
          <mxGeometry x="180" width="120" height="30" as="geometry">
            <mxRectangle width="120" height="30" as="alternateBounds" />
          </mxGeometry>
        </mxCell>
        <mxCell id="wo0TMsI5rG442XAfvcZ0-116" value="Ballas" style="shape=partialRectangle;connectable=0;fillColor=none;top=0;left=0;bottom=0;right=0;align=center;spacingLeft=6;overflow=hidden;html=1;whiteSpace=wrap;fontStyle=1;fontSize=14;" parent="z5Srj0_W4YSiYPK0m8sV-248" vertex="1">
          <mxGeometry x="300" width="120" height="30" as="geometry">
            <mxRectangle width="120" height="30" as="alternateBounds" />
          </mxGeometry>
        </mxCell>
        <mxCell id="z5Srj0_W4YSiYPK0m8sV-251" value="Chat" style="shape=table;startSize=30;container=1;collapsible=1;childLayout=tableLayout;fixedRows=1;rowLines=0;fontStyle=1;align=center;resizeLast=1;html=1;whiteSpace=wrap;fontSize=14;" parent="1" vertex="1">
          <mxGeometry x="-3130" y="707.5" width="420" height="180" as="geometry" />
        </mxCell>
        <mxCell id="z5Srj0_W4YSiYPK0m8sV-264" style="shape=tableRow;horizontal=0;startSize=0;swimlaneHead=0;swimlaneBody=0;fillColor=none;collapsible=0;dropTarget=0;points=[[0,0.5],[1,0.5]];portConstraint=eastwest;top=0;left=0;right=0;bottom=0;html=1;fontStyle=1;fontSize=14;align=center;" parent="z5Srj0_W4YSiYPK0m8sV-251" vertex="1">
          <mxGeometry y="30" width="420" height="30" as="geometry" />
        </mxCell>
        <mxCell id="z5Srj0_W4YSiYPK0m8sV-265" value="PK" style="shape=partialRectangle;connectable=0;fillColor=none;top=0;left=0;bottom=0;right=0;fontStyle=1;overflow=hidden;html=1;whiteSpace=wrap;fontSize=14;align=center;" parent="z5Srj0_W4YSiYPK0m8sV-264" vertex="1">
          <mxGeometry width="60" height="30" as="geometry">
            <mxRectangle width="60" height="30" as="alternateBounds" />
          </mxGeometry>
        </mxCell>
        <mxCell id="z5Srj0_W4YSiYPK0m8sV-266" value="ID_chat" style="shape=partialRectangle;connectable=0;fillColor=none;top=0;left=0;bottom=0;right=0;align=center;spacingLeft=6;fontStyle=5;overflow=hidden;html=1;whiteSpace=wrap;fontSize=14;" parent="z5Srj0_W4YSiYPK0m8sV-264" vertex="1">
          <mxGeometry x="60" width="120" height="30" as="geometry">
            <mxRectangle width="120" height="30" as="alternateBounds" />
          </mxGeometry>
        </mxCell>
        <mxCell id="wo0TMsI5rG442XAfvcZ0-121" value="01" style="shape=partialRectangle;connectable=0;fillColor=none;top=0;left=0;bottom=0;right=0;align=center;spacingLeft=6;fontStyle=5;overflow=hidden;html=1;whiteSpace=wrap;fontSize=14;" parent="z5Srj0_W4YSiYPK0m8sV-264" vertex="1">
          <mxGeometry x="180" width="120" height="30" as="geometry">
            <mxRectangle width="120" height="30" as="alternateBounds" />
          </mxGeometry>
        </mxCell>
        <mxCell id="wo0TMsI5rG442XAfvcZ0-126" value="02" style="shape=partialRectangle;connectable=0;fillColor=none;top=0;left=0;bottom=0;right=0;align=center;spacingLeft=6;fontStyle=5;overflow=hidden;html=1;whiteSpace=wrap;fontSize=14;" parent="z5Srj0_W4YSiYPK0m8sV-264" vertex="1">
          <mxGeometry x="300" width="120" height="30" as="geometry">
            <mxRectangle width="120" height="30" as="alternateBounds" />
          </mxGeometry>
        </mxCell>
        <mxCell id="z5Srj0_W4YSiYPK0m8sV-252" value="" style="shape=tableRow;horizontal=0;startSize=0;swimlaneHead=0;swimlaneBody=0;fillColor=none;collapsible=0;dropTarget=0;points=[[0,0.5],[1,0.5]];portConstraint=eastwest;top=0;left=0;right=0;bottom=0;html=1;fontStyle=1;fontSize=14;align=center;" parent="z5Srj0_W4YSiYPK0m8sV-251" vertex="1">
          <mxGeometry y="60" width="420" height="30" as="geometry" />
        </mxCell>
        <mxCell id="z5Srj0_W4YSiYPK0m8sV-253" value="FK" style="shape=partialRectangle;connectable=0;fillColor=none;top=0;left=0;bottom=0;right=0;fontStyle=1;overflow=hidden;html=1;whiteSpace=wrap;fontSize=14;align=center;" parent="z5Srj0_W4YSiYPK0m8sV-252" vertex="1">
          <mxGeometry width="60" height="30" as="geometry">
            <mxRectangle width="60" height="30" as="alternateBounds" />
          </mxGeometry>
        </mxCell>
        <mxCell id="z5Srj0_W4YSiYPK0m8sV-254" value="ID_guilda" style="shape=partialRectangle;connectable=0;fillColor=none;top=0;left=0;bottom=0;right=0;align=center;spacingLeft=6;fontStyle=5;overflow=hidden;html=1;whiteSpace=wrap;fontSize=14;" parent="z5Srj0_W4YSiYPK0m8sV-252" vertex="1">
          <mxGeometry x="60" width="120" height="30" as="geometry">
            <mxRectangle width="120" height="30" as="alternateBounds" />
          </mxGeometry>
        </mxCell>
        <mxCell id="wo0TMsI5rG442XAfvcZ0-122" value="01" style="shape=partialRectangle;connectable=0;fillColor=none;top=0;left=0;bottom=0;right=0;align=center;spacingLeft=6;fontStyle=5;overflow=hidden;html=1;whiteSpace=wrap;fontSize=14;" parent="z5Srj0_W4YSiYPK0m8sV-252" vertex="1">
          <mxGeometry x="180" width="120" height="30" as="geometry">
            <mxRectangle width="120" height="30" as="alternateBounds" />
          </mxGeometry>
        </mxCell>
        <mxCell id="wo0TMsI5rG442XAfvcZ0-127" value="01" style="shape=partialRectangle;connectable=0;fillColor=none;top=0;left=0;bottom=0;right=0;align=center;spacingLeft=6;fontStyle=5;overflow=hidden;html=1;whiteSpace=wrap;fontSize=14;" parent="z5Srj0_W4YSiYPK0m8sV-252" vertex="1">
          <mxGeometry x="300" width="120" height="30" as="geometry">
            <mxRectangle width="120" height="30" as="alternateBounds" />
          </mxGeometry>
        </mxCell>
        <mxCell id="z5Srj0_W4YSiYPK0m8sV-255" value="" style="shape=tableRow;horizontal=0;startSize=0;swimlaneHead=0;swimlaneBody=0;fillColor=none;collapsible=0;dropTarget=0;points=[[0,0.5],[1,0.5]];portConstraint=eastwest;top=0;left=0;right=0;bottom=1;html=1;fontStyle=1;fontSize=14;align=center;" parent="z5Srj0_W4YSiYPK0m8sV-251" vertex="1">
          <mxGeometry y="90" width="420" height="30" as="geometry" />
        </mxCell>
        <mxCell id="z5Srj0_W4YSiYPK0m8sV-256" value="FK" style="shape=partialRectangle;connectable=0;fillColor=none;top=0;left=0;bottom=0;right=0;fontStyle=1;overflow=hidden;html=1;whiteSpace=wrap;fontSize=14;align=center;" parent="z5Srj0_W4YSiYPK0m8sV-255" vertex="1">
          <mxGeometry width="60" height="30" as="geometry">
            <mxRectangle width="60" height="30" as="alternateBounds" />
          </mxGeometry>
        </mxCell>
        <mxCell id="z5Srj0_W4YSiYPK0m8sV-257" value="ID_jogador" style="shape=partialRectangle;connectable=0;fillColor=none;top=0;left=0;bottom=0;right=0;align=center;spacingLeft=6;fontStyle=5;overflow=hidden;html=1;whiteSpace=wrap;fontSize=14;" parent="z5Srj0_W4YSiYPK0m8sV-255" vertex="1">
          <mxGeometry x="60" width="120" height="30" as="geometry">
            <mxRectangle width="120" height="30" as="alternateBounds" />
          </mxGeometry>
        </mxCell>
        <mxCell id="wo0TMsI5rG442XAfvcZ0-123" value="02" style="shape=partialRectangle;connectable=0;fillColor=none;top=0;left=0;bottom=0;right=0;align=center;spacingLeft=6;fontStyle=5;overflow=hidden;html=1;whiteSpace=wrap;fontSize=14;" parent="z5Srj0_W4YSiYPK0m8sV-255" vertex="1">
          <mxGeometry x="180" width="120" height="30" as="geometry">
            <mxRectangle width="120" height="30" as="alternateBounds" />
          </mxGeometry>
        </mxCell>
        <mxCell id="wo0TMsI5rG442XAfvcZ0-128" value="03" style="shape=partialRectangle;connectable=0;fillColor=none;top=0;left=0;bottom=0;right=0;align=center;spacingLeft=6;fontStyle=5;overflow=hidden;html=1;whiteSpace=wrap;fontSize=14;" parent="z5Srj0_W4YSiYPK0m8sV-255" vertex="1">
          <mxGeometry x="300" width="120" height="30" as="geometry">
            <mxRectangle width="120" height="30" as="alternateBounds" />
          </mxGeometry>
        </mxCell>
        <mxCell id="z5Srj0_W4YSiYPK0m8sV-258" value="" style="shape=tableRow;horizontal=0;startSize=0;swimlaneHead=0;swimlaneBody=0;fillColor=none;collapsible=0;dropTarget=0;points=[[0,0.5],[1,0.5]];portConstraint=eastwest;top=0;left=0;right=0;bottom=0;html=1;fontStyle=1;fontSize=14;align=center;" parent="z5Srj0_W4YSiYPK0m8sV-251" vertex="1">
          <mxGeometry y="120" width="420" height="30" as="geometry" />
        </mxCell>
        <mxCell id="z5Srj0_W4YSiYPK0m8sV-259" value="" style="shape=partialRectangle;connectable=0;fillColor=none;top=0;left=0;bottom=0;right=0;editable=1;overflow=hidden;html=1;whiteSpace=wrap;fontStyle=1;fontSize=14;align=center;" parent="z5Srj0_W4YSiYPK0m8sV-258" vertex="1">
          <mxGeometry width="60" height="30" as="geometry">
            <mxRectangle width="60" height="30" as="alternateBounds" />
          </mxGeometry>
        </mxCell>
        <mxCell id="z5Srj0_W4YSiYPK0m8sV-260" value="Mensagem" style="shape=partialRectangle;connectable=0;fillColor=none;top=0;left=0;bottom=0;right=0;align=center;spacingLeft=6;overflow=hidden;html=1;whiteSpace=wrap;fontStyle=1;fontSize=14;" parent="z5Srj0_W4YSiYPK0m8sV-258" vertex="1">
          <mxGeometry x="60" width="120" height="30" as="geometry">
            <mxRectangle width="120" height="30" as="alternateBounds" />
          </mxGeometry>
        </mxCell>
        <mxCell id="wo0TMsI5rG442XAfvcZ0-124" value="Bora x1" style="shape=partialRectangle;connectable=0;fillColor=none;top=0;left=0;bottom=0;right=0;align=center;spacingLeft=6;overflow=hidden;html=1;whiteSpace=wrap;fontStyle=1;fontSize=14;" parent="z5Srj0_W4YSiYPK0m8sV-258" vertex="1">
          <mxGeometry x="180" width="120" height="30" as="geometry">
            <mxRectangle width="120" height="30" as="alternateBounds" />
          </mxGeometry>
        </mxCell>
        <mxCell id="wo0TMsI5rG442XAfvcZ0-129" value="Aceitokk" style="shape=partialRectangle;connectable=0;fillColor=none;top=0;left=0;bottom=0;right=0;align=center;spacingLeft=6;overflow=hidden;html=1;whiteSpace=wrap;fontStyle=1;fontSize=14;" parent="z5Srj0_W4YSiYPK0m8sV-258" vertex="1">
          <mxGeometry x="300" width="120" height="30" as="geometry">
            <mxRectangle width="120" height="30" as="alternateBounds" />
          </mxGeometry>
        </mxCell>
        <mxCell id="z5Srj0_W4YSiYPK0m8sV-261" value="" style="shape=tableRow;horizontal=0;startSize=0;swimlaneHead=0;swimlaneBody=0;fillColor=none;collapsible=0;dropTarget=0;points=[[0,0.5],[1,0.5]];portConstraint=eastwest;top=0;left=0;right=0;bottom=0;html=1;fontStyle=1;fontSize=14;align=center;" parent="z5Srj0_W4YSiYPK0m8sV-251" vertex="1">
          <mxGeometry y="150" width="420" height="30" as="geometry" />
        </mxCell>
        <mxCell id="z5Srj0_W4YSiYPK0m8sV-262" value="" style="shape=partialRectangle;connectable=0;fillColor=none;top=0;left=0;bottom=0;right=0;editable=1;overflow=hidden;html=1;whiteSpace=wrap;fontStyle=1;fontSize=14;align=center;" parent="z5Srj0_W4YSiYPK0m8sV-261" vertex="1">
          <mxGeometry width="60" height="30" as="geometry">
            <mxRectangle width="60" height="30" as="alternateBounds" />
          </mxGeometry>
        </mxCell>
        <mxCell id="z5Srj0_W4YSiYPK0m8sV-263" value="Data_envio" style="shape=partialRectangle;connectable=0;fillColor=none;top=0;left=0;bottom=0;right=0;align=center;spacingLeft=6;overflow=hidden;html=1;whiteSpace=wrap;fontStyle=1;fontSize=14;" parent="z5Srj0_W4YSiYPK0m8sV-261" vertex="1">
          <mxGeometry x="60" width="120" height="30" as="geometry">
            <mxRectangle width="120" height="30" as="alternateBounds" />
          </mxGeometry>
        </mxCell>
        <mxCell id="wo0TMsI5rG442XAfvcZ0-125" value="2024-09-11" style="shape=partialRectangle;connectable=0;fillColor=none;top=0;left=0;bottom=0;right=0;align=center;spacingLeft=6;overflow=hidden;html=1;whiteSpace=wrap;fontStyle=1;fontSize=14;" parent="z5Srj0_W4YSiYPK0m8sV-261" vertex="1">
          <mxGeometry x="180" width="120" height="30" as="geometry">
            <mxRectangle width="120" height="30" as="alternateBounds" />
          </mxGeometry>
        </mxCell>
        <mxCell id="wo0TMsI5rG442XAfvcZ0-130" value="2024-09-11" style="shape=partialRectangle;connectable=0;fillColor=none;top=0;left=0;bottom=0;right=0;align=center;spacingLeft=6;overflow=hidden;html=1;whiteSpace=wrap;fontStyle=1;fontSize=14;" parent="z5Srj0_W4YSiYPK0m8sV-261" vertex="1">
          <mxGeometry x="300" width="120" height="30" as="geometry">
            <mxRectangle width="120" height="30" as="alternateBounds" />
          </mxGeometry>
        </mxCell>
        <mxCell id="wo0TMsI5rG442XAfvcZ0-308" style="edgeStyle=orthogonalEdgeStyle;rounded=0;orthogonalLoop=1;jettySize=auto;html=1;" parent="1" source="z5Srj0_W4YSiYPK0m8sV-267" edge="1">
          <mxGeometry relative="1" as="geometry">
            <mxPoint x="-660" y="710" as="targetPoint" />
          </mxGeometry>
        </mxCell>
        <mxCell id="wo0TMsI5rG442XAfvcZ0-349" style="edgeStyle=orthogonalEdgeStyle;rounded=0;orthogonalLoop=1;jettySize=auto;html=1;" parent="1" source="z5Srj0_W4YSiYPK0m8sV-267" edge="1">
          <mxGeometry relative="1" as="geometry">
            <mxPoint x="150" y="480" as="targetPoint" />
          </mxGeometry>
        </mxCell>
        <mxCell id="z5Srj0_W4YSiYPK0m8sV-267" value="Personagem" style="shape=table;startSize=30;container=1;collapsible=1;childLayout=tableLayout;fixedRows=1;rowLines=0;fontStyle=1;align=center;resizeLast=1;html=1;whiteSpace=wrap;fontSize=14;" parent="1" vertex="1">
          <mxGeometry x="-990" y="375" width="660" height="210" as="geometry" />
        </mxCell>
        <mxCell id="z5Srj0_W4YSiYPK0m8sV-268" value="" style="shape=tableRow;horizontal=0;startSize=0;swimlaneHead=0;swimlaneBody=0;fillColor=none;collapsible=0;dropTarget=0;points=[[0,0.5],[1,0.5]];portConstraint=eastwest;top=0;left=0;right=0;bottom=0;html=1;align=center;fontStyle=1;fontSize=14;" parent="z5Srj0_W4YSiYPK0m8sV-267" vertex="1">
          <mxGeometry y="30" width="660" height="30" as="geometry" />
        </mxCell>
        <mxCell id="z5Srj0_W4YSiYPK0m8sV-269" value="PK" style="shape=partialRectangle;connectable=0;fillColor=none;top=0;left=0;bottom=0;right=0;fontStyle=1;overflow=hidden;html=1;whiteSpace=wrap;align=center;fontSize=14;" parent="z5Srj0_W4YSiYPK0m8sV-268" vertex="1">
          <mxGeometry width="60" height="30" as="geometry">
            <mxRectangle width="60" height="30" as="alternateBounds" />
          </mxGeometry>
        </mxCell>
        <mxCell id="z5Srj0_W4YSiYPK0m8sV-270" value="ID_personagem" style="shape=partialRectangle;connectable=0;fillColor=none;top=0;left=0;bottom=0;right=0;align=center;spacingLeft=6;fontStyle=5;overflow=hidden;html=1;whiteSpace=wrap;fontSize=14;" parent="z5Srj0_W4YSiYPK0m8sV-268" vertex="1">
          <mxGeometry x="60" width="120" height="30" as="geometry">
            <mxRectangle width="120" height="30" as="alternateBounds" />
          </mxGeometry>
        </mxCell>
        <mxCell id="wo0TMsI5rG442XAfvcZ0-137" value="01" style="shape=partialRectangle;connectable=0;fillColor=none;top=0;left=0;bottom=0;right=0;align=center;spacingLeft=6;fontStyle=5;overflow=hidden;html=1;whiteSpace=wrap;fontSize=14;" parent="z5Srj0_W4YSiYPK0m8sV-268" vertex="1">
          <mxGeometry x="180" width="120" height="30" as="geometry">
            <mxRectangle width="120" height="30" as="alternateBounds" />
          </mxGeometry>
        </mxCell>
        <mxCell id="wo0TMsI5rG442XAfvcZ0-143" value="02" style="shape=partialRectangle;connectable=0;fillColor=none;top=0;left=0;bottom=0;right=0;align=center;spacingLeft=6;fontStyle=5;overflow=hidden;html=1;whiteSpace=wrap;fontSize=14;" parent="z5Srj0_W4YSiYPK0m8sV-268" vertex="1">
          <mxGeometry x="300" width="160" height="30" as="geometry">
            <mxRectangle width="160" height="30" as="alternateBounds" />
          </mxGeometry>
        </mxCell>
        <mxCell id="wo0TMsI5rG442XAfvcZ0-149" value="03" style="shape=partialRectangle;connectable=0;fillColor=none;top=0;left=0;bottom=0;right=0;align=center;spacingLeft=6;fontStyle=5;overflow=hidden;html=1;whiteSpace=wrap;fontSize=14;" parent="z5Srj0_W4YSiYPK0m8sV-268" vertex="1">
          <mxGeometry x="460" width="100" height="30" as="geometry">
            <mxRectangle width="100" height="30" as="alternateBounds" />
          </mxGeometry>
        </mxCell>
        <mxCell id="wo0TMsI5rG442XAfvcZ0-155" value="04" style="shape=partialRectangle;connectable=0;fillColor=none;top=0;left=0;bottom=0;right=0;align=center;spacingLeft=6;fontStyle=5;overflow=hidden;html=1;whiteSpace=wrap;fontSize=14;" parent="z5Srj0_W4YSiYPK0m8sV-268" vertex="1">
          <mxGeometry x="560" width="100" height="30" as="geometry">
            <mxRectangle width="100" height="30" as="alternateBounds" />
          </mxGeometry>
        </mxCell>
        <mxCell id="z5Srj0_W4YSiYPK0m8sV-271" value="" style="shape=tableRow;horizontal=0;startSize=0;swimlaneHead=0;swimlaneBody=0;fillColor=none;collapsible=0;dropTarget=0;points=[[0,0.5],[1,0.5]];portConstraint=eastwest;top=0;left=0;right=0;bottom=1;html=1;align=center;fontStyle=1;fontSize=14;" parent="z5Srj0_W4YSiYPK0m8sV-267" vertex="1">
          <mxGeometry y="60" width="660" height="30" as="geometry" />
        </mxCell>
        <mxCell id="z5Srj0_W4YSiYPK0m8sV-272" value="FK" style="shape=partialRectangle;connectable=0;fillColor=none;top=0;left=0;bottom=0;right=0;fontStyle=1;overflow=hidden;html=1;whiteSpace=wrap;align=center;fontSize=14;" parent="z5Srj0_W4YSiYPK0m8sV-271" vertex="1">
          <mxGeometry width="60" height="30" as="geometry">
            <mxRectangle width="60" height="30" as="alternateBounds" />
          </mxGeometry>
        </mxCell>
        <mxCell id="z5Srj0_W4YSiYPK0m8sV-273" value="ID_conta" style="shape=partialRectangle;connectable=0;fillColor=none;top=0;left=0;bottom=0;right=0;align=center;spacingLeft=6;fontStyle=5;overflow=hidden;html=1;whiteSpace=wrap;fontSize=14;" parent="z5Srj0_W4YSiYPK0m8sV-271" vertex="1">
          <mxGeometry x="60" width="120" height="30" as="geometry">
            <mxRectangle width="120" height="30" as="alternateBounds" />
          </mxGeometry>
        </mxCell>
        <mxCell id="wo0TMsI5rG442XAfvcZ0-138" value="04" style="shape=partialRectangle;connectable=0;fillColor=none;top=0;left=0;bottom=0;right=0;align=center;spacingLeft=6;fontStyle=5;overflow=hidden;html=1;whiteSpace=wrap;fontSize=14;" parent="z5Srj0_W4YSiYPK0m8sV-271" vertex="1">
          <mxGeometry x="180" width="120" height="30" as="geometry">
            <mxRectangle width="120" height="30" as="alternateBounds" />
          </mxGeometry>
        </mxCell>
        <mxCell id="wo0TMsI5rG442XAfvcZ0-144" value="01" style="shape=partialRectangle;connectable=0;fillColor=none;top=0;left=0;bottom=0;right=0;align=center;spacingLeft=6;fontStyle=5;overflow=hidden;html=1;whiteSpace=wrap;fontSize=14;" parent="z5Srj0_W4YSiYPK0m8sV-271" vertex="1">
          <mxGeometry x="300" width="160" height="30" as="geometry">
            <mxRectangle width="160" height="30" as="alternateBounds" />
          </mxGeometry>
        </mxCell>
        <mxCell id="wo0TMsI5rG442XAfvcZ0-150" value="02" style="shape=partialRectangle;connectable=0;fillColor=none;top=0;left=0;bottom=0;right=0;align=center;spacingLeft=6;fontStyle=5;overflow=hidden;html=1;whiteSpace=wrap;fontSize=14;" parent="z5Srj0_W4YSiYPK0m8sV-271" vertex="1">
          <mxGeometry x="460" width="100" height="30" as="geometry">
            <mxRectangle width="100" height="30" as="alternateBounds" />
          </mxGeometry>
        </mxCell>
        <mxCell id="wo0TMsI5rG442XAfvcZ0-156" value="03" style="shape=partialRectangle;connectable=0;fillColor=none;top=0;left=0;bottom=0;right=0;align=center;spacingLeft=6;fontStyle=5;overflow=hidden;html=1;whiteSpace=wrap;fontSize=14;" parent="z5Srj0_W4YSiYPK0m8sV-271" vertex="1">
          <mxGeometry x="560" width="100" height="30" as="geometry">
            <mxRectangle width="100" height="30" as="alternateBounds" />
          </mxGeometry>
        </mxCell>
        <mxCell id="z5Srj0_W4YSiYPK0m8sV-274" value="" style="shape=tableRow;horizontal=0;startSize=0;swimlaneHead=0;swimlaneBody=0;fillColor=none;collapsible=0;dropTarget=0;points=[[0,0.5],[1,0.5]];portConstraint=eastwest;top=0;left=0;right=0;bottom=0;html=1;align=center;fontStyle=1;fontSize=14;" parent="z5Srj0_W4YSiYPK0m8sV-267" vertex="1">
          <mxGeometry y="90" width="660" height="30" as="geometry" />
        </mxCell>
        <mxCell id="z5Srj0_W4YSiYPK0m8sV-275" value="" style="shape=partialRectangle;connectable=0;fillColor=none;top=0;left=0;bottom=0;right=0;editable=1;overflow=hidden;html=1;whiteSpace=wrap;align=center;fontStyle=1;fontSize=14;" parent="z5Srj0_W4YSiYPK0m8sV-274" vertex="1">
          <mxGeometry width="60" height="30" as="geometry">
            <mxRectangle width="60" height="30" as="alternateBounds" />
          </mxGeometry>
        </mxCell>
        <mxCell id="z5Srj0_W4YSiYPK0m8sV-276" value="Nome" style="shape=partialRectangle;connectable=0;fillColor=none;top=0;left=0;bottom=0;right=0;align=center;spacingLeft=6;overflow=hidden;html=1;whiteSpace=wrap;fontStyle=1;fontSize=14;" parent="z5Srj0_W4YSiYPK0m8sV-274" vertex="1">
          <mxGeometry x="60" width="120" height="30" as="geometry">
            <mxRectangle width="120" height="30" as="alternateBounds" />
          </mxGeometry>
        </mxCell>
        <mxCell id="wo0TMsI5rG442XAfvcZ0-139" value="Geun" style="shape=partialRectangle;connectable=0;fillColor=none;top=0;left=0;bottom=0;right=0;align=center;spacingLeft=6;overflow=hidden;html=1;whiteSpace=wrap;fontStyle=1;fontSize=14;" parent="z5Srj0_W4YSiYPK0m8sV-274" vertex="1">
          <mxGeometry x="180" width="120" height="30" as="geometry">
            <mxRectangle width="120" height="30" as="alternateBounds" />
          </mxGeometry>
        </mxCell>
        <mxCell id="wo0TMsI5rG442XAfvcZ0-145" value="Testosterona_Barbara" style="shape=partialRectangle;connectable=0;fillColor=none;top=0;left=0;bottom=0;right=0;align=center;spacingLeft=6;overflow=hidden;html=1;whiteSpace=wrap;fontStyle=1;fontSize=14;" parent="z5Srj0_W4YSiYPK0m8sV-274" vertex="1">
          <mxGeometry x="300" width="160" height="30" as="geometry">
            <mxRectangle width="160" height="30" as="alternateBounds" />
          </mxGeometry>
        </mxCell>
        <mxCell id="wo0TMsI5rG442XAfvcZ0-151" value="GiganteLeo" style="shape=partialRectangle;connectable=0;fillColor=none;top=0;left=0;bottom=0;right=0;align=center;spacingLeft=6;overflow=hidden;html=1;whiteSpace=wrap;fontStyle=1;fontSize=14;" parent="z5Srj0_W4YSiYPK0m8sV-274" vertex="1">
          <mxGeometry x="460" width="100" height="30" as="geometry">
            <mxRectangle width="100" height="30" as="alternateBounds" />
          </mxGeometry>
        </mxCell>
        <mxCell id="wo0TMsI5rG442XAfvcZ0-157" value="lonoVirus" style="shape=partialRectangle;connectable=0;fillColor=none;top=0;left=0;bottom=0;right=0;align=center;spacingLeft=6;overflow=hidden;html=1;whiteSpace=wrap;fontStyle=1;fontSize=14;" parent="z5Srj0_W4YSiYPK0m8sV-274" vertex="1">
          <mxGeometry x="560" width="100" height="30" as="geometry">
            <mxRectangle width="100" height="30" as="alternateBounds" />
          </mxGeometry>
        </mxCell>
        <mxCell id="z5Srj0_W4YSiYPK0m8sV-277" value="" style="shape=tableRow;horizontal=0;startSize=0;swimlaneHead=0;swimlaneBody=0;fillColor=none;collapsible=0;dropTarget=0;points=[[0,0.5],[1,0.5]];portConstraint=eastwest;top=0;left=0;right=0;bottom=0;html=1;align=center;fontStyle=1;fontSize=14;" parent="z5Srj0_W4YSiYPK0m8sV-267" vertex="1">
          <mxGeometry y="120" width="660" height="30" as="geometry" />
        </mxCell>
        <mxCell id="z5Srj0_W4YSiYPK0m8sV-278" value="" style="shape=partialRectangle;connectable=0;fillColor=none;top=0;left=0;bottom=0;right=0;editable=1;overflow=hidden;html=1;whiteSpace=wrap;align=center;fontStyle=1;fontSize=14;" parent="z5Srj0_W4YSiYPK0m8sV-277" vertex="1">
          <mxGeometry width="60" height="30" as="geometry">
            <mxRectangle width="60" height="30" as="alternateBounds" />
          </mxGeometry>
        </mxCell>
        <mxCell id="z5Srj0_W4YSiYPK0m8sV-279" value="GÃªnero" style="shape=partialRectangle;connectable=0;fillColor=none;top=0;left=0;bottom=0;right=0;align=center;spacingLeft=6;overflow=hidden;html=1;whiteSpace=wrap;fontStyle=1;fontSize=14;" parent="z5Srj0_W4YSiYPK0m8sV-277" vertex="1">
          <mxGeometry x="60" width="120" height="30" as="geometry">
            <mxRectangle width="120" height="30" as="alternateBounds" />
          </mxGeometry>
        </mxCell>
        <mxCell id="wo0TMsI5rG442XAfvcZ0-140" value="Masculino" style="shape=partialRectangle;connectable=0;fillColor=none;top=0;left=0;bottom=0;right=0;align=center;spacingLeft=6;overflow=hidden;html=1;whiteSpace=wrap;fontStyle=1;fontSize=14;" parent="z5Srj0_W4YSiYPK0m8sV-277" vertex="1">
          <mxGeometry x="180" width="120" height="30" as="geometry">
            <mxRectangle width="120" height="30" as="alternateBounds" />
          </mxGeometry>
        </mxCell>
        <mxCell id="wo0TMsI5rG442XAfvcZ0-146" value="Trans" style="shape=partialRectangle;connectable=0;fillColor=none;top=0;left=0;bottom=0;right=0;align=center;spacingLeft=6;overflow=hidden;html=1;whiteSpace=wrap;fontStyle=1;fontSize=14;" parent="z5Srj0_W4YSiYPK0m8sV-277" vertex="1">
          <mxGeometry x="300" width="160" height="30" as="geometry">
            <mxRectangle width="160" height="30" as="alternateBounds" />
          </mxGeometry>
        </mxCell>
        <mxCell id="wo0TMsI5rG442XAfvcZ0-152" value="Masculino" style="shape=partialRectangle;connectable=0;fillColor=none;top=0;left=0;bottom=0;right=0;align=center;spacingLeft=6;overflow=hidden;html=1;whiteSpace=wrap;fontStyle=1;fontSize=14;" parent="z5Srj0_W4YSiYPK0m8sV-277" vertex="1">
          <mxGeometry x="460" width="100" height="30" as="geometry">
            <mxRectangle width="100" height="30" as="alternateBounds" />
          </mxGeometry>
        </mxCell>
        <mxCell id="wo0TMsI5rG442XAfvcZ0-158" value="Feminino" style="shape=partialRectangle;connectable=0;fillColor=none;top=0;left=0;bottom=0;right=0;align=center;spacingLeft=6;overflow=hidden;html=1;whiteSpace=wrap;fontStyle=1;fontSize=14;" parent="z5Srj0_W4YSiYPK0m8sV-277" vertex="1">
          <mxGeometry x="560" width="100" height="30" as="geometry">
            <mxRectangle width="100" height="30" as="alternateBounds" />
          </mxGeometry>
        </mxCell>
        <mxCell id="z5Srj0_W4YSiYPK0m8sV-280" style="shape=tableRow;horizontal=0;startSize=0;swimlaneHead=0;swimlaneBody=0;fillColor=none;collapsible=0;dropTarget=0;points=[[0,0.5],[1,0.5]];portConstraint=eastwest;top=0;left=0;right=0;bottom=0;html=1;align=center;fontStyle=1;fontSize=14;" parent="z5Srj0_W4YSiYPK0m8sV-267" vertex="1">
          <mxGeometry y="150" width="660" height="30" as="geometry" />
        </mxCell>
        <mxCell id="z5Srj0_W4YSiYPK0m8sV-281" style="shape=partialRectangle;connectable=0;fillColor=none;top=0;left=0;bottom=0;right=0;editable=1;overflow=hidden;html=1;whiteSpace=wrap;align=center;fontStyle=1;fontSize=14;" parent="z5Srj0_W4YSiYPK0m8sV-280" vertex="1">
          <mxGeometry width="60" height="30" as="geometry">
            <mxRectangle width="60" height="30" as="alternateBounds" />
          </mxGeometry>
        </mxCell>
        <mxCell id="z5Srj0_W4YSiYPK0m8sV-282" value="NÃ­vel" style="shape=partialRectangle;connectable=0;fillColor=none;top=0;left=0;bottom=0;right=0;align=center;spacingLeft=6;overflow=hidden;html=1;whiteSpace=wrap;fontStyle=1;fontSize=14;" parent="z5Srj0_W4YSiYPK0m8sV-280" vertex="1">
          <mxGeometry x="60" width="120" height="30" as="geometry">
            <mxRectangle width="120" height="30" as="alternateBounds" />
          </mxGeometry>
        </mxCell>
        <mxCell id="wo0TMsI5rG442XAfvcZ0-141" value="11" style="shape=partialRectangle;connectable=0;fillColor=none;top=0;left=0;bottom=0;right=0;align=center;spacingLeft=6;overflow=hidden;html=1;whiteSpace=wrap;fontStyle=1;fontSize=14;" parent="z5Srj0_W4YSiYPK0m8sV-280" vertex="1">
          <mxGeometry x="180" width="120" height="30" as="geometry">
            <mxRectangle width="120" height="30" as="alternateBounds" />
          </mxGeometry>
        </mxCell>
        <mxCell id="wo0TMsI5rG442XAfvcZ0-147" value="100" style="shape=partialRectangle;connectable=0;fillColor=none;top=0;left=0;bottom=0;right=0;align=center;spacingLeft=6;overflow=hidden;html=1;whiteSpace=wrap;fontStyle=1;fontSize=14;" parent="z5Srj0_W4YSiYPK0m8sV-280" vertex="1">
          <mxGeometry x="300" width="160" height="30" as="geometry">
            <mxRectangle width="160" height="30" as="alternateBounds" />
          </mxGeometry>
        </mxCell>
        <mxCell id="wo0TMsI5rG442XAfvcZ0-153" value="50" style="shape=partialRectangle;connectable=0;fillColor=none;top=0;left=0;bottom=0;right=0;align=center;spacingLeft=6;overflow=hidden;html=1;whiteSpace=wrap;fontStyle=1;fontSize=14;" parent="z5Srj0_W4YSiYPK0m8sV-280" vertex="1">
          <mxGeometry x="460" width="100" height="30" as="geometry">
            <mxRectangle width="100" height="30" as="alternateBounds" />
          </mxGeometry>
        </mxCell>
        <mxCell id="wo0TMsI5rG442XAfvcZ0-159" value="83" style="shape=partialRectangle;connectable=0;fillColor=none;top=0;left=0;bottom=0;right=0;align=center;spacingLeft=6;overflow=hidden;html=1;whiteSpace=wrap;fontStyle=1;fontSize=14;" parent="z5Srj0_W4YSiYPK0m8sV-280" vertex="1">
          <mxGeometry x="560" width="100" height="30" as="geometry">
            <mxRectangle width="100" height="30" as="alternateBounds" />
          </mxGeometry>
        </mxCell>
        <mxCell id="z5Srj0_W4YSiYPK0m8sV-283" style="shape=tableRow;horizontal=0;startSize=0;swimlaneHead=0;swimlaneBody=0;fillColor=none;collapsible=0;dropTarget=0;points=[[0,0.5],[1,0.5]];portConstraint=eastwest;top=0;left=0;right=0;bottom=0;html=1;align=center;fontStyle=1;fontSize=14;" parent="z5Srj0_W4YSiYPK0m8sV-267" vertex="1">
          <mxGeometry y="180" width="660" height="30" as="geometry" />
        </mxCell>
        <mxCell id="z5Srj0_W4YSiYPK0m8sV-284" style="shape=partialRectangle;connectable=0;fillColor=none;top=0;left=0;bottom=0;right=0;editable=1;overflow=hidden;html=1;whiteSpace=wrap;align=center;fontStyle=1;fontSize=14;" parent="z5Srj0_W4YSiYPK0m8sV-283" vertex="1">
          <mxGeometry width="60" height="30" as="geometry">
            <mxRectangle width="60" height="30" as="alternateBounds" />
          </mxGeometry>
        </mxCell>
        <mxCell id="z5Srj0_W4YSiYPK0m8sV-285" value="RaÃ§a" style="shape=partialRectangle;connectable=0;fillColor=none;top=0;left=0;bottom=0;right=0;align=center;spacingLeft=6;overflow=hidden;html=1;whiteSpace=wrap;fontStyle=1;fontSize=14;" parent="z5Srj0_W4YSiYPK0m8sV-283" vertex="1">
          <mxGeometry x="60" width="120" height="30" as="geometry">
            <mxRectangle width="120" height="30" as="alternateBounds" />
          </mxGeometry>
        </mxCell>
        <mxCell id="wo0TMsI5rG442XAfvcZ0-142" value="1" style="shape=partialRectangle;connectable=0;fillColor=none;top=0;left=0;bottom=0;right=0;align=center;spacingLeft=6;overflow=hidden;html=1;whiteSpace=wrap;fontStyle=1;fontSize=14;" parent="z5Srj0_W4YSiYPK0m8sV-283" vertex="1">
          <mxGeometry x="180" width="120" height="30" as="geometry">
            <mxRectangle width="120" height="30" as="alternateBounds" />
          </mxGeometry>
        </mxCell>
        <mxCell id="wo0TMsI5rG442XAfvcZ0-148" value="2" style="shape=partialRectangle;connectable=0;fillColor=none;top=0;left=0;bottom=0;right=0;align=center;spacingLeft=6;overflow=hidden;html=1;whiteSpace=wrap;fontStyle=1;fontSize=14;" parent="z5Srj0_W4YSiYPK0m8sV-283" vertex="1">
          <mxGeometry x="300" width="160" height="30" as="geometry">
            <mxRectangle width="160" height="30" as="alternateBounds" />
          </mxGeometry>
        </mxCell>
        <mxCell id="wo0TMsI5rG442XAfvcZ0-154" value="6" style="shape=partialRectangle;connectable=0;fillColor=none;top=0;left=0;bottom=0;right=0;align=center;spacingLeft=6;overflow=hidden;html=1;whiteSpace=wrap;fontStyle=1;fontSize=14;" parent="z5Srj0_W4YSiYPK0m8sV-283" vertex="1">
          <mxGeometry x="460" width="100" height="30" as="geometry">
            <mxRectangle width="100" height="30" as="alternateBounds" />
          </mxGeometry>
        </mxCell>
        <mxCell id="wo0TMsI5rG442XAfvcZ0-160" value="4" style="shape=partialRectangle;connectable=0;fillColor=none;top=0;left=0;bottom=0;right=0;align=center;spacingLeft=6;overflow=hidden;html=1;whiteSpace=wrap;fontStyle=1;fontSize=14;" parent="z5Srj0_W4YSiYPK0m8sV-283" vertex="1">
          <mxGeometry x="560" width="100" height="30" as="geometry">
            <mxRectangle width="100" height="30" as="alternateBounds" />
          </mxGeometry>
        </mxCell>
        <mxCell id="z5Srj0_W4YSiYPK0m8sV-289" value="RaÃ§a" style="shape=table;startSize=30;container=1;collapsible=1;childLayout=tableLayout;fixedRows=1;rowLines=0;fontStyle=1;align=center;resizeLast=1;html=1;fontSize=14;" parent="1" vertex="1">
          <mxGeometry x="-1200" y="730" width="1080" height="300" as="geometry" />
        </mxCell>
        <mxCell id="z5Srj0_W4YSiYPK0m8sV-290" value="" style="shape=tableRow;horizontal=0;startSize=0;swimlaneHead=0;swimlaneBody=0;fillColor=none;collapsible=0;dropTarget=0;points=[[0,0.5],[1,0.5]];portConstraint=eastwest;top=0;left=0;right=0;bottom=1;align=center;fontStyle=1;fontSize=14;" parent="z5Srj0_W4YSiYPK0m8sV-289" vertex="1">
          <mxGeometry y="30" width="1080" height="30" as="geometry" />
        </mxCell>
        <mxCell id="z5Srj0_W4YSiYPK0m8sV-291" value="PK" style="shape=partialRectangle;connectable=0;fillColor=none;top=0;left=0;bottom=0;right=0;fontStyle=1;overflow=hidden;whiteSpace=wrap;html=1;align=center;fontSize=14;" parent="z5Srj0_W4YSiYPK0m8sV-290" vertex="1">
          <mxGeometry width="30" height="30" as="geometry">
            <mxRectangle width="30" height="30" as="alternateBounds" />
          </mxGeometry>
        </mxCell>
        <mxCell id="z5Srj0_W4YSiYPK0m8sV-292" value="ID_raÃ§a" style="shape=partialRectangle;connectable=0;fillColor=none;top=0;left=0;bottom=0;right=0;align=center;spacingLeft=6;fontStyle=5;overflow=hidden;whiteSpace=wrap;html=1;fontSize=14;" parent="z5Srj0_W4YSiYPK0m8sV-290" vertex="1">
          <mxGeometry x="30" width="160" height="30" as="geometry">
            <mxRectangle width="160" height="30" as="alternateBounds" />
          </mxGeometry>
        </mxCell>
        <mxCell id="wo0TMsI5rG442XAfvcZ0-162" value="01" style="shape=partialRectangle;connectable=0;fillColor=none;top=0;left=0;bottom=0;right=0;align=center;spacingLeft=6;fontStyle=5;overflow=hidden;whiteSpace=wrap;html=1;fontSize=14;" parent="z5Srj0_W4YSiYPK0m8sV-290" vertex="1">
          <mxGeometry x="190" width="140" height="30" as="geometry">
            <mxRectangle width="140" height="30" as="alternateBounds" />
          </mxGeometry>
        </mxCell>
        <mxCell id="wo0TMsI5rG442XAfvcZ0-169" value="02" style="shape=partialRectangle;connectable=0;fillColor=none;top=0;left=0;bottom=0;right=0;align=center;spacingLeft=6;fontStyle=5;overflow=hidden;whiteSpace=wrap;html=1;fontSize=14;" parent="z5Srj0_W4YSiYPK0m8sV-290" vertex="1">
          <mxGeometry x="330" width="150" height="30" as="geometry">
            <mxRectangle width="150" height="30" as="alternateBounds" />
          </mxGeometry>
        </mxCell>
        <mxCell id="wo0TMsI5rG442XAfvcZ0-176" value="03" style="shape=partialRectangle;connectable=0;fillColor=none;top=0;left=0;bottom=0;right=0;align=center;spacingLeft=6;fontStyle=5;overflow=hidden;whiteSpace=wrap;html=1;fontSize=14;" parent="z5Srj0_W4YSiYPK0m8sV-290" vertex="1">
          <mxGeometry x="480" width="150" height="30" as="geometry">
            <mxRectangle width="150" height="30" as="alternateBounds" />
          </mxGeometry>
        </mxCell>
        <mxCell id="wo0TMsI5rG442XAfvcZ0-183" value="04" style="shape=partialRectangle;connectable=0;fillColor=none;top=0;left=0;bottom=0;right=0;align=center;spacingLeft=6;fontStyle=5;overflow=hidden;whiteSpace=wrap;html=1;fontSize=14;" parent="z5Srj0_W4YSiYPK0m8sV-290" vertex="1">
          <mxGeometry x="630" width="150" height="30" as="geometry">
            <mxRectangle width="150" height="30" as="alternateBounds" />
          </mxGeometry>
        </mxCell>
        <mxCell id="wo0TMsI5rG442XAfvcZ0-190" value="05" style="shape=partialRectangle;connectable=0;fillColor=none;top=0;left=0;bottom=0;right=0;align=center;spacingLeft=6;fontStyle=5;overflow=hidden;whiteSpace=wrap;html=1;fontSize=14;" parent="z5Srj0_W4YSiYPK0m8sV-290" vertex="1">
          <mxGeometry x="780" width="150" height="30" as="geometry">
            <mxRectangle width="150" height="30" as="alternateBounds" />
          </mxGeometry>
        </mxCell>
        <mxCell id="wo0TMsI5rG442XAfvcZ0-197" value="06" style="shape=partialRectangle;connectable=0;fillColor=none;top=0;left=0;bottom=0;right=0;align=center;spacingLeft=6;fontStyle=5;overflow=hidden;whiteSpace=wrap;html=1;fontSize=14;" parent="z5Srj0_W4YSiYPK0m8sV-290" vertex="1">
          <mxGeometry x="930" width="150" height="30" as="geometry">
            <mxRectangle width="150" height="30" as="alternateBounds" />
          </mxGeometry>
        </mxCell>
        <mxCell id="z5Srj0_W4YSiYPK0m8sV-293" value="" style="shape=tableRow;horizontal=0;startSize=0;swimlaneHead=0;swimlaneBody=0;fillColor=none;collapsible=0;dropTarget=0;points=[[0,0.5],[1,0.5]];portConstraint=eastwest;top=0;left=0;right=0;bottom=0;align=center;fontStyle=1;fontSize=14;" parent="z5Srj0_W4YSiYPK0m8sV-289" vertex="1">
          <mxGeometry y="60" width="1080" height="30" as="geometry" />
        </mxCell>
        <mxCell id="z5Srj0_W4YSiYPK0m8sV-294" value="" style="shape=partialRectangle;connectable=0;fillColor=none;top=0;left=0;bottom=0;right=0;editable=1;overflow=hidden;whiteSpace=wrap;html=1;align=center;fontStyle=1;fontSize=14;" parent="z5Srj0_W4YSiYPK0m8sV-293" vertex="1">
          <mxGeometry width="30" height="30" as="geometry">
            <mxRectangle width="30" height="30" as="alternateBounds" />
          </mxGeometry>
        </mxCell>
        <mxCell id="z5Srj0_W4YSiYPK0m8sV-295" value="Nome" style="shape=partialRectangle;connectable=0;fillColor=none;top=0;left=0;bottom=0;right=0;align=center;spacingLeft=6;overflow=hidden;whiteSpace=wrap;html=1;fontStyle=1;fontSize=14;" parent="z5Srj0_W4YSiYPK0m8sV-293" vertex="1">
          <mxGeometry x="30" width="160" height="30" as="geometry">
            <mxRectangle width="160" height="30" as="alternateBounds" />
          </mxGeometry>
        </mxCell>
        <mxCell id="wo0TMsI5rG442XAfvcZ0-163" value="Humano" style="shape=partialRectangle;connectable=0;fillColor=none;top=0;left=0;bottom=0;right=0;align=center;spacingLeft=6;overflow=hidden;whiteSpace=wrap;html=1;fontStyle=1;fontSize=14;" parent="z5Srj0_W4YSiYPK0m8sV-293" vertex="1">
          <mxGeometry x="190" width="140" height="30" as="geometry">
            <mxRectangle width="140" height="30" as="alternateBounds" />
          </mxGeometry>
        </mxCell>
        <mxCell id="wo0TMsI5rG442XAfvcZ0-170" value="Orc" style="shape=partialRectangle;connectable=0;fillColor=none;top=0;left=0;bottom=0;right=0;align=center;spacingLeft=6;overflow=hidden;whiteSpace=wrap;html=1;fontStyle=1;fontSize=14;" parent="z5Srj0_W4YSiYPK0m8sV-293" vertex="1">
          <mxGeometry x="330" width="150" height="30" as="geometry">
            <mxRectangle width="150" height="30" as="alternateBounds" />
          </mxGeometry>
        </mxCell>
        <mxCell id="wo0TMsI5rG442XAfvcZ0-177" value="Centauro" style="shape=partialRectangle;connectable=0;fillColor=none;top=0;left=0;bottom=0;right=0;align=center;spacingLeft=6;overflow=hidden;whiteSpace=wrap;html=1;fontStyle=1;fontSize=14;" parent="z5Srj0_W4YSiYPK0m8sV-293" vertex="1">
          <mxGeometry x="480" width="150" height="30" as="geometry">
            <mxRectangle width="150" height="30" as="alternateBounds" />
          </mxGeometry>
        </mxCell>
        <mxCell id="wo0TMsI5rG442XAfvcZ0-184" value="Elfo" style="shape=partialRectangle;connectable=0;fillColor=none;top=0;left=0;bottom=0;right=0;align=center;spacingLeft=6;overflow=hidden;whiteSpace=wrap;html=1;fontStyle=1;fontSize=14;" parent="z5Srj0_W4YSiYPK0m8sV-293" vertex="1">
          <mxGeometry x="630" width="150" height="30" as="geometry">
            <mxRectangle width="150" height="30" as="alternateBounds" />
          </mxGeometry>
        </mxCell>
        <mxCell id="wo0TMsI5rG442XAfvcZ0-191" value="Goblin" style="shape=partialRectangle;connectable=0;fillColor=none;top=0;left=0;bottom=0;right=0;align=center;spacingLeft=6;overflow=hidden;whiteSpace=wrap;html=1;fontStyle=1;fontSize=14;" parent="z5Srj0_W4YSiYPK0m8sV-293" vertex="1">
          <mxGeometry x="780" width="150" height="30" as="geometry">
            <mxRectangle width="150" height="30" as="alternateBounds" />
          </mxGeometry>
        </mxCell>
        <mxCell id="wo0TMsI5rG442XAfvcZ0-198" value="AnÃ£o" style="shape=partialRectangle;connectable=0;fillColor=none;top=0;left=0;bottom=0;right=0;align=center;spacingLeft=6;overflow=hidden;whiteSpace=wrap;html=1;fontStyle=1;fontSize=14;" parent="z5Srj0_W4YSiYPK0m8sV-293" vertex="1">
          <mxGeometry x="930" width="150" height="30" as="geometry">
            <mxRectangle width="150" height="30" as="alternateBounds" />
          </mxGeometry>
        </mxCell>
        <mxCell id="wo0TMsI5rG442XAfvcZ0-270" style="shape=tableRow;horizontal=0;startSize=0;swimlaneHead=0;swimlaneBody=0;fillColor=none;collapsible=0;dropTarget=0;points=[[0,0.5],[1,0.5]];portConstraint=eastwest;top=0;left=0;right=0;bottom=0;align=center;fontStyle=1;fontSize=14;" parent="z5Srj0_W4YSiYPK0m8sV-289" vertex="1">
          <mxGeometry y="90" width="1080" height="30" as="geometry" />
        </mxCell>
        <mxCell id="wo0TMsI5rG442XAfvcZ0-271" style="shape=partialRectangle;connectable=0;fillColor=none;top=0;left=0;bottom=0;right=0;editable=1;overflow=hidden;whiteSpace=wrap;html=1;align=center;fontStyle=1;fontSize=14;" parent="wo0TMsI5rG442XAfvcZ0-270" vertex="1">
          <mxGeometry width="30" height="30" as="geometry">
            <mxRectangle width="30" height="30" as="alternateBounds" />
          </mxGeometry>
        </mxCell>
        <mxCell id="wo0TMsI5rG442XAfvcZ0-272" value="Arma Longa Distancia" style="shape=partialRectangle;connectable=0;fillColor=none;top=0;left=0;bottom=0;right=0;align=center;spacingLeft=6;overflow=hidden;whiteSpace=wrap;html=1;fontStyle=1;fontSize=14;" parent="wo0TMsI5rG442XAfvcZ0-270" vertex="1">
          <mxGeometry x="30" width="160" height="30" as="geometry">
            <mxRectangle width="160" height="30" as="alternateBounds" />
          </mxGeometry>
        </mxCell>
        <mxCell id="wo0TMsI5rG442XAfvcZ0-273" value="6/10" style="shape=partialRectangle;connectable=0;fillColor=none;top=0;left=0;bottom=0;right=0;align=center;spacingLeft=6;overflow=hidden;whiteSpace=wrap;html=1;fontStyle=1;fontSize=14;" parent="wo0TMsI5rG442XAfvcZ0-270" vertex="1">
          <mxGeometry x="190" width="140" height="30" as="geometry">
            <mxRectangle width="140" height="30" as="alternateBounds" />
          </mxGeometry>
        </mxCell>
        <mxCell id="wo0TMsI5rG442XAfvcZ0-274" value="2/10" style="shape=partialRectangle;connectable=0;fillColor=none;top=0;left=0;bottom=0;right=0;align=center;spacingLeft=6;overflow=hidden;whiteSpace=wrap;html=1;fontStyle=1;fontSize=14;" parent="wo0TMsI5rG442XAfvcZ0-270" vertex="1">
          <mxGeometry x="330" width="150" height="30" as="geometry">
            <mxRectangle width="150" height="30" as="alternateBounds" />
          </mxGeometry>
        </mxCell>
        <mxCell id="wo0TMsI5rG442XAfvcZ0-275" value="9/10" style="shape=partialRectangle;connectable=0;fillColor=none;top=0;left=0;bottom=0;right=0;align=center;spacingLeft=6;overflow=hidden;whiteSpace=wrap;html=1;fontStyle=1;fontSize=14;" parent="wo0TMsI5rG442XAfvcZ0-270" vertex="1">
          <mxGeometry x="480" width="150" height="30" as="geometry">
            <mxRectangle width="150" height="30" as="alternateBounds" />
          </mxGeometry>
        </mxCell>
        <mxCell id="wo0TMsI5rG442XAfvcZ0-276" value="10/10" style="shape=partialRectangle;connectable=0;fillColor=none;top=0;left=0;bottom=0;right=0;align=center;spacingLeft=6;overflow=hidden;whiteSpace=wrap;html=1;fontStyle=1;fontSize=14;" parent="wo0TMsI5rG442XAfvcZ0-270" vertex="1">
          <mxGeometry x="630" width="150" height="30" as="geometry">
            <mxRectangle width="150" height="30" as="alternateBounds" />
          </mxGeometry>
        </mxCell>
        <mxCell id="wo0TMsI5rG442XAfvcZ0-277" value="6/10" style="shape=partialRectangle;connectable=0;fillColor=none;top=0;left=0;bottom=0;right=0;align=center;spacingLeft=6;overflow=hidden;whiteSpace=wrap;html=1;fontStyle=1;fontSize=14;" parent="wo0TMsI5rG442XAfvcZ0-270" vertex="1">
          <mxGeometry x="780" width="150" height="30" as="geometry">
            <mxRectangle width="150" height="30" as="alternateBounds" />
          </mxGeometry>
        </mxCell>
        <mxCell id="wo0TMsI5rG442XAfvcZ0-278" value="5/10" style="shape=partialRectangle;connectable=0;fillColor=none;top=0;left=0;bottom=0;right=0;align=center;spacingLeft=6;overflow=hidden;whiteSpace=wrap;html=1;fontStyle=1;fontSize=14;" parent="wo0TMsI5rG442XAfvcZ0-270" vertex="1">
          <mxGeometry x="930" width="150" height="30" as="geometry">
            <mxRectangle width="150" height="30" as="alternateBounds" />
          </mxGeometry>
        </mxCell>
        <mxCell id="wo0TMsI5rG442XAfvcZ0-279" style="shape=tableRow;horizontal=0;startSize=0;swimlaneHead=0;swimlaneBody=0;fillColor=none;collapsible=0;dropTarget=0;points=[[0,0.5],[1,0.5]];portConstraint=eastwest;top=0;left=0;right=0;bottom=0;align=center;fontStyle=1;fontSize=14;" parent="z5Srj0_W4YSiYPK0m8sV-289" vertex="1">
          <mxGeometry y="120" width="1080" height="30" as="geometry" />
        </mxCell>
        <mxCell id="wo0TMsI5rG442XAfvcZ0-280" style="shape=partialRectangle;connectable=0;fillColor=none;top=0;left=0;bottom=0;right=0;editable=1;overflow=hidden;whiteSpace=wrap;html=1;align=center;fontStyle=1;fontSize=14;" parent="wo0TMsI5rG442XAfvcZ0-279" vertex="1">
          <mxGeometry width="30" height="30" as="geometry">
            <mxRectangle width="30" height="30" as="alternateBounds" />
          </mxGeometry>
        </mxCell>
        <mxCell id="wo0TMsI5rG442XAfvcZ0-281" value="Magia" style="shape=partialRectangle;connectable=0;fillColor=none;top=0;left=0;bottom=0;right=0;align=center;spacingLeft=6;overflow=hidden;whiteSpace=wrap;html=1;fontStyle=1;fontSize=14;" parent="wo0TMsI5rG442XAfvcZ0-279" vertex="1">
          <mxGeometry x="30" width="160" height="30" as="geometry">
            <mxRectangle width="160" height="30" as="alternateBounds" />
          </mxGeometry>
        </mxCell>
        <mxCell id="wo0TMsI5rG442XAfvcZ0-282" value="9/10" style="shape=partialRectangle;connectable=0;fillColor=none;top=0;left=0;bottom=0;right=0;align=center;spacingLeft=6;overflow=hidden;whiteSpace=wrap;html=1;fontStyle=1;fontSize=14;" parent="wo0TMsI5rG442XAfvcZ0-279" vertex="1">
          <mxGeometry x="190" width="140" height="30" as="geometry">
            <mxRectangle width="140" height="30" as="alternateBounds" />
          </mxGeometry>
        </mxCell>
        <mxCell id="wo0TMsI5rG442XAfvcZ0-283" value="1/10" style="shape=partialRectangle;connectable=0;fillColor=none;top=0;left=0;bottom=0;right=0;align=center;spacingLeft=6;overflow=hidden;whiteSpace=wrap;html=1;fontStyle=1;fontSize=14;" parent="wo0TMsI5rG442XAfvcZ0-279" vertex="1">
          <mxGeometry x="330" width="150" height="30" as="geometry">
            <mxRectangle width="150" height="30" as="alternateBounds" />
          </mxGeometry>
        </mxCell>
        <mxCell id="wo0TMsI5rG442XAfvcZ0-284" value="3/10" style="shape=partialRectangle;connectable=0;fillColor=none;top=0;left=0;bottom=0;right=0;align=center;spacingLeft=6;overflow=hidden;whiteSpace=wrap;html=1;fontStyle=1;fontSize=14;" parent="wo0TMsI5rG442XAfvcZ0-279" vertex="1">
          <mxGeometry x="480" width="150" height="30" as="geometry">
            <mxRectangle width="150" height="30" as="alternateBounds" />
          </mxGeometry>
        </mxCell>
        <mxCell id="wo0TMsI5rG442XAfvcZ0-285" value="8/10" style="shape=partialRectangle;connectable=0;fillColor=none;top=0;left=0;bottom=0;right=0;align=center;spacingLeft=6;overflow=hidden;whiteSpace=wrap;html=1;fontStyle=1;fontSize=14;" parent="wo0TMsI5rG442XAfvcZ0-279" vertex="1">
          <mxGeometry x="630" width="150" height="30" as="geometry">
            <mxRectangle width="150" height="30" as="alternateBounds" />
          </mxGeometry>
        </mxCell>
        <mxCell id="wo0TMsI5rG442XAfvcZ0-286" value="7/10" style="shape=partialRectangle;connectable=0;fillColor=none;top=0;left=0;bottom=0;right=0;align=center;spacingLeft=6;overflow=hidden;whiteSpace=wrap;html=1;fontStyle=1;fontSize=14;" parent="wo0TMsI5rG442XAfvcZ0-279" vertex="1">
          <mxGeometry x="780" width="150" height="30" as="geometry">
            <mxRectangle width="150" height="30" as="alternateBounds" />
          </mxGeometry>
        </mxCell>
        <mxCell id="wo0TMsI5rG442XAfvcZ0-287" value="3/10" style="shape=partialRectangle;connectable=0;fillColor=none;top=0;left=0;bottom=0;right=0;align=center;spacingLeft=6;overflow=hidden;whiteSpace=wrap;html=1;fontStyle=1;fontSize=14;" parent="wo0TMsI5rG442XAfvcZ0-279" vertex="1">
          <mxGeometry x="930" width="150" height="30" as="geometry">
            <mxRectangle width="150" height="30" as="alternateBounds" />
          </mxGeometry>
        </mxCell>
        <mxCell id="wo0TMsI5rG442XAfvcZ0-288" style="shape=tableRow;horizontal=0;startSize=0;swimlaneHead=0;swimlaneBody=0;fillColor=none;collapsible=0;dropTarget=0;points=[[0,0.5],[1,0.5]];portConstraint=eastwest;top=0;left=0;right=0;bottom=0;align=center;fontStyle=1;fontSize=14;" parent="z5Srj0_W4YSiYPK0m8sV-289" vertex="1">
          <mxGeometry y="150" width="1080" height="30" as="geometry" />
        </mxCell>
        <mxCell id="wo0TMsI5rG442XAfvcZ0-289" style="shape=partialRectangle;connectable=0;fillColor=none;top=0;left=0;bottom=0;right=0;editable=1;overflow=hidden;whiteSpace=wrap;html=1;align=center;fontStyle=1;fontSize=14;" parent="wo0TMsI5rG442XAfvcZ0-288" vertex="1">
          <mxGeometry width="30" height="30" as="geometry">
            <mxRectangle width="30" height="30" as="alternateBounds" />
          </mxGeometry>
        </mxCell>
        <mxCell id="wo0TMsI5rG442XAfvcZ0-290" value="Arma Pesada" style="shape=partialRectangle;connectable=0;fillColor=none;top=0;left=0;bottom=0;right=0;align=center;spacingLeft=6;overflow=hidden;whiteSpace=wrap;html=1;fontStyle=1;fontSize=14;" parent="wo0TMsI5rG442XAfvcZ0-288" vertex="1">
          <mxGeometry x="30" width="160" height="30" as="geometry">
            <mxRectangle width="160" height="30" as="alternateBounds" />
          </mxGeometry>
        </mxCell>
        <mxCell id="wo0TMsI5rG442XAfvcZ0-291" value="3/10" style="shape=partialRectangle;connectable=0;fillColor=none;top=0;left=0;bottom=0;right=0;align=center;spacingLeft=6;overflow=hidden;whiteSpace=wrap;html=1;fontStyle=1;fontSize=14;" parent="wo0TMsI5rG442XAfvcZ0-288" vertex="1">
          <mxGeometry x="190" width="140" height="30" as="geometry">
            <mxRectangle width="140" height="30" as="alternateBounds" />
          </mxGeometry>
        </mxCell>
        <mxCell id="wo0TMsI5rG442XAfvcZ0-292" value="10/10" style="shape=partialRectangle;connectable=0;fillColor=none;top=0;left=0;bottom=0;right=0;align=center;spacingLeft=6;overflow=hidden;whiteSpace=wrap;html=1;fontStyle=1;fontSize=14;" parent="wo0TMsI5rG442XAfvcZ0-288" vertex="1">
          <mxGeometry x="330" width="150" height="30" as="geometry">
            <mxRectangle width="150" height="30" as="alternateBounds" />
          </mxGeometry>
        </mxCell>
        <mxCell id="wo0TMsI5rG442XAfvcZ0-293" value="4/10" style="shape=partialRectangle;connectable=0;fillColor=none;top=0;left=0;bottom=0;right=0;align=center;spacingLeft=6;overflow=hidden;whiteSpace=wrap;html=1;fontStyle=1;fontSize=14;" parent="wo0TMsI5rG442XAfvcZ0-288" vertex="1">
          <mxGeometry x="480" width="150" height="30" as="geometry">
            <mxRectangle width="150" height="30" as="alternateBounds" />
          </mxGeometry>
        </mxCell>
        <mxCell id="wo0TMsI5rG442XAfvcZ0-294" value="2/10" style="shape=partialRectangle;connectable=0;fillColor=none;top=0;left=0;bottom=0;right=0;align=center;spacingLeft=6;overflow=hidden;whiteSpace=wrap;html=1;fontStyle=1;fontSize=14;" parent="wo0TMsI5rG442XAfvcZ0-288" vertex="1">
          <mxGeometry x="630" width="150" height="30" as="geometry">
            <mxRectangle width="150" height="30" as="alternateBounds" />
          </mxGeometry>
        </mxCell>
        <mxCell id="wo0TMsI5rG442XAfvcZ0-295" value="1/10" style="shape=partialRectangle;connectable=0;fillColor=none;top=0;left=0;bottom=0;right=0;align=center;spacingLeft=6;overflow=hidden;whiteSpace=wrap;html=1;fontStyle=1;fontSize=14;" parent="wo0TMsI5rG442XAfvcZ0-288" vertex="1">
          <mxGeometry x="780" width="150" height="30" as="geometry">
            <mxRectangle width="150" height="30" as="alternateBounds" />
          </mxGeometry>
        </mxCell>
        <mxCell id="wo0TMsI5rG442XAfvcZ0-296" value="6/10" style="shape=partialRectangle;connectable=0;fillColor=none;top=0;left=0;bottom=0;right=0;align=center;spacingLeft=6;overflow=hidden;whiteSpace=wrap;html=1;fontStyle=1;fontSize=14;" parent="wo0TMsI5rG442XAfvcZ0-288" vertex="1">
          <mxGeometry x="930" width="150" height="30" as="geometry">
            <mxRectangle width="150" height="30" as="alternateBounds" />
          </mxGeometry>
        </mxCell>
        <mxCell id="wo0TMsI5rG442XAfvcZ0-297" style="shape=tableRow;horizontal=0;startSize=0;swimlaneHead=0;swimlaneBody=0;fillColor=none;collapsible=0;dropTarget=0;points=[[0,0.5],[1,0.5]];portConstraint=eastwest;top=0;left=0;right=0;bottom=0;align=center;fontStyle=1;fontSize=14;" parent="z5Srj0_W4YSiYPK0m8sV-289" vertex="1">
          <mxGeometry y="180" width="1080" height="30" as="geometry" />
        </mxCell>
        <mxCell id="wo0TMsI5rG442XAfvcZ0-298" style="shape=partialRectangle;connectable=0;fillColor=none;top=0;left=0;bottom=0;right=0;editable=1;overflow=hidden;whiteSpace=wrap;html=1;align=center;fontStyle=1;fontSize=14;" parent="wo0TMsI5rG442XAfvcZ0-297" vertex="1">
          <mxGeometry width="30" height="30" as="geometry">
            <mxRectangle width="30" height="30" as="alternateBounds" />
          </mxGeometry>
        </mxCell>
        <mxCell id="wo0TMsI5rG442XAfvcZ0-299" value="Arma Leve" style="shape=partialRectangle;connectable=0;fillColor=none;top=0;left=0;bottom=0;right=0;align=center;spacingLeft=6;overflow=hidden;whiteSpace=wrap;html=1;fontStyle=1;fontSize=14;" parent="wo0TMsI5rG442XAfvcZ0-297" vertex="1">
          <mxGeometry x="30" width="160" height="30" as="geometry">
            <mxRectangle width="160" height="30" as="alternateBounds" />
          </mxGeometry>
        </mxCell>
        <mxCell id="wo0TMsI5rG442XAfvcZ0-300" value="8/10" style="shape=partialRectangle;connectable=0;fillColor=none;top=0;left=0;bottom=0;right=0;align=center;spacingLeft=6;overflow=hidden;whiteSpace=wrap;html=1;fontStyle=1;fontSize=14;" parent="wo0TMsI5rG442XAfvcZ0-297" vertex="1">
          <mxGeometry x="190" width="140" height="30" as="geometry">
            <mxRectangle width="140" height="30" as="alternateBounds" />
          </mxGeometry>
        </mxCell>
        <mxCell id="wo0TMsI5rG442XAfvcZ0-301" value="6/10" style="shape=partialRectangle;connectable=0;fillColor=none;top=0;left=0;bottom=0;right=0;align=center;spacingLeft=6;overflow=hidden;whiteSpace=wrap;html=1;fontStyle=1;fontSize=14;" parent="wo0TMsI5rG442XAfvcZ0-297" vertex="1">
          <mxGeometry x="330" width="150" height="30" as="geometry">
            <mxRectangle width="150" height="30" as="alternateBounds" />
          </mxGeometry>
        </mxCell>
        <mxCell id="wo0TMsI5rG442XAfvcZ0-302" value="8/10" style="shape=partialRectangle;connectable=0;fillColor=none;top=0;left=0;bottom=0;right=0;align=center;spacingLeft=6;overflow=hidden;whiteSpace=wrap;html=1;fontStyle=1;fontSize=14;" parent="wo0TMsI5rG442XAfvcZ0-297" vertex="1">
          <mxGeometry x="480" width="150" height="30" as="geometry">
            <mxRectangle width="150" height="30" as="alternateBounds" />
          </mxGeometry>
        </mxCell>
        <mxCell id="wo0TMsI5rG442XAfvcZ0-303" value="10/10" style="shape=partialRectangle;connectable=0;fillColor=none;top=0;left=0;bottom=0;right=0;align=center;spacingLeft=6;overflow=hidden;whiteSpace=wrap;html=1;fontStyle=1;fontSize=14;" parent="wo0TMsI5rG442XAfvcZ0-297" vertex="1">
          <mxGeometry x="630" width="150" height="30" as="geometry">
            <mxRectangle width="150" height="30" as="alternateBounds" />
          </mxGeometry>
        </mxCell>
        <mxCell id="wo0TMsI5rG442XAfvcZ0-304" value="10/10" style="shape=partialRectangle;connectable=0;fillColor=none;top=0;left=0;bottom=0;right=0;align=center;spacingLeft=6;overflow=hidden;whiteSpace=wrap;html=1;fontStyle=1;fontSize=14;" parent="wo0TMsI5rG442XAfvcZ0-297" vertex="1">
          <mxGeometry x="780" width="150" height="30" as="geometry">
            <mxRectangle width="150" height="30" as="alternateBounds" />
          </mxGeometry>
        </mxCell>
        <mxCell id="wo0TMsI5rG442XAfvcZ0-305" value="6/10" style="shape=partialRectangle;connectable=0;fillColor=none;top=0;left=0;bottom=0;right=0;align=center;spacingLeft=6;overflow=hidden;whiteSpace=wrap;html=1;fontStyle=1;fontSize=14;" parent="wo0TMsI5rG442XAfvcZ0-297" vertex="1">
          <mxGeometry x="930" width="150" height="30" as="geometry">
            <mxRectangle width="150" height="30" as="alternateBounds" />
          </mxGeometry>
        </mxCell>
        <mxCell id="z5Srj0_W4YSiYPK0m8sV-296" value="" style="shape=tableRow;horizontal=0;startSize=0;swimlaneHead=0;swimlaneBody=0;fillColor=none;collapsible=0;dropTarget=0;points=[[0,0.5],[1,0.5]];portConstraint=eastwest;top=0;left=0;right=0;bottom=0;align=center;fontStyle=1;fontSize=14;" parent="z5Srj0_W4YSiYPK0m8sV-289" vertex="1">
          <mxGeometry y="210" width="1080" height="30" as="geometry" />
        </mxCell>
        <mxCell id="z5Srj0_W4YSiYPK0m8sV-297" value="" style="shape=partialRectangle;connectable=0;fillColor=none;top=0;left=0;bottom=0;right=0;editable=1;overflow=hidden;whiteSpace=wrap;html=1;align=center;fontStyle=1;fontSize=14;" parent="z5Srj0_W4YSiYPK0m8sV-296" vertex="1">
          <mxGeometry width="30" height="30" as="geometry">
            <mxRectangle width="30" height="30" as="alternateBounds" />
          </mxGeometry>
        </mxCell>
        <mxCell id="z5Srj0_W4YSiYPK0m8sV-298" value="InteligÃªncia" style="shape=partialRectangle;connectable=0;fillColor=none;top=0;left=0;bottom=0;right=0;align=center;spacingLeft=6;overflow=hidden;whiteSpace=wrap;html=1;fontStyle=1;fontSize=14;" parent="z5Srj0_W4YSiYPK0m8sV-296" vertex="1">
          <mxGeometry x="30" width="160" height="30" as="geometry">
            <mxRectangle width="160" height="30" as="alternateBounds" />
          </mxGeometry>
        </mxCell>
        <mxCell id="wo0TMsI5rG442XAfvcZ0-164" value="10/10" style="shape=partialRectangle;connectable=0;fillColor=none;top=0;left=0;bottom=0;right=0;align=center;spacingLeft=6;overflow=hidden;whiteSpace=wrap;html=1;fontStyle=1;fontSize=14;" parent="z5Srj0_W4YSiYPK0m8sV-296" vertex="1">
          <mxGeometry x="190" width="140" height="30" as="geometry">
            <mxRectangle width="140" height="30" as="alternateBounds" />
          </mxGeometry>
        </mxCell>
        <mxCell id="wo0TMsI5rG442XAfvcZ0-171" value="5/10" style="shape=partialRectangle;connectable=0;fillColor=none;top=0;left=0;bottom=0;right=0;align=center;spacingLeft=6;overflow=hidden;whiteSpace=wrap;html=1;fontStyle=1;fontSize=14;" parent="z5Srj0_W4YSiYPK0m8sV-296" vertex="1">
          <mxGeometry x="330" width="150" height="30" as="geometry">
            <mxRectangle width="150" height="30" as="alternateBounds" />
          </mxGeometry>
        </mxCell>
        <mxCell id="wo0TMsI5rG442XAfvcZ0-178" value="9/10" style="shape=partialRectangle;connectable=0;fillColor=none;top=0;left=0;bottom=0;right=0;align=center;spacingLeft=6;overflow=hidden;whiteSpace=wrap;html=1;fontStyle=1;fontSize=14;" parent="z5Srj0_W4YSiYPK0m8sV-296" vertex="1">
          <mxGeometry x="480" width="150" height="30" as="geometry">
            <mxRectangle width="150" height="30" as="alternateBounds" />
          </mxGeometry>
        </mxCell>
        <mxCell id="wo0TMsI5rG442XAfvcZ0-185" value="10/10" style="shape=partialRectangle;connectable=0;fillColor=none;top=0;left=0;bottom=0;right=0;align=center;spacingLeft=6;overflow=hidden;whiteSpace=wrap;html=1;fontStyle=1;fontSize=14;" parent="z5Srj0_W4YSiYPK0m8sV-296" vertex="1">
          <mxGeometry x="630" width="150" height="30" as="geometry">
            <mxRectangle width="150" height="30" as="alternateBounds" />
          </mxGeometry>
        </mxCell>
        <mxCell id="wo0TMsI5rG442XAfvcZ0-192" value="6/10" style="shape=partialRectangle;connectable=0;fillColor=none;top=0;left=0;bottom=0;right=0;align=center;spacingLeft=6;overflow=hidden;whiteSpace=wrap;html=1;fontStyle=1;fontSize=14;" parent="z5Srj0_W4YSiYPK0m8sV-296" vertex="1">
          <mxGeometry x="780" width="150" height="30" as="geometry">
            <mxRectangle width="150" height="30" as="alternateBounds" />
          </mxGeometry>
        </mxCell>
        <mxCell id="wo0TMsI5rG442XAfvcZ0-199" value="9/10" style="shape=partialRectangle;connectable=0;fillColor=none;top=0;left=0;bottom=0;right=0;align=center;spacingLeft=6;overflow=hidden;whiteSpace=wrap;html=1;fontStyle=1;fontSize=14;" parent="z5Srj0_W4YSiYPK0m8sV-296" vertex="1">
          <mxGeometry x="930" width="150" height="30" as="geometry">
            <mxRectangle width="150" height="30" as="alternateBounds" />
          </mxGeometry>
        </mxCell>
        <mxCell id="z5Srj0_W4YSiYPK0m8sV-302" style="shape=tableRow;horizontal=0;startSize=0;swimlaneHead=0;swimlaneBody=0;fillColor=none;collapsible=0;dropTarget=0;points=[[0,0.5],[1,0.5]];portConstraint=eastwest;top=0;left=0;right=0;bottom=0;align=center;fontStyle=1;fontSize=14;" parent="z5Srj0_W4YSiYPK0m8sV-289" vertex="1">
          <mxGeometry y="240" width="1080" height="30" as="geometry" />
        </mxCell>
        <mxCell id="z5Srj0_W4YSiYPK0m8sV-303" style="shape=partialRectangle;connectable=0;fillColor=none;top=0;left=0;bottom=0;right=0;editable=1;overflow=hidden;whiteSpace=wrap;html=1;align=center;fontStyle=1;fontSize=14;" parent="z5Srj0_W4YSiYPK0m8sV-302" vertex="1">
          <mxGeometry width="30" height="30" as="geometry">
            <mxRectangle width="30" height="30" as="alternateBounds" />
          </mxGeometry>
        </mxCell>
        <mxCell id="z5Srj0_W4YSiYPK0m8sV-304" value="ForÃ§a" style="shape=partialRectangle;connectable=0;fillColor=none;top=0;left=0;bottom=0;right=0;align=center;spacingLeft=6;overflow=hidden;whiteSpace=wrap;html=1;fontStyle=1;fontSize=14;" parent="z5Srj0_W4YSiYPK0m8sV-302" vertex="1">
          <mxGeometry x="30" width="160" height="30" as="geometry">
            <mxRectangle width="160" height="30" as="alternateBounds" />
          </mxGeometry>
        </mxCell>
        <mxCell id="wo0TMsI5rG442XAfvcZ0-166" value="51" style="shape=partialRectangle;connectable=0;fillColor=none;top=0;left=0;bottom=0;right=0;align=center;spacingLeft=6;overflow=hidden;whiteSpace=wrap;html=1;fontStyle=1;fontSize=14;" parent="z5Srj0_W4YSiYPK0m8sV-302" vertex="1">
          <mxGeometry x="190" width="140" height="30" as="geometry">
            <mxRectangle width="140" height="30" as="alternateBounds" />
          </mxGeometry>
        </mxCell>
        <mxCell id="wo0TMsI5rG442XAfvcZ0-173" value="10/10" style="shape=partialRectangle;connectable=0;fillColor=none;top=0;left=0;bottom=0;right=0;align=center;spacingLeft=6;overflow=hidden;whiteSpace=wrap;html=1;fontStyle=1;fontSize=14;" parent="z5Srj0_W4YSiYPK0m8sV-302" vertex="1">
          <mxGeometry x="330" width="150" height="30" as="geometry">
            <mxRectangle width="150" height="30" as="alternateBounds" />
          </mxGeometry>
        </mxCell>
        <mxCell id="wo0TMsI5rG442XAfvcZ0-180" value="6/10" style="shape=partialRectangle;connectable=0;fillColor=none;top=0;left=0;bottom=0;right=0;align=center;spacingLeft=6;overflow=hidden;whiteSpace=wrap;html=1;fontStyle=1;fontSize=14;" parent="z5Srj0_W4YSiYPK0m8sV-302" vertex="1">
          <mxGeometry x="480" width="150" height="30" as="geometry">
            <mxRectangle width="150" height="30" as="alternateBounds" />
          </mxGeometry>
        </mxCell>
        <mxCell id="wo0TMsI5rG442XAfvcZ0-187" value="4/10" style="shape=partialRectangle;connectable=0;fillColor=none;top=0;left=0;bottom=0;right=0;align=center;spacingLeft=6;overflow=hidden;whiteSpace=wrap;html=1;fontStyle=1;fontSize=14;" parent="z5Srj0_W4YSiYPK0m8sV-302" vertex="1">
          <mxGeometry x="630" width="150" height="30" as="geometry">
            <mxRectangle width="150" height="30" as="alternateBounds" />
          </mxGeometry>
        </mxCell>
        <mxCell id="wo0TMsI5rG442XAfvcZ0-194" value="3/10" style="shape=partialRectangle;connectable=0;fillColor=none;top=0;left=0;bottom=0;right=0;align=center;spacingLeft=6;overflow=hidden;whiteSpace=wrap;html=1;fontStyle=1;fontSize=14;" parent="z5Srj0_W4YSiYPK0m8sV-302" vertex="1">
          <mxGeometry x="780" width="150" height="30" as="geometry">
            <mxRectangle width="150" height="30" as="alternateBounds" />
          </mxGeometry>
        </mxCell>
        <mxCell id="wo0TMsI5rG442XAfvcZ0-201" value="6/10" style="shape=partialRectangle;connectable=0;fillColor=none;top=0;left=0;bottom=0;right=0;align=center;spacingLeft=6;overflow=hidden;whiteSpace=wrap;html=1;fontStyle=1;fontSize=14;" parent="z5Srj0_W4YSiYPK0m8sV-302" vertex="1">
          <mxGeometry x="930" width="150" height="30" as="geometry">
            <mxRectangle width="150" height="30" as="alternateBounds" />
          </mxGeometry>
        </mxCell>
        <mxCell id="z5Srj0_W4YSiYPK0m8sV-305" style="shape=tableRow;horizontal=0;startSize=0;swimlaneHead=0;swimlaneBody=0;fillColor=none;collapsible=0;dropTarget=0;points=[[0,0.5],[1,0.5]];portConstraint=eastwest;top=0;left=0;right=0;bottom=0;align=center;fontStyle=1;fontSize=14;" parent="z5Srj0_W4YSiYPK0m8sV-289" vertex="1">
          <mxGeometry y="270" width="1080" height="30" as="geometry" />
        </mxCell>
        <mxCell id="z5Srj0_W4YSiYPK0m8sV-306" style="shape=partialRectangle;connectable=0;fillColor=none;top=0;left=0;bottom=0;right=0;editable=1;overflow=hidden;whiteSpace=wrap;html=1;align=center;fontStyle=1;fontSize=14;" parent="z5Srj0_W4YSiYPK0m8sV-305" vertex="1">
          <mxGeometry width="30" height="30" as="geometry">
            <mxRectangle width="30" height="30" as="alternateBounds" />
          </mxGeometry>
        </mxCell>
        <mxCell id="z5Srj0_W4YSiYPK0m8sV-307" value="Velocidade" style="shape=partialRectangle;connectable=0;fillColor=none;top=0;left=0;bottom=0;right=0;align=center;spacingLeft=6;overflow=hidden;whiteSpace=wrap;html=1;fontStyle=1;fontSize=14;" parent="z5Srj0_W4YSiYPK0m8sV-305" vertex="1">
          <mxGeometry x="30" width="160" height="30" as="geometry">
            <mxRectangle width="160" height="30" as="alternateBounds" />
          </mxGeometry>
        </mxCell>
        <mxCell id="wo0TMsI5rG442XAfvcZ0-167" value="6/10" style="shape=partialRectangle;connectable=0;fillColor=none;top=0;left=0;bottom=0;right=0;align=center;spacingLeft=6;overflow=hidden;whiteSpace=wrap;html=1;fontStyle=1;fontSize=14;" parent="z5Srj0_W4YSiYPK0m8sV-305" vertex="1">
          <mxGeometry x="190" width="140" height="30" as="geometry">
            <mxRectangle width="140" height="30" as="alternateBounds" />
          </mxGeometry>
        </mxCell>
        <mxCell id="wo0TMsI5rG442XAfvcZ0-174" value="4/10" style="shape=partialRectangle;connectable=0;fillColor=none;top=0;left=0;bottom=0;right=0;align=center;spacingLeft=6;overflow=hidden;whiteSpace=wrap;html=1;fontStyle=1;fontSize=14;" parent="z5Srj0_W4YSiYPK0m8sV-305" vertex="1">
          <mxGeometry x="330" width="150" height="30" as="geometry">
            <mxRectangle width="150" height="30" as="alternateBounds" />
          </mxGeometry>
        </mxCell>
        <mxCell id="wo0TMsI5rG442XAfvcZ0-181" value="10/10" style="shape=partialRectangle;connectable=0;fillColor=none;top=0;left=0;bottom=0;right=0;align=center;spacingLeft=6;overflow=hidden;whiteSpace=wrap;html=1;fontStyle=1;fontSize=14;" parent="z5Srj0_W4YSiYPK0m8sV-305" vertex="1">
          <mxGeometry x="480" width="150" height="30" as="geometry">
            <mxRectangle width="150" height="30" as="alternateBounds" />
          </mxGeometry>
        </mxCell>
        <mxCell id="wo0TMsI5rG442XAfvcZ0-188" value="7/10" style="shape=partialRectangle;connectable=0;fillColor=none;top=0;left=0;bottom=0;right=0;align=center;spacingLeft=6;overflow=hidden;whiteSpace=wrap;html=1;fontStyle=1;fontSize=14;" parent="z5Srj0_W4YSiYPK0m8sV-305" vertex="1">
          <mxGeometry x="630" width="150" height="30" as="geometry">
            <mxRectangle width="150" height="30" as="alternateBounds" />
          </mxGeometry>
        </mxCell>
        <mxCell id="wo0TMsI5rG442XAfvcZ0-195" value="7/10" style="shape=partialRectangle;connectable=0;fillColor=none;top=0;left=0;bottom=0;right=0;align=center;spacingLeft=6;overflow=hidden;whiteSpace=wrap;html=1;fontStyle=1;fontSize=14;" parent="z5Srj0_W4YSiYPK0m8sV-305" vertex="1">
          <mxGeometry x="780" width="150" height="30" as="geometry">
            <mxRectangle width="150" height="30" as="alternateBounds" />
          </mxGeometry>
        </mxCell>
        <mxCell id="wo0TMsI5rG442XAfvcZ0-202" value="3/10" style="shape=partialRectangle;connectable=0;fillColor=none;top=0;left=0;bottom=0;right=0;align=center;spacingLeft=6;overflow=hidden;whiteSpace=wrap;html=1;fontStyle=1;fontSize=14;" parent="z5Srj0_W4YSiYPK0m8sV-305" vertex="1">
          <mxGeometry x="930" width="150" height="30" as="geometry">
            <mxRectangle width="150" height="30" as="alternateBounds" />
          </mxGeometry>
        </mxCell>
        <mxCell id="z5Srj0_W4YSiYPK0m8sV-311" value="Inventario" style="shape=table;startSize=30;container=1;collapsible=1;childLayout=tableLayout;fixedRows=1;rowLines=0;fontStyle=1;align=center;resizeLast=1;html=1;whiteSpace=wrap;fontSize=14;" parent="1" vertex="1">
          <mxGeometry x="170" y="405" width="660" height="150" as="geometry" />
        </mxCell>
        <mxCell id="z5Srj0_W4YSiYPK0m8sV-330" style="shape=tableRow;horizontal=0;startSize=0;swimlaneHead=0;swimlaneBody=0;fillColor=none;collapsible=0;dropTarget=0;points=[[0,0.5],[1,0.5]];portConstraint=eastwest;top=0;left=0;right=0;bottom=0;html=1;fontStyle=1;align=center;fontSize=14;" parent="z5Srj0_W4YSiYPK0m8sV-311" vertex="1">
          <mxGeometry y="30" width="660" height="30" as="geometry" />
        </mxCell>
        <mxCell id="z5Srj0_W4YSiYPK0m8sV-331" value="PK" style="shape=partialRectangle;connectable=0;fillColor=none;top=0;left=0;bottom=0;right=0;fontStyle=1;overflow=hidden;html=1;whiteSpace=wrap;align=center;fontSize=14;" parent="z5Srj0_W4YSiYPK0m8sV-330" vertex="1">
          <mxGeometry width="60" height="30" as="geometry">
            <mxRectangle width="60" height="30" as="alternateBounds" />
          </mxGeometry>
        </mxCell>
        <mxCell id="z5Srj0_W4YSiYPK0m8sV-332" value="ID_inventario" style="shape=partialRectangle;connectable=0;fillColor=none;top=0;left=0;bottom=0;right=0;align=center;spacingLeft=6;fontStyle=5;overflow=hidden;html=1;whiteSpace=wrap;fontSize=14;" parent="z5Srj0_W4YSiYPK0m8sV-330" vertex="1">
          <mxGeometry x="60" width="120" height="30" as="geometry">
            <mxRectangle width="120" height="30" as="alternateBounds" />
          </mxGeometry>
        </mxCell>
        <mxCell id="wo0TMsI5rG442XAfvcZ0-333" value="01" style="shape=partialRectangle;connectable=0;fillColor=none;top=0;left=0;bottom=0;right=0;align=center;spacingLeft=6;fontStyle=5;overflow=hidden;html=1;whiteSpace=wrap;fontSize=14;" parent="z5Srj0_W4YSiYPK0m8sV-330" vertex="1">
          <mxGeometry x="180" width="120" height="30" as="geometry">
            <mxRectangle width="120" height="30" as="alternateBounds" />
          </mxGeometry>
        </mxCell>
        <mxCell id="wo0TMsI5rG442XAfvcZ0-337" value="02" style="shape=partialRectangle;connectable=0;fillColor=none;top=0;left=0;bottom=0;right=0;align=center;spacingLeft=6;fontStyle=5;overflow=hidden;html=1;whiteSpace=wrap;fontSize=14;" parent="z5Srj0_W4YSiYPK0m8sV-330" vertex="1">
          <mxGeometry x="300" width="120" height="30" as="geometry">
            <mxRectangle width="120" height="30" as="alternateBounds" />
          </mxGeometry>
        </mxCell>
        <mxCell id="wo0TMsI5rG442XAfvcZ0-341" value="03" style="shape=partialRectangle;connectable=0;fillColor=none;top=0;left=0;bottom=0;right=0;align=center;spacingLeft=6;fontStyle=5;overflow=hidden;html=1;whiteSpace=wrap;fontSize=14;" parent="z5Srj0_W4YSiYPK0m8sV-330" vertex="1">
          <mxGeometry x="420" width="120" height="30" as="geometry">
            <mxRectangle width="120" height="30" as="alternateBounds" />
          </mxGeometry>
        </mxCell>
        <mxCell id="wo0TMsI5rG442XAfvcZ0-345" value="04" style="shape=partialRectangle;connectable=0;fillColor=none;top=0;left=0;bottom=0;right=0;align=center;spacingLeft=6;fontStyle=5;overflow=hidden;html=1;whiteSpace=wrap;fontSize=14;" parent="z5Srj0_W4YSiYPK0m8sV-330" vertex="1">
          <mxGeometry x="540" width="120" height="30" as="geometry">
            <mxRectangle width="120" height="30" as="alternateBounds" />
          </mxGeometry>
        </mxCell>
        <mxCell id="z5Srj0_W4YSiYPK0m8sV-312" value="" style="shape=tableRow;horizontal=0;startSize=0;swimlaneHead=0;swimlaneBody=0;fillColor=none;collapsible=0;dropTarget=0;points=[[0,0.5],[1,0.5]];portConstraint=eastwest;top=0;left=0;right=0;bottom=0;html=1;fontStyle=1;align=center;fontSize=14;" parent="z5Srj0_W4YSiYPK0m8sV-311" vertex="1">
          <mxGeometry y="60" width="660" height="30" as="geometry" />
        </mxCell>
        <mxCell id="z5Srj0_W4YSiYPK0m8sV-313" value="FK" style="shape=partialRectangle;connectable=0;fillColor=none;top=0;left=0;bottom=0;right=0;fontStyle=1;overflow=hidden;html=1;whiteSpace=wrap;align=center;fontSize=14;" parent="z5Srj0_W4YSiYPK0m8sV-312" vertex="1">
          <mxGeometry width="60" height="30" as="geometry">
            <mxRectangle width="60" height="30" as="alternateBounds" />
          </mxGeometry>
        </mxCell>
        <mxCell id="z5Srj0_W4YSiYPK0m8sV-314" value="ID_item" style="shape=partialRectangle;connectable=0;fillColor=none;top=0;left=0;bottom=0;right=0;align=center;spacingLeft=6;fontStyle=5;overflow=hidden;html=1;whiteSpace=wrap;fontSize=14;" parent="z5Srj0_W4YSiYPK0m8sV-312" vertex="1">
          <mxGeometry x="60" width="120" height="30" as="geometry">
            <mxRectangle width="120" height="30" as="alternateBounds" />
          </mxGeometry>
        </mxCell>
        <mxCell id="wo0TMsI5rG442XAfvcZ0-334" value="02" style="shape=partialRectangle;connectable=0;fillColor=none;top=0;left=0;bottom=0;right=0;align=center;spacingLeft=6;fontStyle=5;overflow=hidden;html=1;whiteSpace=wrap;fontSize=14;" parent="z5Srj0_W4YSiYPK0m8sV-312" vertex="1">
          <mxGeometry x="180" width="120" height="30" as="geometry">
            <mxRectangle width="120" height="30" as="alternateBounds" />
          </mxGeometry>
        </mxCell>
        <mxCell id="wo0TMsI5rG442XAfvcZ0-338" value="01" style="shape=partialRectangle;connectable=0;fillColor=none;top=0;left=0;bottom=0;right=0;align=center;spacingLeft=6;fontStyle=5;overflow=hidden;html=1;whiteSpace=wrap;fontSize=14;" parent="z5Srj0_W4YSiYPK0m8sV-312" vertex="1">
          <mxGeometry x="300" width="120" height="30" as="geometry">
            <mxRectangle width="120" height="30" as="alternateBounds" />
          </mxGeometry>
        </mxCell>
        <mxCell id="wo0TMsI5rG442XAfvcZ0-342" value="01" style="shape=partialRectangle;connectable=0;fillColor=none;top=0;left=0;bottom=0;right=0;align=center;spacingLeft=6;fontStyle=5;overflow=hidden;html=1;whiteSpace=wrap;fontSize=14;" parent="z5Srj0_W4YSiYPK0m8sV-312" vertex="1">
          <mxGeometry x="420" width="120" height="30" as="geometry">
            <mxRectangle width="120" height="30" as="alternateBounds" />
          </mxGeometry>
        </mxCell>
        <mxCell id="wo0TMsI5rG442XAfvcZ0-346" value="06" style="shape=partialRectangle;connectable=0;fillColor=none;top=0;left=0;bottom=0;right=0;align=center;spacingLeft=6;fontStyle=5;overflow=hidden;html=1;whiteSpace=wrap;fontSize=14;" parent="z5Srj0_W4YSiYPK0m8sV-312" vertex="1">
          <mxGeometry x="540" width="120" height="30" as="geometry">
            <mxRectangle width="120" height="30" as="alternateBounds" />
          </mxGeometry>
        </mxCell>
        <mxCell id="z5Srj0_W4YSiYPK0m8sV-315" value="" style="shape=tableRow;horizontal=0;startSize=0;swimlaneHead=0;swimlaneBody=0;fillColor=none;collapsible=0;dropTarget=0;points=[[0,0.5],[1,0.5]];portConstraint=eastwest;top=0;left=0;right=0;bottom=1;html=1;fontStyle=1;align=center;fontSize=14;" parent="z5Srj0_W4YSiYPK0m8sV-311" vertex="1">
          <mxGeometry y="90" width="660" height="30" as="geometry" />
        </mxCell>
        <mxCell id="z5Srj0_W4YSiYPK0m8sV-316" value="FK" style="shape=partialRectangle;connectable=0;fillColor=none;top=0;left=0;bottom=0;right=0;fontStyle=1;overflow=hidden;html=1;whiteSpace=wrap;align=center;fontSize=14;" parent="z5Srj0_W4YSiYPK0m8sV-315" vertex="1">
          <mxGeometry width="60" height="30" as="geometry">
            <mxRectangle width="60" height="30" as="alternateBounds" />
          </mxGeometry>
        </mxCell>
        <mxCell id="z5Srj0_W4YSiYPK0m8sV-317" value="ID_personagem" style="shape=partialRectangle;connectable=0;fillColor=none;top=0;left=0;bottom=0;right=0;align=center;spacingLeft=6;fontStyle=5;overflow=hidden;html=1;whiteSpace=wrap;fontSize=14;" parent="z5Srj0_W4YSiYPK0m8sV-315" vertex="1">
          <mxGeometry x="60" width="120" height="30" as="geometry">
            <mxRectangle width="120" height="30" as="alternateBounds" />
          </mxGeometry>
        </mxCell>
        <mxCell id="wo0TMsI5rG442XAfvcZ0-335" value="03" style="shape=partialRectangle;connectable=0;fillColor=none;top=0;left=0;bottom=0;right=0;align=center;spacingLeft=6;fontStyle=5;overflow=hidden;html=1;whiteSpace=wrap;fontSize=14;" parent="z5Srj0_W4YSiYPK0m8sV-315" vertex="1">
          <mxGeometry x="180" width="120" height="30" as="geometry">
            <mxRectangle width="120" height="30" as="alternateBounds" />
          </mxGeometry>
        </mxCell>
        <mxCell id="wo0TMsI5rG442XAfvcZ0-339" value="03" style="shape=partialRectangle;connectable=0;fillColor=none;top=0;left=0;bottom=0;right=0;align=center;spacingLeft=6;fontStyle=5;overflow=hidden;html=1;whiteSpace=wrap;fontSize=14;" parent="z5Srj0_W4YSiYPK0m8sV-315" vertex="1">
          <mxGeometry x="300" width="120" height="30" as="geometry">
            <mxRectangle width="120" height="30" as="alternateBounds" />
          </mxGeometry>
        </mxCell>
        <mxCell id="wo0TMsI5rG442XAfvcZ0-343" value="02" style="shape=partialRectangle;connectable=0;fillColor=none;top=0;left=0;bottom=0;right=0;align=center;spacingLeft=6;fontStyle=5;overflow=hidden;html=1;whiteSpace=wrap;fontSize=14;" parent="z5Srj0_W4YSiYPK0m8sV-315" vertex="1">
          <mxGeometry x="420" width="120" height="30" as="geometry">
            <mxRectangle width="120" height="30" as="alternateBounds" />
          </mxGeometry>
        </mxCell>
        <mxCell id="wo0TMsI5rG442XAfvcZ0-347" value="02" style="shape=partialRectangle;connectable=0;fillColor=none;top=0;left=0;bottom=0;right=0;align=center;spacingLeft=6;fontStyle=5;overflow=hidden;html=1;whiteSpace=wrap;fontSize=14;" parent="z5Srj0_W4YSiYPK0m8sV-315" vertex="1">
          <mxGeometry x="540" width="120" height="30" as="geometry">
            <mxRectangle width="120" height="30" as="alternateBounds" />
          </mxGeometry>
        </mxCell>
        <mxCell id="z5Srj0_W4YSiYPK0m8sV-318" value="" style="shape=tableRow;horizontal=0;startSize=0;swimlaneHead=0;swimlaneBody=0;fillColor=none;collapsible=0;dropTarget=0;points=[[0,0.5],[1,0.5]];portConstraint=eastwest;top=0;left=0;right=0;bottom=0;html=1;fontStyle=1;align=center;fontSize=14;" parent="z5Srj0_W4YSiYPK0m8sV-311" vertex="1">
          <mxGeometry y="120" width="660" height="30" as="geometry" />
        </mxCell>
        <mxCell id="z5Srj0_W4YSiYPK0m8sV-319" value="" style="shape=partialRectangle;connectable=0;fillColor=none;top=0;left=0;bottom=0;right=0;editable=1;overflow=hidden;html=1;whiteSpace=wrap;fontStyle=1;align=center;fontSize=14;" parent="z5Srj0_W4YSiYPK0m8sV-318" vertex="1">
          <mxGeometry width="60" height="30" as="geometry">
            <mxRectangle width="60" height="30" as="alternateBounds" />
          </mxGeometry>
        </mxCell>
        <mxCell id="z5Srj0_W4YSiYPK0m8sV-320" value="Quantidade" style="shape=partialRectangle;connectable=0;fillColor=none;top=0;left=0;bottom=0;right=0;align=center;spacingLeft=6;overflow=hidden;html=1;whiteSpace=wrap;fontStyle=1;fontSize=14;" parent="z5Srj0_W4YSiYPK0m8sV-318" vertex="1">
          <mxGeometry x="60" width="120" height="30" as="geometry">
            <mxRectangle width="120" height="30" as="alternateBounds" />
          </mxGeometry>
        </mxCell>
        <mxCell id="wo0TMsI5rG442XAfvcZ0-336" value="1" style="shape=partialRectangle;connectable=0;fillColor=none;top=0;left=0;bottom=0;right=0;align=center;spacingLeft=6;overflow=hidden;html=1;whiteSpace=wrap;fontStyle=1;fontSize=14;" parent="z5Srj0_W4YSiYPK0m8sV-318" vertex="1">
          <mxGeometry x="180" width="120" height="30" as="geometry">
            <mxRectangle width="120" height="30" as="alternateBounds" />
          </mxGeometry>
        </mxCell>
        <mxCell id="wo0TMsI5rG442XAfvcZ0-340" value="6" style="shape=partialRectangle;connectable=0;fillColor=none;top=0;left=0;bottom=0;right=0;align=center;spacingLeft=6;overflow=hidden;html=1;whiteSpace=wrap;fontStyle=1;fontSize=14;" parent="z5Srj0_W4YSiYPK0m8sV-318" vertex="1">
          <mxGeometry x="300" width="120" height="30" as="geometry">
            <mxRectangle width="120" height="30" as="alternateBounds" />
          </mxGeometry>
        </mxCell>
        <mxCell id="wo0TMsI5rG442XAfvcZ0-344" value="2" style="shape=partialRectangle;connectable=0;fillColor=none;top=0;left=0;bottom=0;right=0;align=center;spacingLeft=6;overflow=hidden;html=1;whiteSpace=wrap;fontStyle=1;fontSize=14;" parent="z5Srj0_W4YSiYPK0m8sV-318" vertex="1">
          <mxGeometry x="420" width="120" height="30" as="geometry">
            <mxRectangle width="120" height="30" as="alternateBounds" />
          </mxGeometry>
        </mxCell>
        <mxCell id="wo0TMsI5rG442XAfvcZ0-348" value="1" style="shape=partialRectangle;connectable=0;fillColor=none;top=0;left=0;bottom=0;right=0;align=center;spacingLeft=6;overflow=hidden;html=1;whiteSpace=wrap;fontStyle=1;fontSize=14;" parent="z5Srj0_W4YSiYPK0m8sV-318" vertex="1">
          <mxGeometry x="540" width="120" height="30" as="geometry">
            <mxRectangle width="120" height="30" as="alternateBounds" />
          </mxGeometry>
        </mxCell>
        <mxCell id="wo0TMsI5rG442XAfvcZ0-350" style="edgeStyle=orthogonalEdgeStyle;rounded=0;orthogonalLoop=1;jettySize=auto;html=1;" parent="1" source="z5Srj0_W4YSiYPK0m8sV-333" edge="1">
          <mxGeometry relative="1" as="geometry">
            <mxPoint x="500" y="570" as="targetPoint" />
          </mxGeometry>
        </mxCell>
        <mxCell id="z5Srj0_W4YSiYPK0m8sV-333" value="Item" style="shape=table;startSize=30;container=1;collapsible=1;childLayout=tableLayout;fixedRows=1;rowLines=0;fontStyle=1;align=center;resizeLast=1;html=1;fontSize=14;" parent="1" vertex="1">
          <mxGeometry x="-40" y="805" width="1080" height="150" as="geometry" />
        </mxCell>
        <mxCell id="z5Srj0_W4YSiYPK0m8sV-334" value="" style="shape=tableRow;horizontal=0;startSize=0;swimlaneHead=0;swimlaneBody=0;fillColor=none;collapsible=0;dropTarget=0;points=[[0,0.5],[1,0.5]];portConstraint=eastwest;top=0;left=0;right=0;bottom=1;fontStyle=1;align=center;fontSize=14;" parent="z5Srj0_W4YSiYPK0m8sV-333" vertex="1">
          <mxGeometry y="30" width="1080" height="30" as="geometry" />
        </mxCell>
        <mxCell id="z5Srj0_W4YSiYPK0m8sV-335" value="PK" style="shape=partialRectangle;connectable=0;fillColor=none;top=0;left=0;bottom=0;right=0;fontStyle=1;overflow=hidden;whiteSpace=wrap;html=1;align=center;fontSize=14;" parent="z5Srj0_W4YSiYPK0m8sV-334" vertex="1">
          <mxGeometry width="30" height="30" as="geometry">
            <mxRectangle width="30" height="30" as="alternateBounds" />
          </mxGeometry>
        </mxCell>
        <mxCell id="z5Srj0_W4YSiYPK0m8sV-336" value="ID_item" style="shape=partialRectangle;connectable=0;fillColor=none;top=0;left=0;bottom=0;right=0;align=center;spacingLeft=6;fontStyle=5;overflow=hidden;whiteSpace=wrap;html=1;fontSize=14;" parent="z5Srj0_W4YSiYPK0m8sV-334" vertex="1">
          <mxGeometry x="30" width="150" height="30" as="geometry">
            <mxRectangle width="150" height="30" as="alternateBounds" />
          </mxGeometry>
        </mxCell>
        <mxCell id="wo0TMsI5rG442XAfvcZ0-309" value="01" style="shape=partialRectangle;connectable=0;fillColor=none;top=0;left=0;bottom=0;right=0;align=center;spacingLeft=6;fontStyle=5;overflow=hidden;whiteSpace=wrap;html=1;fontSize=14;" parent="z5Srj0_W4YSiYPK0m8sV-334" vertex="1">
          <mxGeometry x="180" width="150" height="30" as="geometry">
            <mxRectangle width="150" height="30" as="alternateBounds" />
          </mxGeometry>
        </mxCell>
        <mxCell id="wo0TMsI5rG442XAfvcZ0-313" value="02" style="shape=partialRectangle;connectable=0;fillColor=none;top=0;left=0;bottom=0;right=0;align=center;spacingLeft=6;fontStyle=5;overflow=hidden;whiteSpace=wrap;html=1;fontSize=14;" parent="z5Srj0_W4YSiYPK0m8sV-334" vertex="1">
          <mxGeometry x="330" width="150" height="30" as="geometry">
            <mxRectangle width="150" height="30" as="alternateBounds" />
          </mxGeometry>
        </mxCell>
        <mxCell id="wo0TMsI5rG442XAfvcZ0-317" value="03" style="shape=partialRectangle;connectable=0;fillColor=none;top=0;left=0;bottom=0;right=0;align=center;spacingLeft=6;fontStyle=5;overflow=hidden;whiteSpace=wrap;html=1;fontSize=14;" parent="z5Srj0_W4YSiYPK0m8sV-334" vertex="1">
          <mxGeometry x="480" width="180" height="30" as="geometry">
            <mxRectangle width="180" height="30" as="alternateBounds" />
          </mxGeometry>
        </mxCell>
        <mxCell id="wo0TMsI5rG442XAfvcZ0-321" value="04" style="shape=partialRectangle;connectable=0;fillColor=none;top=0;left=0;bottom=0;right=0;align=center;spacingLeft=6;fontStyle=5;overflow=hidden;whiteSpace=wrap;html=1;fontSize=14;" parent="z5Srj0_W4YSiYPK0m8sV-334" vertex="1">
          <mxGeometry x="660" width="120" height="30" as="geometry">
            <mxRectangle width="120" height="30" as="alternateBounds" />
          </mxGeometry>
        </mxCell>
        <mxCell id="wo0TMsI5rG442XAfvcZ0-325" value="05" style="shape=partialRectangle;connectable=0;fillColor=none;top=0;left=0;bottom=0;right=0;align=center;spacingLeft=6;fontStyle=5;overflow=hidden;whiteSpace=wrap;html=1;fontSize=14;" parent="z5Srj0_W4YSiYPK0m8sV-334" vertex="1">
          <mxGeometry x="780" width="150" height="30" as="geometry">
            <mxRectangle width="150" height="30" as="alternateBounds" />
          </mxGeometry>
        </mxCell>
        <mxCell id="wo0TMsI5rG442XAfvcZ0-329" value="06" style="shape=partialRectangle;connectable=0;fillColor=none;top=0;left=0;bottom=0;right=0;align=center;spacingLeft=6;fontStyle=5;overflow=hidden;whiteSpace=wrap;html=1;fontSize=14;" parent="z5Srj0_W4YSiYPK0m8sV-334" vertex="1">
          <mxGeometry x="930" width="150" height="30" as="geometry">
            <mxRectangle width="150" height="30" as="alternateBounds" />
          </mxGeometry>
        </mxCell>
        <mxCell id="z5Srj0_W4YSiYPK0m8sV-337" value="" style="shape=tableRow;horizontal=0;startSize=0;swimlaneHead=0;swimlaneBody=0;fillColor=none;collapsible=0;dropTarget=0;points=[[0,0.5],[1,0.5]];portConstraint=eastwest;top=0;left=0;right=0;bottom=0;fontStyle=1;align=center;fontSize=14;" parent="z5Srj0_W4YSiYPK0m8sV-333" vertex="1">
          <mxGeometry y="60" width="1080" height="30" as="geometry" />
        </mxCell>
        <mxCell id="z5Srj0_W4YSiYPK0m8sV-338" value="" style="shape=partialRectangle;connectable=0;fillColor=none;top=0;left=0;bottom=0;right=0;editable=1;overflow=hidden;whiteSpace=wrap;html=1;fontStyle=1;align=center;fontSize=14;" parent="z5Srj0_W4YSiYPK0m8sV-337" vertex="1">
          <mxGeometry width="30" height="30" as="geometry">
            <mxRectangle width="30" height="30" as="alternateBounds" />
          </mxGeometry>
        </mxCell>
        <mxCell id="z5Srj0_W4YSiYPK0m8sV-339" value="Nome" style="shape=partialRectangle;connectable=0;fillColor=none;top=0;left=0;bottom=0;right=0;align=center;spacingLeft=6;overflow=hidden;whiteSpace=wrap;html=1;fontStyle=1;fontSize=14;" parent="z5Srj0_W4YSiYPK0m8sV-337" vertex="1">
          <mxGeometry x="30" width="150" height="30" as="geometry">
            <mxRectangle width="150" height="30" as="alternateBounds" />
          </mxGeometry>
        </mxCell>
        <mxCell id="wo0TMsI5rG442XAfvcZ0-310" value="PÃ£o" style="shape=partialRectangle;connectable=0;fillColor=none;top=0;left=0;bottom=0;right=0;align=center;spacingLeft=6;overflow=hidden;whiteSpace=wrap;html=1;fontStyle=1;fontSize=14;" parent="z5Srj0_W4YSiYPK0m8sV-337" vertex="1">
          <mxGeometry x="180" width="150" height="30" as="geometry">
            <mxRectangle width="150" height="30" as="alternateBounds" />
          </mxGeometry>
        </mxCell>
        <mxCell id="wo0TMsI5rG442XAfvcZ0-314" value="Fire" style="shape=partialRectangle;connectable=0;fillColor=none;top=0;left=0;bottom=0;right=0;align=center;spacingLeft=6;overflow=hidden;whiteSpace=wrap;html=1;fontStyle=1;fontSize=14;" parent="z5Srj0_W4YSiYPK0m8sV-337" vertex="1">
          <mxGeometry x="330" width="150" height="30" as="geometry">
            <mxRectangle width="150" height="30" as="alternateBounds" />
          </mxGeometry>
        </mxCell>
        <mxCell id="wo0TMsI5rG442XAfvcZ0-318" value="Capa de Invisibilidade" style="shape=partialRectangle;connectable=0;fillColor=none;top=0;left=0;bottom=0;right=0;align=center;spacingLeft=6;overflow=hidden;whiteSpace=wrap;html=1;fontStyle=1;fontSize=14;" parent="z5Srj0_W4YSiYPK0m8sV-337" vertex="1">
          <mxGeometry x="480" width="180" height="30" as="geometry">
            <mxRectangle width="180" height="30" as="alternateBounds" />
          </mxGeometry>
        </mxCell>
        <mxCell id="wo0TMsI5rG442XAfvcZ0-322" value="Rubi Vermelho" style="shape=partialRectangle;connectable=0;fillColor=none;top=0;left=0;bottom=0;right=0;align=center;spacingLeft=6;overflow=hidden;whiteSpace=wrap;html=1;fontStyle=1;fontSize=14;" parent="z5Srj0_W4YSiYPK0m8sV-337" vertex="1">
          <mxGeometry x="660" width="120" height="30" as="geometry">
            <mxRectangle width="120" height="30" as="alternateBounds" />
          </mxGeometry>
        </mxCell>
        <mxCell id="wo0TMsI5rG442XAfvcZ0-326" value="Picareta Macaco" style="shape=partialRectangle;connectable=0;fillColor=none;top=0;left=0;bottom=0;right=0;align=center;spacingLeft=6;overflow=hidden;whiteSpace=wrap;html=1;fontStyle=1;fontSize=14;" parent="z5Srj0_W4YSiYPK0m8sV-337" vertex="1">
          <mxGeometry x="780" width="150" height="30" as="geometry">
            <mxRectangle width="150" height="30" as="alternateBounds" />
          </mxGeometry>
        </mxCell>
        <mxCell id="wo0TMsI5rG442XAfvcZ0-330" value="Escalibur" style="shape=partialRectangle;connectable=0;fillColor=none;top=0;left=0;bottom=0;right=0;align=center;spacingLeft=6;overflow=hidden;whiteSpace=wrap;html=1;fontStyle=1;fontSize=14;" parent="z5Srj0_W4YSiYPK0m8sV-337" vertex="1">
          <mxGeometry x="930" width="150" height="30" as="geometry">
            <mxRectangle width="150" height="30" as="alternateBounds" />
          </mxGeometry>
        </mxCell>
        <mxCell id="z5Srj0_W4YSiYPK0m8sV-340" value="" style="shape=tableRow;horizontal=0;startSize=0;swimlaneHead=0;swimlaneBody=0;fillColor=none;collapsible=0;dropTarget=0;points=[[0,0.5],[1,0.5]];portConstraint=eastwest;top=0;left=0;right=0;bottom=0;fontStyle=1;align=center;fontSize=14;" parent="z5Srj0_W4YSiYPK0m8sV-333" vertex="1">
          <mxGeometry y="90" width="1080" height="30" as="geometry" />
        </mxCell>
        <mxCell id="z5Srj0_W4YSiYPK0m8sV-341" value="" style="shape=partialRectangle;connectable=0;fillColor=none;top=0;left=0;bottom=0;right=0;editable=1;overflow=hidden;whiteSpace=wrap;html=1;fontStyle=1;align=center;fontSize=14;" parent="z5Srj0_W4YSiYPK0m8sV-340" vertex="1">
          <mxGeometry width="30" height="30" as="geometry">
            <mxRectangle width="30" height="30" as="alternateBounds" />
          </mxGeometry>
        </mxCell>
        <mxCell id="z5Srj0_W4YSiYPK0m8sV-342" value="Tipo" style="shape=partialRectangle;connectable=0;fillColor=none;top=0;left=0;bottom=0;right=0;align=center;spacingLeft=6;overflow=hidden;whiteSpace=wrap;html=1;fontStyle=1;fontSize=14;" parent="z5Srj0_W4YSiYPK0m8sV-340" vertex="1">
          <mxGeometry x="30" width="150" height="30" as="geometry">
            <mxRectangle width="150" height="30" as="alternateBounds" />
          </mxGeometry>
        </mxCell>
        <mxCell id="wo0TMsI5rG442XAfvcZ0-311" value="Alimento" style="shape=partialRectangle;connectable=0;fillColor=none;top=0;left=0;bottom=0;right=0;align=center;spacingLeft=6;overflow=hidden;whiteSpace=wrap;html=1;fontStyle=1;fontSize=14;" parent="z5Srj0_W4YSiYPK0m8sV-340" vertex="1">
          <mxGeometry x="180" width="150" height="30" as="geometry">
            <mxRectangle width="150" height="30" as="alternateBounds" />
          </mxGeometry>
        </mxCell>
        <mxCell id="wo0TMsI5rG442XAfvcZ0-315" value="PoÃ§Ã£o" style="shape=partialRectangle;connectable=0;fillColor=none;top=0;left=0;bottom=0;right=0;align=center;spacingLeft=6;overflow=hidden;whiteSpace=wrap;html=1;fontStyle=1;fontSize=14;" parent="z5Srj0_W4YSiYPK0m8sV-340" vertex="1">
          <mxGeometry x="330" width="150" height="30" as="geometry">
            <mxRectangle width="150" height="30" as="alternateBounds" />
          </mxGeometry>
        </mxCell>
        <mxCell id="wo0TMsI5rG442XAfvcZ0-319" value="AcessÃ³rio" style="shape=partialRectangle;connectable=0;fillColor=none;top=0;left=0;bottom=0;right=0;align=center;spacingLeft=6;overflow=hidden;whiteSpace=wrap;html=1;fontStyle=1;fontSize=14;" parent="z5Srj0_W4YSiYPK0m8sV-340" vertex="1">
          <mxGeometry x="480" width="180" height="30" as="geometry">
            <mxRectangle width="180" height="30" as="alternateBounds" />
          </mxGeometry>
        </mxCell>
        <mxCell id="wo0TMsI5rG442XAfvcZ0-323" value="Material" style="shape=partialRectangle;connectable=0;fillColor=none;top=0;left=0;bottom=0;right=0;align=center;spacingLeft=6;overflow=hidden;whiteSpace=wrap;html=1;fontStyle=1;fontSize=14;" parent="z5Srj0_W4YSiYPK0m8sV-340" vertex="1">
          <mxGeometry x="660" width="120" height="30" as="geometry">
            <mxRectangle width="120" height="30" as="alternateBounds" />
          </mxGeometry>
        </mxCell>
        <mxCell id="wo0TMsI5rG442XAfvcZ0-327" value="Ferramenta" style="shape=partialRectangle;connectable=0;fillColor=none;top=0;left=0;bottom=0;right=0;align=center;spacingLeft=6;overflow=hidden;whiteSpace=wrap;html=1;fontStyle=1;fontSize=14;" parent="z5Srj0_W4YSiYPK0m8sV-340" vertex="1">
          <mxGeometry x="780" width="150" height="30" as="geometry">
            <mxRectangle width="150" height="30" as="alternateBounds" />
          </mxGeometry>
        </mxCell>
        <mxCell id="wo0TMsI5rG442XAfvcZ0-331" value="Arma" style="shape=partialRectangle;connectable=0;fillColor=none;top=0;left=0;bottom=0;right=0;align=center;spacingLeft=6;overflow=hidden;whiteSpace=wrap;html=1;fontStyle=1;fontSize=14;" parent="z5Srj0_W4YSiYPK0m8sV-340" vertex="1">
          <mxGeometry x="930" width="150" height="30" as="geometry">
            <mxRectangle width="150" height="30" as="alternateBounds" />
          </mxGeometry>
        </mxCell>
        <mxCell id="z5Srj0_W4YSiYPK0m8sV-343" value="" style="shape=tableRow;horizontal=0;startSize=0;swimlaneHead=0;swimlaneBody=0;fillColor=none;collapsible=0;dropTarget=0;points=[[0,0.5],[1,0.5]];portConstraint=eastwest;top=0;left=0;right=0;bottom=0;fontStyle=1;align=center;fontSize=14;" parent="z5Srj0_W4YSiYPK0m8sV-333" vertex="1">
          <mxGeometry y="120" width="1080" height="30" as="geometry" />
        </mxCell>
        <mxCell id="z5Srj0_W4YSiYPK0m8sV-344" value="" style="shape=partialRectangle;connectable=0;fillColor=none;top=0;left=0;bottom=0;right=0;editable=1;overflow=hidden;whiteSpace=wrap;html=1;fontStyle=1;align=center;fontSize=14;" parent="z5Srj0_W4YSiYPK0m8sV-343" vertex="1">
          <mxGeometry width="30" height="30" as="geometry">
            <mxRectangle width="30" height="30" as="alternateBounds" />
          </mxGeometry>
        </mxCell>
        <mxCell id="z5Srj0_W4YSiYPK0m8sV-345" value="Raridade" style="shape=partialRectangle;connectable=0;fillColor=none;top=0;left=0;bottom=0;right=0;align=center;spacingLeft=6;overflow=hidden;whiteSpace=wrap;html=1;fontStyle=1;fontSize=14;" parent="z5Srj0_W4YSiYPK0m8sV-343" vertex="1">
          <mxGeometry x="30" width="150" height="30" as="geometry">
            <mxRectangle width="150" height="30" as="alternateBounds" />
          </mxGeometry>
        </mxCell>
        <mxCell id="wo0TMsI5rG442XAfvcZ0-312" value="Comum" style="shape=partialRectangle;connectable=0;fillColor=none;top=0;left=0;bottom=0;right=0;align=center;spacingLeft=6;overflow=hidden;whiteSpace=wrap;html=1;fontStyle=1;fontSize=14;" parent="z5Srj0_W4YSiYPK0m8sV-343" vertex="1">
          <mxGeometry x="180" width="150" height="30" as="geometry">
            <mxRectangle width="150" height="30" as="alternateBounds" />
          </mxGeometry>
        </mxCell>
        <mxCell id="wo0TMsI5rG442XAfvcZ0-316" value="Incomum" style="shape=partialRectangle;connectable=0;fillColor=none;top=0;left=0;bottom=0;right=0;align=center;spacingLeft=6;overflow=hidden;whiteSpace=wrap;html=1;fontStyle=1;fontSize=14;" parent="z5Srj0_W4YSiYPK0m8sV-343" vertex="1">
          <mxGeometry x="330" width="150" height="30" as="geometry">
            <mxRectangle width="150" height="30" as="alternateBounds" />
          </mxGeometry>
        </mxCell>
        <mxCell id="wo0TMsI5rG442XAfvcZ0-320" value="Raro" style="shape=partialRectangle;connectable=0;fillColor=none;top=0;left=0;bottom=0;right=0;align=center;spacingLeft=6;overflow=hidden;whiteSpace=wrap;html=1;fontStyle=1;fontSize=14;" parent="z5Srj0_W4YSiYPK0m8sV-343" vertex="1">
          <mxGeometry x="480" width="180" height="30" as="geometry">
            <mxRectangle width="180" height="30" as="alternateBounds" />
          </mxGeometry>
        </mxCell>
        <mxCell id="wo0TMsI5rG442XAfvcZ0-324" value="Limitado" style="shape=partialRectangle;connectable=0;fillColor=none;top=0;left=0;bottom=0;right=0;align=center;spacingLeft=6;overflow=hidden;whiteSpace=wrap;html=1;fontStyle=1;fontSize=14;" parent="z5Srj0_W4YSiYPK0m8sV-343" vertex="1">
          <mxGeometry x="660" width="120" height="30" as="geometry">
            <mxRectangle width="120" height="30" as="alternateBounds" />
          </mxGeometry>
        </mxCell>
        <mxCell id="wo0TMsI5rG442XAfvcZ0-328" value="LendÃ¡rio" style="shape=partialRectangle;connectable=0;fillColor=none;top=0;left=0;bottom=0;right=0;align=center;spacingLeft=6;overflow=hidden;whiteSpace=wrap;html=1;fontStyle=1;fontSize=14;" parent="z5Srj0_W4YSiYPK0m8sV-343" vertex="1">
          <mxGeometry x="780" width="150" height="30" as="geometry">
            <mxRectangle width="150" height="30" as="alternateBounds" />
          </mxGeometry>
        </mxCell>
        <mxCell id="wo0TMsI5rG442XAfvcZ0-332" value="MÃ­tico" style="shape=partialRectangle;connectable=0;fillColor=none;top=0;left=0;bottom=0;right=0;align=center;spacingLeft=6;overflow=hidden;whiteSpace=wrap;html=1;fontStyle=1;fontSize=14;" parent="z5Srj0_W4YSiYPK0m8sV-343" vertex="1">
          <mxGeometry x="930" width="150" height="30" as="geometry">
            <mxRectangle width="150" height="30" as="alternateBounds" />
          </mxGeometry>
        </mxCell>
      </root>
    </mxGraphModel>
  </diagram>
</mxfile>
